<svg id="Layer_1" data-name="Layer 1" xmlns="http://www.w3.org/2000/svg" viewBox="0 0 512 512"><defs><style>.cls-1{fill:#069986;}.cls-2{fill:#fff;}</style></defs><circle class="cls-1" cx="256" cy="256" r="256"/><path class="cls-2" d="M327,234.12l-22.31-22.31v17.45a4.87,4.87,0,0,0,4.87,4.86Z"/><path class="cls-2" d="M294.92,229.26V204.94H192.76a14.59,14.59,0,0,0-14.59,14.59V375.19a14.59,14.59,0,0,0,14.59,14.59H319.24a14.59,14.59,0,0,0,14.59-14.59V243.85H309.51A14.59,14.59,0,0,1,294.92,229.26Zm-92.43,4.86h68.1a4.87,4.87,0,1,1,0,9.73h-68.1a4.87,4.87,0,0,1,0-9.73Zm9.73,145.93h-9.73a14.59,14.59,0,0,1-14.59-14.59v-9.73a4.87,4.87,0,0,1,9.73,0v9.73a4.86,4.86,0,0,0,4.86,4.86h9.73a4.87,4.87,0,1,1,0,9.73Zm97.29-19.45H222a4.87,4.87,0,0,1,0-9.73h87.56a4.87,4.87,0,0,1,0,9.73Zm0-29.19h-107a4.87,4.87,0,0,1,0-9.73h107a4.87,4.87,0,0,1,0,9.73Zm0-29.19h-107a4.87,4.87,0,0,1,0-9.73h107a4.87,4.87,0,0,1,0,9.73Zm4.86-34.05a4.86,4.86,0,0,1-4.86,4.87h-107a4.87,4.87,0,0,1,0-9.73h107A4.86,4.86,0,0,1,314.37,268.17Z"/><path class="cls-2" d="M353.29,175.75a43.26,43.26,0,0,0-21.4,5.64,29.19,29.19,0,0,0-37.73-37.73,38.92,38.92,0,0,0-76.28,0,29.14,29.14,0,0,0-12.16-1.9,29.19,29.19,0,0,0-25.57,39.63,43.28,43.28,0,0,0-21.44-5.64A43.78,43.78,0,0,0,115,222.45a44.79,44.79,0,0,0,45.19,40.86h8.22V219.53a24.35,24.35,0,0,1,24.32-24.32h107c.11,0,.2,0,.31.06a5.23,5.23,0,0,1,1.24.24l.49.17a4.81,4.81,0,0,1,1.42,1l38.91,38.91a5,5,0,0,1,1,1.43c.06.15.1.3.16.45a4.93,4.93,0,0,1,.25,1.27c0,.1.06.19.06.29v24.32h8.22A44.77,44.77,0,0,0,397,222.47a43.79,43.79,0,0,0-43.72-46.72Z"/><path class="cls-2" d="M391.37,374h-8.9V277.9a4.86,4.86,0,0,0-9.72,0V374H357l20.64,20.64L398.25,374Z"/><path class="cls-2" d="M134.39,277.9l-20.64,20.64h15.78v96.11a4.87,4.87,0,0,0,9.73,0V298.54H155Z"/></svg>