<svg id="Layer_1" data-name="Layer 1" xmlns="http://www.w3.org/2000/svg" viewBox="0 0 512 512"><defs><style>.cls-1{fill:#069986;}.cls-2{fill:#fff;}</style></defs><circle class="cls-1" cx="256" cy="256" r="256"/><path class="cls-2" d="M256,393.73c13.35,0,24.21-11.4,24.21-24.75a24.17,24.17,0,0,0-16.14-22.72V296.35H247.93v49.91A24.17,24.17,0,0,0,231.79,369C231.79,382.33,242.65,393.73,256,393.73Z"/><path class="cls-2" d="M369,296.35a24.17,24.17,0,0,0-22.72,16.14H296.35V296.35H280.21v24.21a8.07,8.07,0,0,0,8.07,8.07h24.21V369a8.07,8.07,0,0,0,16.14,0V328.63h17.63A24.17,24.17,0,0,0,369,344.77c13.35,0,24.75-10.86,24.75-24.21S382.33,296.35,369,296.35Z"/><path class="cls-2" d="M280.21,231.79H231.79v48.42h48.42ZM256,264.07a8.07,8.07,0,1,1,8.07-8.07A8.07,8.07,0,0,1,256,264.07Z"/><path class="cls-2" d="M344.77,183.37c0-26.7-21.72-49-48.42-49a44.55,44.55,0,0,0-9.65,1.11,72.18,72.18,0,0,0-46.84-17.25c-30.94,0-58.17,20.2-68.3,49.09-29.41,1.93-53.29,26.47-53.29,56.36,0,31.15,25.89,56.49,57,56.49h40.35V247.93H175.3a8.07,8.07,0,0,1,0-16.14h8.07v-8.07a8.07,8.07,0,1,1,16.14,0v8.07h16.14v-8.07a8.07,8.07,0,0,1,8.07-8.07h8.07V191.44a8.07,8.07,0,1,1,16.14,0v24.21h16.14V191.44a8.07,8.07,0,1,1,16.14,0v24.21h8.07a8.07,8.07,0,0,1,8.07,8.07v8.07h16.14v-8.07a8.07,8.07,0,0,1,16.14,0v8.07h8.07a8.07,8.07,0,0,1,0,16.14H296.35v32.28h48.42c26.7,0,49-21.72,49-48.42S371.47,183.37,344.77,183.37Z"/><path class="cls-2" d="M215.65,312.49H165.74A24.17,24.17,0,0,0,143,296.35c-13.35,0-24.75,10.86-24.75,24.21s11.4,24.21,24.75,24.21a24.17,24.17,0,0,0,22.72-16.14h17.63V369a8.07,8.07,0,0,0,16.14,0V328.63h24.21a8.07,8.07,0,0,0,8.07-8.07V296.35H215.65Z"/></svg>