<?xml version="1.0" encoding="iso-8859-1"?>
<!-- Generator: Adobe Illustrator 19.0.0, SVG Export Plug-In . SVG Version: 6.00 Build 0)  -->
<svg version="1.1" id="Layer_1" xmlns="http://www.w3.org/2000/svg" xmlns:xlink="http://www.w3.org/1999/xlink" x="0px" y="0px"
	 viewBox="0 0 512 512" style="enable-background:new 0 0 512 512;" xml:space="preserve">
<g id="XMLID_535_">
	<path id="XMLID_921_" style="fill:#069986;" d="M256,512L256,512C114.615,512,0,397.385,0,256V256C0,114.615,114.615,0,256,0H256
		c141.385,0,256,114.615,256,256V256C512,397.385,397.385,512,256,512z"/>
	<g id="_88_cloud_time">
		<path style="fill:#FFFFFF;" d="M269.344,360.624c-3.48,0.02-6.824-1.346-9.294-3.796l-13.091-13.091
			c-2.45-2.47-3.816-5.815-3.796-9.294v-39.272c0.007-7.23,5.874-13.085,13.103-13.078c7.22,0.007,13.071,5.858,13.078,13.078
			v33.905l9.294,9.163c5.133,5.091,5.167,13.38,0.076,18.513c-0.025,0.025-0.051,0.051-0.076,0.076
			C276.168,359.279,272.824,360.645,269.344,360.624L269.344,360.624z M357.706,164.919c-14.164-56.077-71.106-90.054-127.183-75.89
			c-37.087,9.368-66.116,38.21-75.723,75.236c-50.301,5.567-86.566,50.857-81,101.158c4.609,41.649,36.883,74.865,78.381,80.672
			c-0.655-3.534-0.655-7.593-0.655-11.651c0.036-47.726,32.334-89.391,78.544-101.322v-3.404c0-14.46,11.722-26.181,26.181-26.181
			c14.46,0,26.181,11.722,26.181,26.181v3.404c46.21,11.931,78.509,53.596,78.544,101.322c0,4.058,0,8.116-0.655,12.174
			c50.08-7.295,84.764-53.806,77.47-103.886C431.81,201.645,398.948,169.717,357.706,164.919z M347.888,334.443
			c0.059,50.608-40.919,91.683-91.527,91.742s-91.683-40.919-91.742-91.527c-0.053-45.592,33.419-84.289,78.544-90.802v-14.138
			c0-7.23,5.861-13.091,13.091-13.091c7.23,0,13.091,5.861,13.091,13.091v14.138C314.388,250.357,347.835,288.932,347.888,334.443z
			 M321.707,334.443c0-36.149-29.305-65.453-65.453-65.453S190.8,298.294,190.8,334.443s29.305,65.453,65.453,65.453
			S321.707,370.592,321.707,334.443z"/>
	</g>
</g>
</svg>
