<svg id="Layer_1" data-name="Layer 1" xmlns="http://www.w3.org/2000/svg" xmlns:xlink="http://www.w3.org/1999/xlink" viewBox="0 0 512 512"><defs><style>.cls-1{fill:none;}.cls-2{fill:#069986;}.cls-3{clip-path:url(#clip-path);}.cls-4{fill:#f9f9f9;}</style><clipPath id="clip-path"><rect class="cls-1" x="88.07" y="88.07" width="335.86" height="335.86"/></clipPath></defs><path class="cls-2" d="M118.34,0H512a0,0,0,0,1,0,0V393.66A118.34,118.34,0,0,1,393.66,512H0a0,0,0,0,1,0,0V118.34A118.34,118.34,0,0,1,118.34,0Z"/><g id="g1788"><g id="g1790"><g class="cls-3"><g id="g1792"><g id="g1798"><g id="path1800"><path class="cls-4" d="M404.58,359.32H107.42A19.37,19.37,0,0,1,88.07,340V171.58a4.92,4.92,0,1,1,9.84,0V340a9.53,9.53,0,0,0,9.51,9.51H404.58a9.53,9.53,0,0,0,9.51-9.51V122.18a9.53,9.53,0,0,0-9.51-9.51H381.92a4.92,4.92,0,0,1,0-9.84h22.66a19.37,19.37,0,0,1,19.35,19.35V340A19.37,19.37,0,0,1,404.58,359.32Z"/></g></g><g id="g1802"><g id="path1804"><path class="cls-4" d="M93,155.27a4.92,4.92,0,0,1-4.92-4.92V122.18a19.37,19.37,0,0,1,19.35-19.35H361a4.92,4.92,0,1,1,0,9.84H107.42a9.53,9.53,0,0,0-9.51,9.51v28.17A4.92,4.92,0,0,1,93,155.27Z"/></g></g><g id="g1806"><g id="path1808"><path class="cls-4" d="M397.36,316H114.64a6.9,6.9,0,0,1-6.89-6.89V129.4a6.9,6.9,0,0,1,6.89-6.89H397.36a6.9,6.9,0,0,1,6.89,6.89V276.66a4.92,4.92,0,1,1-9.84,0V132.35H117.59V306.18H394.41v-8.41a4.92,4.92,0,0,1,9.84,0v11.36A6.9,6.9,0,0,1,397.36,316Z"/></g></g><g id="path1810"><path class="cls-4" d="M300.93,389.49H215.65a4.92,4.92,0,0,1-4.92-4.92V354.4a4.92,4.92,0,0,1,4.92-4.92h85.28a4.92,4.92,0,0,1,4.92,4.92v30.17A4.92,4.92,0,0,1,300.93,389.49Zm-80.36-9.84H296V359.32H220.57Z"/></g><g id="g1812"><g id="path1814"><path class="cls-4" d="M333.81,409.17h-151a14.76,14.76,0,0,1,0-29.52H333.81a14.76,14.76,0,0,1,0,29.52Zm-151-19.68a4.92,4.92,0,0,0,0,9.84H333.81a4.92,4.92,0,0,0,0-9.84Z"/></g></g><g id="g1816"><g id="path1818"><path class="cls-4" d="M263.91,294.74a4.93,4.93,0,0,1-4.92-4.92v-35.2a4.92,4.92,0,1,1,9.84,0v35.2A4.92,4.92,0,0,1,263.91,294.74Z"/></g></g><g id="g1820"><g id="path1822"><path class="cls-4" d="M285.56,294.74a4.92,4.92,0,0,1-4.92-4.92v-35.2a4.92,4.92,0,1,1,9.84,0v35.2A4.93,4.93,0,0,1,285.56,294.74Z"/></g></g><g id="g1824"><g id="path1826"><path class="cls-4" d="M308.32,277.14H286.26a4.92,4.92,0,0,1,0-9.84h22.06a4.92,4.92,0,0,1,0,9.84Z"/></g></g><g id="g1828"><g id="path1830"><path class="cls-4" d="M309,294.74a4.92,4.92,0,0,1-4.92-4.92v-35.2a4.92,4.92,0,1,1,9.84,0v35.2A4.92,4.92,0,0,1,309,294.74Z"/></g></g><g id="g1832"><g id="path1834"><path class="cls-4" d="M226.44,294.74H205.91a7.87,7.87,0,0,1-7.85-7.86V275.15a7.86,7.86,0,0,1,7.85-7.85h15.61v-7.76h-14a4.92,4.92,0,0,1-9.42-2,7.86,7.86,0,0,1,7.85-7.85h17.6a7.86,7.86,0,0,1,7.85,7.85v11.73a7.87,7.87,0,0,1-7.85,7.86H207.9v7.76h18.54a4.92,4.92,0,0,1,0,9.84Z"/></g></g><g id="g1836"><g id="path1838"><path class="cls-4" d="M263.18,277.14h-19.8a7.87,7.87,0,0,1-7.85-7.86V254.62a4.92,4.92,0,0,1,9.84,0V267.3h17.81a4.92,4.92,0,1,1,0,9.84Z"/></g></g><g id="path1840"><path class="cls-4" d="M172.36,231.84H144.81a4.92,4.92,0,0,1-4.92-4.92V178.09a4.92,4.92,0,0,1,4.92-4.92h27.55a4.92,4.92,0,0,1,4.92,4.92v48.83A4.93,4.93,0,0,1,172.36,231.84ZM149.73,222h17.71V183H149.73Z"/></g><g id="path1842"><path class="cls-4" d="M222,231.84H194.46a4.92,4.92,0,0,1-4.92-4.92V156.07a4.92,4.92,0,0,1,4.92-4.92H222a4.92,4.92,0,0,1,4.92,4.92v70.85A4.92,4.92,0,0,1,222,231.84ZM199.38,222h17.71V161H199.38Z"/></g><g id="path1844"><path class="cls-4" d="M271.67,231.84H244.11a4.93,4.93,0,0,1-4.92-4.92V168.25a4.92,4.92,0,0,1,4.92-4.92h27.56a4.92,4.92,0,0,1,4.92,4.92v58.67A4.93,4.93,0,0,1,271.67,231.84ZM249,222h17.72V173.17H249Z"/></g><g id="g1846"><g id="path1848"><path class="cls-4" d="M332.09,230.09a36.41,36.41,0,0,1,0-72.81A4.92,4.92,0,0,1,337,162.2v26.56h26.57a4.92,4.92,0,0,1,4.92,4.92A36.45,36.45,0,0,1,332.09,230.09Zm-4.92-62.52a26.57,26.57,0,1,0,31,31H332.09a4.92,4.92,0,0,1-4.92-4.92Z"/></g></g><g id="g1850"><g id="path1852"><path class="cls-4" d="M285,231.88H132.23a4.92,4.92,0,1,1,0-9.84H285a4.92,4.92,0,0,1,0,9.84Z"/></g></g></g></g></g></g></svg>