<svg id="Layer_1" data-name="Layer 1" xmlns="http://www.w3.org/2000/svg" viewBox="0 0 512 512"><defs><style>.cls-1{fill:#069986;}.cls-2{fill:#fff;}</style></defs><path class="cls-1" d="M118.34,0H512a0,0,0,0,1,0,0V393.66A118.34,118.34,0,0,1,393.66,512H0a0,0,0,0,1,0,0V118.34A118.34,118.34,0,0,1,118.34,0Z"/><path class="cls-2" d="M373.4,301.8A71.6,71.6,0,1,0,445,373.4,71.68,71.68,0,0,0,373.4,301.8Zm0,131a59.41,59.41,0,1,1,59.41-59.41A59.48,59.48,0,0,1,373.4,432.81ZM395.23,386a6.09,6.09,0,0,1-5.29,3.05,6,6,0,0,1-3-.82l-16.55-9.55a6.09,6.09,0,0,1-3.05-5.28V348.62a6.1,6.1,0,1,1,12.2,0v21.26L393,377.67a6.1,6.1,0,0,1,2.24,8.33ZM367.3,326.9v-5.66a6.1,6.1,0,0,1,12.2,0v5.66a6.1,6.1,0,0,1-12.2,0ZM402,344.83a6.1,6.1,0,0,1,0-8.62l4-4a6.1,6.1,0,0,1,8.62,8.62l-4,4a6.11,6.11,0,0,1-8.62,0ZM414.59,406a6.1,6.1,0,0,1-8.62,8.62l-4-4a6.1,6.1,0,1,1,8.62-8.62Zm-69.76-4a6.1,6.1,0,0,1,0,8.62l-4,4a6.1,6.1,0,0,1-8.62-8.62l4-4a6.1,6.1,0,0,1,8.62,0Zm0-65.76a6.1,6.1,0,0,1-8.62,8.62l-4-4a6.1,6.1,0,0,1,8.62-8.62Zm86.82,37.19a6.1,6.1,0,0,1-6.1,6.1H419.9a6.1,6.1,0,1,1,0-12.2h5.65A6.1,6.1,0,0,1,431.65,373.4ZM379.5,419.9v5.65a6.1,6.1,0,0,1-12.2,0V419.9a6.1,6.1,0,0,1,12.2,0Zm-52.6-40.4h-5.66a6.1,6.1,0,0,1,0-12.2h5.66a6.1,6.1,0,0,1,0,12.2ZM111.67,157.7a6.1,6.1,0,0,1,11.83-2.95c1.89,7.57,9.71,10.1,15.81,9.94,5.35-.12,10.31-2,12.66-4.67a6.48,6.48,0,0,0,1.48-5.35c-.44-3.66-2.64-8.13-15.77-10.29-19.15-3.14-23.62-13.09-24-20.89-.52-10.79,7-19.81,18.61-22.45l.22-.05V97.15a6.1,6.1,0,1,1,12.19,0v3.79a25.43,25.43,0,0,1,18.81,15.4,6.1,6.1,0,1,1-11.24,4.72c-3.19-7.6-11-9.56-17.28-8.13-4.6,1-9.41,4.21-9.13,10,.1,2,.35,7.25,13.79,9.45,15.83,2.6,24.54,9.61,25.91,20.85A18.58,18.58,0,0,1,161.19,168c-3.72,4.31-9.68,7.31-16.49,8.42v3.64a6.1,6.1,0,1,1-12.19,0v-3.74c-10.41-2-18.42-8.92-20.84-18.61Zm26.93,52.51A71.61,71.61,0,1,0,67,138.6,71.7,71.7,0,0,0,138.6,210.21Zm0-131A59.41,59.41,0,1,1,79.19,138.6,59.48,59.48,0,0,1,138.6,79.19ZM318.43,304.58a6.08,6.08,0,0,0,1.26-6.79l-3.95-8.91A68,68,0,0,0,321.5,275l9.09-3.5a6.11,6.11,0,0,0,3.91-5.69V246.2a6.11,6.11,0,0,0-3.91-5.69L321.5,237a67,67,0,0,0-5.76-13.9l4-8.9a6.1,6.1,0,0,0-1.27-6.79l-13.85-13.85a6.1,6.1,0,0,0-6.79-1.27l-8.91,4A68,68,0,0,0,275,190.5l-3.5-9.09a6.11,6.11,0,0,0-5.69-3.91H246.2a6.11,6.11,0,0,0-5.69,3.91L237,190.5a68,68,0,0,0-13.89,5.76l-8.91-4a6.1,6.1,0,0,0-6.79,1.27l-13.85,13.85a6.08,6.08,0,0,0-1.26,6.79l3.95,8.9A68.28,68.28,0,0,0,190.5,237l-9.09,3.5a6.11,6.11,0,0,0-3.91,5.69v19.6a6.11,6.11,0,0,0,3.91,5.69l9.09,3.5a68.28,68.28,0,0,0,5.76,13.9l-3.95,8.9a6.08,6.08,0,0,0,1.26,6.79l13.85,13.85a6.08,6.08,0,0,0,6.79,1.26l8.91-3.95A68,68,0,0,0,237,321.5l3.5,9.09a6.11,6.11,0,0,0,5.69,3.91h19.6a6.11,6.11,0,0,0,5.69-3.91L275,321.5a67,67,0,0,0,13.91-5.76l8.9,4a6.1,6.1,0,0,0,6.79-1.27Zm-19.51,2.27L291,303.33a6.09,6.09,0,0,0-5.67.38A55.43,55.43,0,0,1,269,310.47a6.11,6.11,0,0,0-4.27,3.74l-3.12,8.09H250.39l-3.12-8.09a6.09,6.09,0,0,0-4.27-3.74,55.64,55.64,0,0,1-16.31-6.76,6.07,6.07,0,0,0-5.67-.38l-7.93,3.52-7.94-7.93,3.52-7.93a6.09,6.09,0,0,0-.38-5.67A55.48,55.48,0,0,1,201.53,269a6.11,6.11,0,0,0-3.74-4.28l-8.09-3.12V250.39l8.09-3.12a6.11,6.11,0,0,0,3.74-4.28,55.7,55.7,0,0,1,6.76-16.3,6.1,6.1,0,0,0,.38-5.67l-3.52-7.93,7.94-7.94,7.93,3.52a6.07,6.07,0,0,0,5.67-.38A55.64,55.64,0,0,1,243,201.53a6.09,6.09,0,0,0,4.27-3.74l3.12-8.09h11.22l3.12,8.09a6.09,6.09,0,0,0,4.28,3.74,55.43,55.43,0,0,1,16.3,6.76,6.1,6.1,0,0,0,5.67.38l7.93-3.52,7.94,7.93L303.33,221a6.09,6.09,0,0,0,.38,5.67A55.43,55.43,0,0,1,310.47,243a6.1,6.1,0,0,0,3.75,4.27l8.08,3.12v11.22l-8.09,3.12a6.11,6.11,0,0,0-3.74,4.27,55.64,55.64,0,0,1-6.76,16.31,6.07,6.07,0,0,0-.38,5.67l3.52,7.93ZM256,212.74A43.26,43.26,0,1,0,299.26,256,43.31,43.31,0,0,0,256,212.74Zm0,74.33A31.07,31.07,0,1,1,287.07,256,31.11,31.11,0,0,1,256,287.07ZM216.91,113.25a6.1,6.1,0,0,1,4.57-7.31A154,154,0,0,1,409.41,269.26l5.73-5.91a6.1,6.1,0,1,1,8.76,8.48l-19,19.6a6.11,6.11,0,0,1-4.38,1.86c-.21,0-.42,0-.64,0a6.1,6.1,0,0,1-4.53-2.83L380.89,267.3a6.1,6.1,0,0,1,10.34-6.47l5.84,9.34A141.81,141.81,0,0,0,224.23,117.82a6.11,6.11,0,0,1-7.32-4.57Zm78.18,285.5a6.1,6.1,0,0,1-4.57,7.31A154,154,0,0,1,102.6,242.73l-5.73,5.92a6.1,6.1,0,1,1-8.76-8.48l19-19.6a6.11,6.11,0,0,1,9.55,1l14.48,23.12a6.1,6.1,0,0,1-10.34,6.48l-5.84-9.34A141.81,141.81,0,0,0,287.78,394.18a6.1,6.1,0,0,1,7.31,4.57Z"/></svg>