<svg id="Layer_1" data-name="Layer 1" xmlns="http://www.w3.org/2000/svg" viewBox="0 0 512 512"><defs><style>.cls-1{fill:#069986;}.cls-2{fill:#fff;}</style></defs><circle class="cls-1" cx="256" cy="256" r="256"/><path class="cls-2" d="M319.31,329.1a19.49,19.49,0,1,1-39,0,19.22,19.22,0,0,1,.62-4.83h-20.1v28.08a4.88,4.88,0,0,1-8.13,3.63,9.74,9.74,0,1,0,0,14.52,4.88,4.88,0,0,1,8.13,3.63V397.3h68.2a4.87,4.87,0,0,0,4.87-4.87v-68.2H318.7A19.52,19.52,0,0,1,319.31,329.1Z"/><path class="cls-2" d="M182.91,241.41a4.87,4.87,0,0,0-4.87,4.87v68.21h20.1a19.48,19.48,0,1,1,37.74,0h15.23V291.28a4.87,4.87,0,0,1,8.12-3.63,9.75,9.75,0,1,0,0-14.53,4.87,4.87,0,0,1-8.12-3.63V241.41Z"/><path class="cls-2" d="M329.06,241.41h-68.2v20.11a19.48,19.48,0,1,1,0,37.73v15.24h28.07a4.86,4.86,0,0,1,3.63,8.12,9.74,9.74,0,1,0,14.53,0,4.87,4.87,0,0,1,3.63-8.12h23.21V246.28A4.87,4.87,0,0,0,329.06,241.41Z"/><path class="cls-2" d="M226.75,363.2a19.48,19.48,0,0,1,24.36-18.87v-20.1H227.9a4.87,4.87,0,0,1-3.63-8.12,9.74,9.74,0,1,0-14.52,0,4.87,4.87,0,0,1-3.63,8.12H178v68.2a4.87,4.87,0,0,0,4.87,4.87h68.2V382.07a19.49,19.49,0,0,1-24.36-18.87Z"/><path class="cls-2" d="M343.67,173.21a53.61,53.61,0,0,0-18.13,3.14,4.87,4.87,0,0,1-6.23-2.93,4.59,4.59,0,0,1-.26-1.21,63.33,63.33,0,0,0-126.13,0,4.86,4.86,0,0,1-5.29,4.41,5,5,0,0,1-1.21-.27,53.59,53.59,0,1,0-18.12,104V246.28a14.61,14.61,0,0,1,14.61-14.61H329.06a14.61,14.61,0,0,1,14.61,14.61v34.11a53.59,53.59,0,0,0,0-107.18Zm-87.69-39a43.89,43.89,0,0,0-43.84,43.84H202.4A53.63,53.63,0,0,1,256,124.5Zm17.54,3.65a43.4,43.4,0,0,0-8.77-2.77l1.95-9.55A52.45,52.45,0,0,1,277.42,129Z"/></svg>