<svg id="Layer_1" data-name="Layer 1" xmlns="http://www.w3.org/2000/svg" viewBox="0 0 512 512"><defs><style>.cls-1{fill:#069986;}.cls-2{fill:#fff;}</style></defs><circle class="cls-1" cx="256" cy="256" r="256"/><path class="cls-2" d="M141.24,363v9.32H282.85a1.59,1.59,0,0,1,.18-.27l4.7-6.18c-.55-.95-1.06-1.9-1.55-2.87Z"/><path class="cls-2" d="M192.4,342.05H257v13.77H192.4Z"/><path class="cls-2" d="M329,286.16a3.6,3.6,0,0,1-2.81,3A48.62,48.62,0,0,0,309.78,296a3.61,3.61,0,0,1-4.14-.16l-6-4.53a59.19,59.19,0,0,0-9.26,9.26l4.53,6a3.58,3.58,0,0,1,.16,4.13A48.56,48.56,0,0,0,288.34,327a3.6,3.6,0,0,1-3,2.81l-7.42,1a58.55,58.55,0,0,0,0,13.1l7.42,1a3.61,3.61,0,0,1,3,2.82,48.65,48.65,0,0,0,6.78,16.37,3.61,3.61,0,0,1-.16,4.14l-4.54,6a60.13,60.13,0,0,0,9.27,9.26l6-4.54a3.6,3.6,0,0,1,4.13-.15,48.88,48.88,0,0,0,16.38,6.77,3.59,3.59,0,0,1,2.82,3l1,7.42a58.55,58.55,0,0,0,13.1,0l1-7.42a3.61,3.61,0,0,1,2.82-3,48.65,48.65,0,0,0,16.37-6.78,3.6,3.6,0,0,1,4.14.16l6,4.54a59.69,59.69,0,0,0,9.26-9.27l-4.53-6a3.58,3.58,0,0,1-.16-4.13,48.65,48.65,0,0,0,6.77-16.39,3.6,3.6,0,0,1,3-2.81l7.42-1a58.55,58.55,0,0,0,0-13.1l-7.42-1a3.61,3.61,0,0,1-3-2.82A48.65,48.65,0,0,0,378,310.64a3.61,3.61,0,0,1,.16-4.14l4.54-6a59.26,59.26,0,0,0-9.26-9.27l-6,4.54a3.61,3.61,0,0,1-4.14.16,48.65,48.65,0,0,0-16.37-6.78,3.62,3.62,0,0,1-2.82-3l-1-7.42a58.55,58.55,0,0,0-13.1,0l-1,7.42Zm7.56,20.68A30.55,30.55,0,0,1,358.14,359a31,31,0,0,1-21.61,8.94,30.55,30.55,0,0,1,0-61.1Z"/><path class="cls-2" d="M280.29,115.58h24.07V254H280.29Z"/><path class="cls-2" d="M320,353.91a23.36,23.36,0,1,0,0-33,23.39,23.39,0,0,0,0,33Z"/><path class="cls-2" d="M235.2,139.26h24.06V254H235.2Z"/><path class="cls-2" d="M274.19,350.72a3.62,3.62,0,0,1-3.08-3c-.29-1.87-.49-3.76-.63-5.65h-6.32v13.77h19c-.47-1.33-.88-2.68-1.24-4.06Z"/><path class="cls-2" d="M124.66,334.84h145.7a67.3,67.3,0,0,1,.75-7.75,3.62,3.62,0,0,1,3.08-3l7.69-1a56.15,56.15,0,0,1,2.63-7.72H116.43v11.3a8.24,8.24,0,0,0,8.23,8.23Z"/><path class="cls-2" d="M283,302.72a3.59,3.59,0,0,1,0-4.3,66.72,66.72,0,0,1,14.57-14.58,3.63,3.63,0,0,1,4.31.05l6.18,4.7a55.4,55.4,0,0,1,14.12-5.84l1-7.7a3.61,3.61,0,0,1,3-3.08q3.34-.51,6.71-.69V188a8.24,8.24,0,0,0-8.24-8.23H311.55v77.81a3.6,3.6,0,0,1-3.6,3.6H276.69a3.6,3.6,0,0,1-3.6-3.6V179.8h-6.63v77.81a3.6,3.6,0,0,1-3.6,3.6H231.59a3.6,3.6,0,0,1-3.6-3.6V179.8h-6.63v77.81a3.6,3.6,0,0,1-3.6,3.6H186.5a3.6,3.6,0,0,1-3.6-3.6V179.8H124.66a8.24,8.24,0,0,0-8.23,8.23V308.12H287.12ZM137.81,193.05a3.6,3.6,0,0,1,3.6-3.6h31.26a3.6,3.6,0,0,1,3.6,3.6v64.56a3.6,3.6,0,0,1-3.6,3.6H141.41a3.6,3.6,0,0,1-3.6-3.6Zm3.6,78.63h71a3.6,3.6,0,1,1,0,7.2h-71a3.6,3.6,0,0,1,0-7.2Zm90.85,24.71H141.41a3.6,3.6,0,0,1,0-7.2h90.85a3.6,3.6,0,1,1,0,7.2Z"/><path class="cls-2" d="M190.1,165.8h24.07V254H190.1Z"/><path class="cls-2" d="M145,196.65h24.06V254H145Z"/></svg>