<svg id="Layer_1" data-name="Layer 1" xmlns="http://www.w3.org/2000/svg" viewBox="0 0 512 512"><defs><style>.cls-1{fill:#069986;}.cls-2{fill:#fff;}</style></defs><circle class="cls-1" cx="256" cy="256" r="256"/><path class="cls-2" d="M383.8,191.27l-16.11-27.9a8.13,8.13,0,0,0-4.89-3.76,8,8,0,0,0-6.11.82l-27.9,16.11a8.06,8.06,0,0,0,1.94,14.75l10,2.68C292.8,318.66,144.49,320.43,137.86,320.44a10.74,10.74,0,0,0,0,21.48c2,0,171.11-1.74,223.67-142.38l13.21,3.55a8.33,8.33,0,0,0,2.09.27,8.06,8.06,0,0,0,7-12.09Z"/><path class="cls-2" d="M363.4,384.88a10.74,10.74,0,0,1-10.74-10.74V245.26a10.74,10.74,0,0,1,21.48,0V374.14A10.74,10.74,0,0,1,363.4,384.88Z"/><path class="cls-2" d="M299,384.88a10.74,10.74,0,0,1-10.74-10.74v-53.7a10.74,10.74,0,1,1,21.48,0v53.7A10.74,10.74,0,0,1,299,384.88Z"/><path class="cls-2" d="M234.52,384.88a10.74,10.74,0,0,1-10.74-10.74V352.66a10.74,10.74,0,1,1,21.48,0v21.48A10.74,10.74,0,0,1,234.52,384.88Z"/><path class="cls-2" d="M170.08,384.88a10.74,10.74,0,0,1-10.74-10.74V363.4a10.74,10.74,0,1,1,21.48,0v10.74A10.74,10.74,0,0,1,170.08,384.88Z"/><path class="cls-2" d="M250.54,146.73l-56.39-19.18a7.93,7.93,0,0,0-5.18,0l-56.38,19.18a8,8,0,0,0-5.47,7.63v43.15c0,52.67,58.79,78.28,61.3,79.34a8.08,8.08,0,0,0,6.29,0c2.5-1.06,61.29-26.67,61.29-79.34V154.36A8.05,8.05,0,0,0,250.54,146.73Zm-23.69,40.73-29.53,37.59a10.74,10.74,0,0,1-15.42,1.53l-18.8-16.11a10.74,10.74,0,1,1,14-16.32L187.35,203,210,174.2a10.74,10.74,0,0,1,16.89,13.26Z"/></svg>