<?xml version="1.0" encoding="utf-8"?>
<!-- Generator: Adobe Illustrator 24.3.0, SVG Export Plug-In . SVG Version: 6.00 Build 0)  -->
<svg version="1.1" id="Layer_1" xmlns="http://www.w3.org/2000/svg" xmlns:xlink="http://www.w3.org/1999/xlink" x="0px" y="0px"
	 viewBox="0 0 512 512" style="enable-background:new 0 0 512 512;" xml:space="preserve">
<style type="text/css">
	.st0{fill-rule:evenodd;clip-rule:evenodd;fill:#069986;}
	.st1{fill:#FFFFFF;}
</style>
<circle class="st0" cx="256" cy="256" r="256"/>
<g id="cloud_computing-cloudserver-cloud-communication-network">
	<path class="st1" d="M383.6,146.7c-2,0-4.2,0.2-6.2,0.5c-3.3,0.5-6.3-1.8-6.8-5.1c-5.9-36.4-40.3-61.2-76.7-55.2
		c-28.4,4.6-50.6,26.9-55.3,55.2c-0.5,3.3-3.6,5.5-6.8,5.1c-2-0.3-4.1-0.5-6.2-0.5c-23.5,0-42.5,19-42.5,42.5s19,42.5,42.5,42.5
		h157.9c23.5,0,42.5-19,42.5-42.5S407,146.7,383.6,146.7z"/>
	<path class="st1" d="M286.4,341c-2,0-4.2,0.2-6.2,0.5c-3.3,0.5-6.3-1.8-6.8-5.1c-5.9-36.4-40.3-61.2-76.7-55.2
		c-28.4,4.6-50.6,26.9-55.2,55.2c-0.5,3.3-3.6,5.5-6.8,5.1c-2-0.3-4.1-0.5-6.2-0.5c-23.5,0-42.5,19-42.5,42.5
		c0,23.5,19,42.5,42.5,42.5h157.9c23.5,0,42.5-19,42.5-42.5C328.9,360.1,309.9,341,286.4,341z"/>
	<path class="st1" d="M407.9,384.7V256c0-3.3-2.7-6.1-6.1-6.1c-3.3,0-6.1,2.7-6.1,6.1v128.6c-5.2,1.8-9.2,5.8-11,11h-31.5
		c-3.3,0-6.1,2.7-6.1,6.1c0,3.3,2.7,6.1,6.1,6.1h31.5c3.3,9.5,13.7,14.4,23.1,11.2c9.5-3.3,14.4-13.7,11.2-23.1
		C417.1,390.6,413.1,386.5,407.9,384.7z"/>
	<path class="st1" d="M213.6,104.2h-86.1c-3.3-9.5-13.7-14.4-23.1-11.2c-9.5,3.3-14.4,13.7-11.2,23.2c1.8,5.2,5.9,9.3,11.2,11.2
		v183.2c0,3.3,2.7,6.1,6.1,6.1s6.1-2.7,6.1-6.1V127.4c5.2-1.8,9.2-5.8,11-11h86.1c3.3,0,6.1-2.7,6.1-6.1S216.9,104.2,213.6,104.2z"
		/>
</g>
</svg>
