<?xml version="1.0" encoding="utf-8"?>
<!-- Generator: Adobe Illustrator 24.3.0, SVG Export Plug-In . SVG Version: 6.00 Build 0)  -->
<svg version="1.1"
	 id="Layer_1" text-rendering="geometricPrecision" image-rendering="optimizeQuality" shape-rendering="geometricPrecision"
	 xmlns="http://www.w3.org/2000/svg" xmlns:xlink="http://www.w3.org/1999/xlink" x="0px" y="0px" viewBox="0 0 512 512"
	 style="enable-background:new 0 0 512 512;" xml:space="preserve">
<style type="text/css">
	.st0{fill-rule:evenodd;clip-rule:evenodd;fill:#069986;}
	.st1{fill-rule:evenodd;clip-rule:evenodd;fill:#FFFFFF;}
</style>
<g>
	<circle class="st0" cx="256" cy="256" r="256"/>
	<g id="Layer_x0020_1">
		<path class="st1" d="M111,274.6c-30.9,0-56.1-25.1-56.1-56c0-29.2,22.9-53.5,51.6-55.9c2.6-41.3,47.9-65.3,83.5-45.3
			c25-56.6,105.6-57.1,131.3-0.9c35.4-19.8,79.7,3.5,83.5,43.9c29.2,1.9,52.3,26.2,52.3,56.1c0,30.9-25,55.9-55.9,55.9L111,274.6z
			 M369,235.3c-2.4,0-4.5-1.7-4.7-4c-7.8-49.3,34.4-58.7,34.9-58.7c6.1-1.2,7.8,8,1.9,9.2c-1.4,0.5-33.7,7.8-27.6,48.1
			C374,232.7,371.9,235.3,369,235.3z M307.3,175c-2.1,0-4.2-1.4-4.5-3.8c-5.4-27.8,15.6-45.7,20.5-36.8c4.5,8.5-16.7,7.1-11.3,34.9
			C312.5,172.4,310.3,175,307.3,175z M136.7,207.7c-9.7,0-5.9-26.4,18.9-37.2c0.2-38.7,35.4-46.4,35.6-46.4c6.4-1.2,8,8,2.1,9.2
			c-1.4,0.2-33.9,7.8-27.6,48.1c0.5,2.8-1.9,5.4-4.7,5.4c-2.4,0-4.2-1.7-4.7-4c0-0.7,0-1.4-0.2-2.1
			C134.5,191.9,146.3,207.7,136.7,207.7z M220.8,169.3c-12.3,0,0.9-30.2,29.7-23.1c6.1,1.4,3.8,10.6-2.1,9.2
			c-18.2-4.5-22.6,9-23.1,10.6C224.8,168.1,222.9,169.3,220.8,169.3z M231.2,268.9c-0.9,0-2.1-0.2-2.8-0.7
			c-40.1-29.7-16.5-66-16.3-66.2c3.3-5.2,11.3,0,7.8,5.2c-0.9,1.2-18.6,29.2,14.1,53.3C237.6,263.3,235.7,268.9,231.2,268.9z"/>
		<path class="st1" d="M273.3,443.4h-32.1c-8.3,0-15.1-6.8-15.1-15.1v-29.5c-9.9-2.6-19.6-6.6-28.5-11.8l-21,20.7
			c-5.9,5.9-15.3,5.9-21.2,0l-22.6-22.6c-5.9-5.9-5.9-15.3,0-21.2l20.7-20.7c-5.2-9.2-9.2-18.9-11.8-28.8h-29.4
			c-8.3,0-14.9-6.8-14.9-15.1v-18.2c4.2,0.7,8.7,1.2,13.4,1.2l80.2-0.5c-0.9,36.1,28.3,67.7,66.2,67.7c38.2,0,67.7-32.1,66.2-68.8
			l77.6-0.5c5.7-0.2,11.1-0.9,16.5-2.4c0,7.3-0.5,15.1-0.5,21.5c0,8.3-6.6,15.1-14.9,15.1h-29.5c-2.8,9.9-6.6,19.6-12,28.5l21,21
			c5.7,5.9,5.7,15.3,0,21.2L359,407.8c-5.7,5.9-15.3,5.9-21,0l-21.1-20.7c-9,5.2-18.6,9.2-28.8,11.8v29.5
			C288.2,436.6,281.6,443.4,273.3,443.4z"/>
	</g>
</g>
</svg>
