<svg id="Layer_1" data-name="Layer 1" xmlns="http://www.w3.org/2000/svg" viewBox="0 0 512 512"><defs><style>.cls-1{fill:#069986;}.cls-2{fill:#fff;fill-rule:evenodd;}</style></defs><circle class="cls-1" cx="256" cy="256" r="256"/><path class="cls-2" d="M202.33,392.59,204.7,395a5.68,5.68,0,1,1-8,8L184.6,390.92a5.69,5.69,0,0,1,0-8l12.06-12.06a5.68,5.68,0,0,1,8,8l-2.37,2.37h121a5.68,5.68,0,0,1,0,11.36Zm167.51-96.86a65.54,65.54,0,0,0-120.56-42,72.75,72.75,0,0,0-8.64-5.73c-19.67-11.24-37.28-10.32-50.08-6.91a65.54,65.54,0,0,0-48.2,54.68,52.31,52.31,0,0,1-10.47-100c-.09-1.59-.13-3.21-.13-4.82a83.62,83.62,0,0,1,141.77-60.11,75.57,75.57,0,0,1,100.52,62.89,52.31,52.31,0,0,1-4.21,102Zm-60.17-88.08L307.3,210a5.68,5.68,0,1,0,8,8L327.4,206a5.69,5.69,0,0,0,0-8L315.34,185.9a5.68,5.68,0,0,0-8,8l2.37,2.36h-121a5.68,5.68,0,0,0,0,11.36Zm25.48,88.94H273.9c-.51-1.62-1-3.24-1.47-4.84-1.15-3.81-2.34-7.59-3.77-11.3a17,17,0,0,0,8.77-7.43,31.46,31.46,0,0,1,57.72,23.57Zm-96.85,0H176.85a31,31,0,0,1,3.23-7.89A31.39,31.39,0,0,1,199.29,274h0c6.24-1.66,14.81-1.91,24.42,3.57,9.25,5.29,12.35,12.11,14.55,19Zm29.29-29.25a5.68,5.68,0,1,1-9.83-5.68,54.17,54.17,0,1,1,60.91,79.42l-.13,0c-7.36,1.79-22.49,5.06-41.26-5.62-18.2-10.36-22.49-23.68-26.58-37.15-3.34-11-6.47-22.14-21.32-30.62-13-7.4-24.54-6.93-33-4.68h0a42.82,42.82,0,1,0,48,62.8,5.68,5.68,0,1,1,9.83,5.68,54.17,54.17,0,1,1-60.76-79.46c10.62-2.82,25.21-3.52,41.53,5.8,18.19,10.39,22.47,23.72,26.55,37.18,3.34,11,6.48,22.12,21.34,30.58s27,5.9,32.92,4.46a42.81,42.81,0,1,0-48.23-62.74Z"/></svg>