<svg id="Layer_1" data-name="Layer 1" xmlns="http://www.w3.org/2000/svg" viewBox="0 0 512 512"><defs><style>.cls-1{fill:#069986;}.cls-2{fill:#fff;}</style></defs><circle class="cls-1" cx="256" cy="256" r="256"/><path class="cls-2" d="M366.49,349.26V312.61a4.5,4.5,0,0,0-4.5-4.49H262V288.43h2.23c5.34,0,9.53-3.85,10.94-10.05l2.75-12.09A67.88,67.88,0,0,0,288.14,262l10.49,6.59c5.37,3.41,11.07,3.17,14.85-.62L323,258.5c3.79-3.76,4-9.45.64-14.84L317,233.15a68,68,0,0,0,4.26-10.27l12.1-2.75c6.2-1.41,10.06-5.6,10.06-10.94V195.75c0-5.34-3.86-9.53-10.06-10.94l-12.09-2.75A65.89,65.89,0,0,0,317,171.79l6.6-10.49c3.41-5.38,3.17-11.07-.62-14.85l-9.5-9.5c-3.78-3.79-9.47-4-14.84-.63l-10.5,6.61a67.69,67.69,0,0,0-10.28-4.26l-2.75-12.1c-1.41-6.2-5.6-10.06-10.93-10.06H250.74c-5.34,0-9.53,3.86-10.94,10.06l-2.75,12.1a66.69,66.69,0,0,0-10.28,4.26l-10.5-6.61c-5.39-3.4-11.08-3.15-14.84.63l-9.5,9.5c-3.78,3.78-4,9.47-.62,14.83l6.6,10.51a67.88,67.88,0,0,0-4.27,10.27l-12.09,2.75c-6.2,1.41-10.05,5.61-10.05,10.94v13.44c0,5.34,3.85,9.53,10.05,10.94l12.09,2.75a67.15,67.15,0,0,0,4.27,10.28l-6.6,10.49c-3.4,5.4-3.16,11.09.62,14.84l9.49,9.49c3.77,3.8,9.46,4,14.85.64l10.5-6.6a67.76,67.76,0,0,0,10.28,4.26l2.75,12.1c1.41,6.2,5.6,10.05,10.94,10.05H253v19.69h-100a4.5,4.5,0,0,0-4.5,4.49v39.5l-21.14,36.63a4.49,4.49,0,0,0,3.89,6.74h43.49a4.49,4.49,0,0,0,3.9-6.74l-21.15-36.63v-35H253v31.71H238.62a4.49,4.49,0,0,0-4.49,4.5V391a4.49,4.49,0,0,0,4.49,4.49H276.3a4.49,4.49,0,0,0,4.49-4.49V353.32a4.49,4.49,0,0,0-4.49-4.5H262V317.11h95.54v32.15a23.33,23.33,0,1,0,9,0Zm-109-116.46a30.33,30.33,0,1,1,21.44-8.88A30.18,30.18,0,0,1,257.46,232.8Zm-4.68-38.2a2.88,2.88,0,0,0,1.12,2.16c1.08.93,2,1.05,4,1.23a14.64,14.64,0,0,1,9,3.37,11.62,11.62,0,0,1,0,18,14,14,0,0,1-4.92,2.7v3.27a4.5,4.5,0,0,1-9,0v-3.27a14.14,14.14,0,0,1-4.92-2.7,11.82,11.82,0,0,1-4.24-9,4.5,4.5,0,0,1,9,0,2.93,2.93,0,0,0,1.12,2.19,5.79,5.79,0,0,0,7.1,0,2.66,2.66,0,0,0,0-4.35c-1.08-.93-2-1.05-4-1.23a14.69,14.69,0,0,1-9-3.36,11.65,11.65,0,0,1,0-18A13.89,13.89,0,0,1,253,182.9v-3.28a4.5,4.5,0,0,1,9,0v3.27a13.92,13.92,0,0,1,4.92,2.71,11.89,11.89,0,0,1,4.26,9,4.5,4.5,0,0,1-9,0,2.89,2.89,0,0,0-1.13-2.17,5.43,5.43,0,0,0-3.42-1.22h-.28a5.43,5.43,0,0,0-3.42,1.22,2.92,2.92,0,0,0-1.11,2.18Z"/></svg>