<svg id="Layer_1" data-name="Layer 1" xmlns="http://www.w3.org/2000/svg" viewBox="0 0 512 512"><defs><style>.cls-1{fill:#069986;}.cls-2{fill:#fff;}</style></defs><circle class="cls-1" cx="256" cy="256" r="256"/><path class="cls-2" d="M261.54,297.33a62.83,62.83,0,0,0-9-21.3l-1.7-3,8.95-8.95-15.35-15.34-8.94,8.94-3-1.7a66.89,66.89,0,0,0-21.3-8.95l-3.41-.85V233.84H186.54V246.2l-3.41.85a63,63,0,0,0-21.3,8.95l-3,1.7-9-8.94L135,264.1l9,8.95-1.71,3a68.9,68.9,0,0,0-8.94,21.73l-.86,3H119.64v21.31h12.78l.86,3.41a68.9,68.9,0,0,0,8.94,21.73l1.71,3-9,8.95,14.91,15.34,9-8.95,3,1.71a66.89,66.89,0,0,0,21.3,8.95l3.41.85V389.8h21.31V377l3.41-.85a63,63,0,0,0,21.3-8.95l3-1.71,8.94,8.95,15.35-14.91-8.95-8.95,1.7-3a70.92,70.92,0,0,0,9-21.31l.85-3.41h12.79V301.6H262.39Zm-64.35,58.81a44.75,44.75,0,1,1,44.75-44.74A44.74,44.74,0,0,1,197.19,356.14Z"/><path class="cls-2" d="M149.47,221.48a5.73,5.73,0,0,0,3,2.56h1.28a6.2,6.2,0,0,0,2.56-.85L172.05,213a4.88,4.88,0,0,0,2.13-3,4.35,4.35,0,0,0-.85-3.84,5.24,5.24,0,0,0-4.26-2.13,6.2,6.2,0,0,0-2.56.85l-4.26,3c18.33-53.69,62.64-59.66,81-59.66a45.27,45.27,0,0,1,6.81.43h.43a5.06,5.06,0,0,0,5.11-4.27,5.11,5.11,0,0,0-4.26-5.53,45.34,45.34,0,0,0-6.82-.43c-21.3,0-72,6.82-92.47,67.33l-2.55-5.54a4.68,4.68,0,0,0-4.26-2.56,5.35,5.35,0,0,0-2.56.43,5.73,5.73,0,0,0-2.56,3,4.15,4.15,0,0,0,.43,3.83Z"/><path class="cls-2" d="M351,265a4.86,4.86,0,0,0-3.41-1.28h-.43a4.34,4.34,0,0,0-3.41,2.13L334,279.44a4.68,4.68,0,0,0-1.28,3.83,4.36,4.36,0,0,0,2.13,3.41,6.17,6.17,0,0,0,3,.85,5.92,5.92,0,0,0,4.26-2.13l2.13-3c1.7,61.79-52,76.28-54.55,76.7a5.54,5.54,0,0,0-3.83,6,5,5,0,0,0,4.69,3.83h1.27c.86,0,64.78-17.47,61.79-88.2l3.41,3A4.85,4.85,0,0,0,360.4,285a6.39,6.39,0,0,0,3.84-1.71,5.3,5.3,0,0,0-.43-7.24Z"/><path class="cls-2" d="M373.18,193.79c3,2.55,5.12,4.26,6.82,6,2.56,2.56,3.84,4.26,3.84,4.69a19.67,19.67,0,0,0,8.52-16.62,21.05,21.05,0,0,0-7.67-16.19l-.43.42a20.26,20.26,0,0,1-4.68,3.41,28.52,28.52,0,0,1-5.12,2.56c-.42,0-.85.42-1.28.42a4.33,4.33,0,0,1-3.4-2.13,3.57,3.57,0,0,1,1.7-4.68,15.47,15.47,0,0,0,4.69-2.56,4.74,4.74,0,0,0,2.13-1.7c1.28-1.28,3.83-1.71,5.11,0a.41.41,0,0,1,.43.42,25.21,25.21,0,0,0,.85-5.54c0-9.8-8.52-17.9-18.75-17.47V143.5a13.28,13.28,0,0,0-13.21-13.21,11.36,11.36,0,0,0-5.11,1.28,11.33,11.33,0,0,0-3-6,10.23,10.23,0,0,0-7.67-3,10.55,10.55,0,0,0-10.65,10.66v10.65c.43-.43.85-.43,1.71-.43a44.18,44.18,0,0,1,4.68,1.28,15.53,15.53,0,0,1,7.25,6,3,3,0,0,1-1.28,4.26c-.43.42-.85.42-1.71.42a2.33,2.33,0,0,1-2.55-1.7A3.36,3.36,0,0,0,332.7,152a10.69,10.69,0,0,0-5.54-2.55c-.42,0-.42,0-.85-.43v23c.43,0,.43-.42.85-.42a13.92,13.92,0,0,1,5.54.42c3.84.86,8.95,3.41,12.36,10.23a3,3,0,0,1-1.28,4.26c-.42.43-.85.43-1.7.43a3.24,3.24,0,0,1-3-1.71,13.45,13.45,0,0,0-6.81-6.39,7.89,7.89,0,0,0-4.69-.85,3.22,3.22,0,0,1-1.71-.43v35.8a21.14,21.14,0,0,1,6.4-5.54,14,14,0,0,1,8.09-2.56,3.2,3.2,0,1,1-.42,6.39c-2.13-.42-5.12,2.13-7.25,4.26-.85,1.28-2.13,2.13-2.55,3a3.06,3.06,0,0,1-2.56,1.28,1.56,1.56,0,0,1-1.28-.43v21.31a10.73,10.73,0,0,0,21.31,1.7,11.36,11.36,0,0,0,5.11,1.28,13.28,13.28,0,0,0,13.21-13.21v-.43c10.23.43,18.75-7.67,18.75-17.47a6.25,6.25,0,0,0-.43-3,8.92,8.92,0,0,0-4.68-1.71,3.23,3.23,0,0,1-3-1.7,9.32,9.32,0,0,0-1.7-2.13,36.49,36.49,0,0,0-6.82-5.54,3.48,3.48,0,0,1-.85-4.69c2.13-1.28,4.26-1.7,6-.42Zm-17,24.71c-.43,0-.85.43-1.28.43a3.58,3.58,0,0,1-3-1.71c-.85-1.7,0-3.41,1.7-4.26,3.41-1.28,3.84-7.24,3.84-9.37a3.2,3.2,0,1,1,6.39-.43c-.43.43,0,11.93-7.67,15.34Zm5.54-43.89h-.85a3.21,3.21,0,0,1-3-2.13c-1.7-6-11.07-6-11.07-6a2.92,2.92,0,0,1-3-3,3.3,3.3,0,0,1,3-3.41c.85,0,14.06,0,17.47,10.65C364.24,172.05,363.38,174.18,361.68,174.61Z"/><path class="cls-2" d="M297.76,243.64a10.73,10.73,0,0,0,21.31-1.7V220.63c-.43,0-.86.43-1.28.43a3.06,3.06,0,0,1-2.56-1.28c-.42-.85-1.7-1.71-2.56-3-2.13-2.13-5.11-4.69-7.24-4.26a3.21,3.21,0,0,1-.43-6.4c3-.42,5.54.86,8.1,2.56a45.29,45.29,0,0,1,6.39,5.54v-35.8c-.42.43-.85.43-1.7.43a16.52,16.52,0,0,0-4.69.85,15.74,15.74,0,0,0-6.82,6.4,3.57,3.57,0,0,1-3,1.7,3.17,3.17,0,0,1-1.7-.43,3,3,0,0,1-1.28-4.26,20.77,20.77,0,0,1,12.35-10.22,13.82,13.82,0,0,1,5.54-.43c.43,0,.86,0,.86.43V149.47c-.43,0-.43.42-.86.42a12.4,12.4,0,0,0-5.54,2.56,5.86,5.86,0,0,0-1.27,1.71,3.52,3.52,0,0,1-2.56,1.7,2.52,2.52,0,0,1-1.7-.43,3,3,0,0,1-1.28-4.26,12,12,0,0,1,7.24-6,11.57,11.57,0,0,1,4.69-1.28,2.58,2.58,0,0,1,1.7.42v-11.5a10.54,10.54,0,0,0-10.65-10.65,12.22,12.22,0,0,0-7.67,3,11.31,11.31,0,0,0-3,6,11.39,11.39,0,0,0-5.12-1.27,13.28,13.28,0,0,0-13.21,13.21v.42c-10.22-.42-18.75,7.67-18.75,17.47a21.39,21.39,0,0,0,.86,5.54.41.41,0,0,1,.42-.42,3.89,3.89,0,0,1,5.12,0,15.22,15.22,0,0,0,2.13,1.7,22.8,22.8,0,0,0,4.68,2.56A3.58,3.58,0,0,1,276,175a3.81,3.81,0,0,1-3.41,2.13,1.56,1.56,0,0,1-1.28-.43,27.74,27.74,0,0,1-5.11-2.56c-3-1.7-4.26-3.41-4.69-3.41l-.43-.42a21.08,21.08,0,0,0-7.67,16.19A19.66,19.66,0,0,0,262,203.16c0-.43,1.7-2.56,3.83-4.69,1.71-1.7,3.84-3.41,6.82-6a3.34,3.34,0,0,1,4.69.42c1.27,1.71.85,3.41-.86,4.69a70,70,0,0,0-6.81,5.54c-1.28,1.28-1.71,1.7-1.71,2.13a2.85,2.85,0,0,1-3,1.71,6.4,6.4,0,0,0-4.69,1.7,7.34,7.34,0,0,0-.42,3c0,9.8,8.52,17.9,18.74,17.47v.43a13.28,13.28,0,0,0,13.21,13.21,6.36,6.36,0,0,0,6,.85ZM282,170.77c3-10.22,16.62-10.65,17.47-10.65,1.71,0,3,1.28,3,3.41a2.92,2.92,0,0,1-3,3c-1.7,0-9.37,0-11.07,6a3.21,3.21,0,0,1-3,2.13h-.85A3.2,3.2,0,0,1,282,170.77Zm8.1,47.73c-7.67-3.41-7.67-14.91-7.67-15.34a3.2,3.2,0,0,1,6.39.43c0,2.13.43,7.67,3.84,9.37,1.7.85,2.55,2.56,1.7,4.26a2.85,2.85,0,0,1-3,1.71,1.56,1.56,0,0,0-1.28-.43Z"/></svg>