<svg id="Layer_1" data-name="Layer 1" xmlns="http://www.w3.org/2000/svg" viewBox="0 0 512 512"><defs><style>.cls-1{fill:#069986;}.cls-2{fill:#fff;fill-rule:evenodd;}</style></defs><circle class="cls-1" cx="256" cy="256" r="256"/><path class="cls-2" d="M282.66,305.92A3.52,3.52,0,0,0,284,303.3c0-12.73-1.48-20.75,9.18-32,6.21-6.55,10-14.81,10-23.9,0-51.12-94.38-51.52-94.38-.29,0,9.09,3.76,17.35,10,23.9,10.29,10.84,8.9,19.79,8.9,32.26,0,2.49,3.07,4.1,5.81,4.1h44.72a6.91,6.91,0,0,0,4.44-1.48Zm-13.05,30.55H242.39C247.31,346.29,264.69,346.29,269.61,336.47Zm9.88-19.05H232.66c-3.86,0-3.86,9,0,9h46.83C283.35,326.44,283.35,317.42,279.49,317.42ZM292.14,319a16.27,16.27,0,0,0-2.34-6.1,13.22,13.22,0,0,0,4.26-9.6c0-9.51-1.55-16.71,6.4-25.08s12.76-19.14,12.76-30.79c0-64.39-114.44-64.81-114.44-.29,0,11.65,4.79,22.39,12.76,30.79,7.59,8,6.12,16.13,6.12,25.37a13.3,13.3,0,0,0,4.53,9.85,15.77,15.77,0,0,0-1.88,4.45c-1.65-.93-3.27-1.93-4.86-3a5,5,0,0,0-5.54,0h0l-15.27,10.12-11.59-11.59,10.32-15.57a5,5,0,0,0-.13-5.71,75.59,75.59,0,0,1-10.19-25.53,5,5,0,0,0-4.36-4l-17.53-3.55V242.36l18.3-3.71a5,5,0,0,0,3.9-3.82,75.91,75.91,0,0,1,10.91-25.56,5,5,0,0,0,0-5.53h0l-10.13-15.27,11.59-11.59,15.57,10.32a5,5,0,0,0,5.71-.13,75,75,0,0,1,25.54-10.19,5,5,0,0,0,4-4.37l3.55-17.5h16.41l3.7,18.28a5,5,0,0,0,3.82,3.89,75.84,75.84,0,0,1,25.56,10.92,5,5,0,0,0,5.54,0h0L320.43,178,332,189.57l-10.33,15.57a5,5,0,0,0,.14,5.72A75.43,75.43,0,0,1,332,236.38a5,5,0,0,0,4.36,4l17.52,3.55v16.4l-18.29,3.71a5,5,0,0,0-3.9,3.82,76,76,0,0,1-10.91,25.56,5,5,0,0,0,0,5.54h0l10.12,15.27-11.59,11.59-15.57-10.32a5,5,0,0,0-5.71.14q-2.86,1.8-5.88,3.35ZM254,92.12a5,5,0,0,1,7.14,0l13.69,13.69a5,5,0,0,1-7.08,7.08l-5.17-5.16v23.32a5,5,0,0,1-10,0V107.73l-5.16,5.16a5,5,0,1,1-7.09-7.08ZM139.14,139.41a5,5,0,0,0-.46,2.11v19.4a5,5,0,0,0,10,0v-7.3l16.49,16.49a5,5,0,0,0,7.09-7.09l-16.49-16.49h7.3a5,5,0,0,0,0-10h-19.4a5,5,0,0,0-4.55,2.9ZM92.12,258a5,5,0,0,1,0-7.14l13.69-13.69a5,5,0,0,1,7.08,7.08l-5.16,5.17h23.32a5,5,0,0,1,0,10H107.73l5.16,5.16a5,5,0,0,1-7.08,7.09Zm47.29,114.82a5,5,0,0,1-2.9-4.55v-19.4a5,5,0,1,1,10,0v7.3L163,339.72a5,5,0,1,1,7.09,7.09L153.62,363.3h7.3a5,5,0,1,1,0,10h-19.4a5,5,0,0,1-2.11-.46Zm118.63,47a5,5,0,0,1-7.14,0l-13.69-13.69a5,5,0,1,1,7.08-7.08l5.17,5.16V381a5,5,0,0,1,10,0v23.32l5.16-5.16a5,5,0,1,1,7.09,7.08Zm114.82-47.29a5,5,0,0,1-4.55,2.9h-19.4a5,5,0,0,1,0-10h7.3L339.72,349a5,5,0,1,1,7.09-7.09l16.49,16.49v-7.3a5,5,0,0,1,10,0v19.4a5,5,0,0,1-.46,2.11Zm47-118.63a5,5,0,0,1,0,7.14l-13.69,13.69a5,5,0,1,1-7.08-7.08l5.16-5.17H381a5,5,0,1,1,0-10h23.32l-5.16-5.16a5,5,0,1,1,7.08-7.09ZM372.59,139.14a5,5,0,0,0-2.11-.46h-19.4a5,5,0,0,0,0,10h7.3l-16.49,16.49a5,5,0,1,0,7.09,7.09l16.49-16.49v7.3a5,5,0,1,0,10,0v-19.4A5,5,0,0,0,372.59,139.14Z"/></svg>