<?xml version="1.0" encoding="iso-8859-1"?>
<!-- Generator: Adobe Illustrator 19.0.0, SVG Export Plug-In . SVG Version: 6.00 Build 0)  -->
<svg version="1.1" id="Layer_1" xmlns="http://www.w3.org/2000/svg" xmlns:xlink="http://www.w3.org/1999/xlink" x="0px" y="0px"
	 viewBox="0 0 512 512" style="enable-background:new 0 0 512 512;" xml:space="preserve">
<g id="XMLID_179_">
	<path id="XMLID_314_" style="fill:#069986;" d="M393.656,512H0V118.344C0,52.984,52.984,0,118.344,0H512v393.656
		C512,459.016,459.016,512,393.656,512z"/>
	<g id="XMLID_758_">
		<path id="XMLID_770_" style="fill:#FFFFFF;" d="M352.177,316.874c0.374-1.06,1.184-1.808,2.182-1.932l11.47-1.683
			c6.546-0.997,11.346-6.546,11.346-13.216v-29.237c0-6.359-4.488-11.844-10.722-13.091l-10.598-2.12
			c-0.935-0.187-1.683-0.935-1.995-1.995c-1.496-5.049-3.366-9.974-5.673-14.774c-0.499-0.997-0.436-2.182,0.187-2.93l6.234-8.416
			c3.865-5.236,3.429-12.468-1.06-17.206l-20.135-21.195c-4.551-4.613-11.72-5.424-17.019-1.87l-8.914,5.922
			c-0.935,0.686-2.12,0.436-2.992-0.062c-5.049-2.618-9.725-4.675-14.276-6.296c-1.06-0.374-1.808-1.184-1.933-2.12l-1.621-11.034
			c-0.873-6.546-6.546-11.47-13.216-11.47h-29.237c-6.359,0-11.844,4.551-13.029,10.722l-1.87,9.102l-3.803,4.052
			c-4.8,1.558-9.164,3.242-13.216,5.236c-1.06,0.499-2.182,0.499-3.055-0.125l-8.54-6.234c-5.236-3.803-12.405-3.366-17.081,1.122
			l-21.258,20.26c-4.675,4.488-5.486,11.657-1.933,17.019l5.798,8.727c0.561,0.873,0.623,1.995,0.125,2.93
			c-0.935,1.683-1.745,3.366-2.618,5.112c-1.434,2.992-2.743,6.234-3.865,9.538c-0.312,0.935-1.06,1.621-1.933,1.745l-11.533,1.745
			c-6.546,0.873-11.47,6.546-11.47,13.154v28.863c0,6.546,4.675,12.218,11.096,13.528l10.224,2.057
			c0.997,0.187,1.745,0.997,2.057,2.057c1.434,4.862,3.304,9.787,5.611,14.65c0.499,0.997,0.436,2.182-0.187,2.992l-6.296,8.54
			c-3.803,5.174-3.366,12.405,1.122,17.206l20.198,21.133c4.488,4.675,11.657,5.486,17.081,1.808l8.79-5.922
			c0.873-0.561,1.995-0.623,3.055,0c4.925,2.681,9.787,4.8,14.463,6.359c0.997,0.312,1.745,1.309,1.87,2.494l1.558,10.847
			c0.997,6.608,6.546,11.408,13.216,11.408h29.237c6.359,0,11.844-4.551,13.029-10.722l2.182-10.598
			c0.187-0.997,0.997-1.808,2.12-2.12c5.049-1.496,9.974-3.429,14.712-5.735c1.06-0.499,2.182-0.436,3.055,0.187l7.979,5.798
			c5.548,4.052,13.154,3.491,18.078-1.247l20.634-19.824c4.675-4.364,5.548-11.72,1.995-17.019l-5.922-8.914
			c-0.561-0.81-0.561-1.933,0-2.93C348.312,326.786,350.431,321.924,352.177,316.874L352.177,316.874z M337.028,340.002l5.922,8.914
			c0.748,1.06,0.561,2.618-0.436,3.553l-20.697,19.824c-1.247,1.184-3.179,1.309-4.613,0.312l-7.979-5.798
			c-3.99-2.868-9.289-3.366-13.839-1.122c-4.239,2.057-8.665,3.74-13.216,5.112c-4.8,1.434-8.353,5.299-9.351,10.099l-2.182,10.66
			c-0.249,1.309-1.371,2.244-2.743,2.244h-29.237c-1.434,0-2.556-0.997-2.805-2.369l-1.558-10.785
			c-0.748-5.049-4.239-9.413-8.914-10.972c-4.052-1.371-8.416-3.304-12.842-5.673c-2.057-1.122-4.301-1.683-6.546-1.683
			c-2.618,0-5.174,0.748-7.356,2.244l-8.79,5.922c-1.184,0.81-2.681,0.623-3.616-0.374l-20.198-21.071
			c-0.997-1.06-1.122-2.556-0.249-3.678l6.296-8.478c2.93-3.927,3.366-9.226,1.247-13.777c-2.057-4.364-3.74-8.79-4.987-13.091
			c-1.434-4.862-5.299-8.478-10.161-9.476l-10.224-2.057c-1.496-0.312-2.618-1.621-2.618-3.179v-28.863
			c0-1.371,0.997-2.556,2.431-2.743l11.657-1.745c4.738-0.748,8.727-4.114,10.286-8.79c0.997-2.93,2.12-5.798,3.366-8.416
			c0.748-1.621,1.558-3.117,2.369-4.675c2.369-4.364,2.12-9.663-0.623-13.777l-5.798-8.727c-0.748-1.122-0.561-2.681,0.374-3.616
			l21.382-20.26c0.997-0.935,2.494-1.06,3.616-0.249l8.54,6.234c3.99,2.868,9.289,3.304,13.839,1.122
			c3.99-1.933,8.291-3.616,13.091-5.049c0.873-0.249,1.683-0.748,2.307-1.434l5.735-6.172c0.686-0.686,1.122-1.558,1.309-2.494
			l2.182-10.598c0.249-1.309,1.371-2.244,2.743-2.244h29.237c1.434,0,2.618,0.997,2.805,2.431l1.621,11.096
			c0.686,4.862,4.114,8.914,8.852,10.535c4.114,1.434,8.291,3.304,12.842,5.611c4.488,2.494,9.85,2.244,13.839-0.561l8.852-5.922
			c1.122-0.748,2.681-0.561,3.616,0.374l20.073,21.133c0.935,0.997,1.06,2.556,0.249,3.678l-6.234,8.416
			c-2.93,3.927-3.366,9.226-1.184,13.777c2.057,4.239,3.74,8.665,5.112,13.154c1.434,4.8,5.236,8.353,10.037,9.351l10.598,2.12
			c1.309,0.249,2.244,1.434,2.244,2.805v29.237c0,1.434-0.997,2.556-2.369,2.805l-11.408,1.683
			c-4.862,0.748-8.914,4.114-10.598,8.852c-1.558,4.488-3.491,8.727-5.673,12.655C334.161,330.589,334.285,335.887,337.028,340.002
			L337.028,340.002z"/>
		<path id="XMLID_767_" style="fill:#FFFFFF;" d="M255.988,212.519c-39.024,0-70.755,31.731-70.755,70.755
			s31.731,70.755,70.755,70.755s70.755-31.731,70.755-70.755S295.012,212.519,255.988,212.519L255.988,212.519z M255.988,343.493
			c-33.227,0-60.22-26.993-60.22-60.22s26.993-60.22,60.22-60.22s60.22,26.993,60.22,60.22S289.214,343.493,255.988,343.493z"/>
		<path id="XMLID_766_" style="fill:#FFFFFF;" d="M255.988,258.961c6.172,0,11.159,4.301,11.159,9.538
			c0,2.93,2.369,5.236,5.236,5.236c2.93,0,5.236-2.369,5.236-5.236c0-9.413-6.982-17.206-16.395-19.45v-5.236
			c0-2.93-2.369-5.236-5.236-5.236c-2.93,0-5.236,2.369-5.236,5.236v5.236c-9.413,2.182-16.395,10.037-16.395,19.45
			c0,11.096,9.725,20.073,21.694,20.073c6.172,0,11.159,4.301,11.159,9.538c0,5.299-4.987,9.538-11.159,9.538
			c-6.172,0-11.159-4.301-11.159-9.538c0-2.93-2.369-5.236-5.236-5.236s-5.236,2.369-5.236,5.236c0,9.413,6.982,17.206,16.395,19.45
			v6.608c0,2.93,2.369,5.236,5.236,5.236c2.93,0,5.236-2.369,5.236-5.236v-6.608c9.413-2.182,16.395-10.037,16.395-19.45
			c0-11.096-9.725-20.073-21.694-20.073c-6.172,0-11.159-4.301-11.159-9.538C244.829,263.2,249.878,258.961,255.988,258.961z"/>
		<path id="XMLID_765_" style="fill:#FFFFFF;" d="M290.897,283.336c0,2.93,2.369,5.236,5.236,5.236h7.73
			c2.93,0,5.236-2.369,5.236-5.236c0-2.93-2.369-5.236-5.236-5.236h-7.73C293.266,278.037,290.897,280.406,290.897,283.336z"/>
		<path id="XMLID_764_" style="fill:#FFFFFF;" d="M215.841,278.037h-7.73c-2.93,0-5.236,2.369-5.236,5.236
			c0,2.93,2.369,5.236,5.236,5.236h7.73c2.93,0,5.236-2.369,5.236-5.236S218.709,278.037,215.841,278.037z"/>
		<path id="XMLID_763_" style="fill:#FFFFFF;" d="M111.548,332.085l-14.65-14.65c-2.057-2.057-5.361-2.057-7.418,0l-14.712,14.65
			c-2.057,2.057-2.057,5.361,0,7.418c2.057,2.057,5.361,2.057,7.418,0l5.673-5.673v42.578c0,2.93,2.369,5.236,5.236,5.236
			c2.93,0,5.236-2.369,5.236-5.236V333.83l5.673,5.673c0.997,0.997,2.369,1.558,3.74,1.558c1.371,0,2.681-0.499,3.74-1.558
			C113.605,337.508,113.605,334.142,111.548,332.085L111.548,332.085z"/>
		<path id="XMLID_762_" style="fill:#FFFFFF;" d="M136.421,377.966c-2.057-2.057-5.361-2.057-7.418,0l-17.455,17.455
			c-2.057,2.057-2.057,5.361,0,7.418c2.057,2.057,5.361,2.057,7.418,0l8.478-8.478v53.113c0,2.93,2.369,5.236,5.236,5.236
			c2.93,0,5.236-2.369,5.236-5.236v-53.051l8.478,8.478c0.997,0.997,2.369,1.558,3.74,1.558c1.371,0,2.681-0.499,3.74-1.558
			c2.057-2.057,2.057-5.361,0-7.418L136.421,377.966z"/>
		<path id="XMLID_761_" style="fill:#FFFFFF;" d="M393.632,338.007l-11.221-11.221c-0.997-0.997-2.307-1.558-3.74-1.558
			c-1.434,0-2.743,0.561-3.74,1.558l-11.221,11.221c-2.057,2.057-2.057,5.361,0,7.418c2.057,2.057,5.361,2.057,7.418,0l2.244-2.244
			v29.673c0,2.93,2.369,5.236,5.236,5.236s5.236-2.369,5.236-5.236v-29.673l2.244,2.244c0.997,0.997,2.369,1.558,3.74,1.558
			c1.371,0,2.681-0.499,3.74-1.558C395.689,343.368,395.689,340.064,393.632,338.007L393.632,338.007z"/>
		<path id="XMLID_760_" style="fill:#FFFFFF;" d="M419.752,370.922c-2.057-2.057-5.361-2.057-7.418,0l-17.455,17.455
			c-2.057,2.057-2.057,5.361,0,7.418c2.057,2.057,5.361,2.057,7.418,0l8.478-8.478v53.113c0,2.93,2.369,5.236,5.236,5.236
			s5.236-2.369,5.236-5.236v-53.113l8.478,8.478c0.997,0.997,2.369,1.558,3.74,1.558c1.371,0,2.681-0.499,3.74-1.558
			c2.057-2.057,2.057-5.361,0-7.418L419.752,370.922z"/>
		<path id="XMLID_759_" style="fill:#FFFFFF;" d="M449.987,194.565c-9.164-28.053-35.596-46.817-66.204-47.378
			c1.309-5.486,1.995-11.034,1.995-16.645c0-39.274-31.98-71.254-71.254-71.254c-25.746,0-49.31,13.902-61.84,35.97
			c-12.281-9.102-27.18-14.026-42.578-14.026c-37.715,0-68.698,29.486-71.067,66.578c-17.58-2.431-35.72,1.995-50.619,12.53
			c-16.645,11.782-27.492,29.923-29.736,49.684c-2.681,23.252,6.109,46.38,23.564,61.778c8.852,7.855,20.198,13.216,32.853,15.46
			c0.312,0.062,0.623,0.062,0.935,0.062c2.494,0,4.738-1.808,5.174-4.364c0.499-2.868-1.371-5.611-4.239-6.109
			c-10.722-1.933-20.323-6.421-27.741-13.029c-14.899-13.029-22.442-32.728-20.073-52.614c1.933-16.832,11.159-32.292,25.31-42.328
			c14.151-9.974,31.606-13.59,48.001-9.787c1.683,0.623,3.616,0.249,4.987-0.873c1.434-1.122,2.12-2.868,1.933-4.675
			c-0.062-0.374,0-0.748,0-1.122c0-33.476,27.242-60.718,60.718-60.718c15.086,0,29.549,5.548,40.77,15.647
			c1.247,1.122,2.992,1.558,4.613,1.247c1.621-0.374,3.055-1.434,3.74-2.992c9.725-21.756,31.481-35.783,55.295-35.783
			c33.476,0,60.781,27.242,60.781,60.718c0,6.92-1.184,13.777-3.553,20.447c-0.623,1.683-0.312,3.616,0.81,5.049
			c1.122,1.434,2.868,2.182,4.675,1.995c1.745-0.187,3.366-0.249,5.174-0.249c26.619,0,49.684,16.083,57.539,40.146
			c6.296,19.263,3.74,38.588-7.044,54.609c-8.478,12.53-21.943,21.133-37.965,24.312c-2.868,0.561-4.738,3.304-4.177,6.172
			s3.304,4.675,6.172,4.177c18.764-3.678,34.598-13.902,44.635-28.738C454.101,239.885,457.156,216.633,449.987,194.565
			L449.987,194.565z"/>
	</g>
</g>
</svg>
