<?xml version="1.0" encoding="iso-8859-1"?>
<!-- Generator: Adobe Illustrator 19.0.0, SVG Export Plug-In . SVG Version: 6.00 Build 0)  -->
<svg version="1.1" id="Layer_1" xmlns="http://www.w3.org/2000/svg" xmlns:xlink="http://www.w3.org/1999/xlink" x="0px" y="0px"
	 viewBox="0 0 512 512" style="enable-background:new 0 0 512 512;" xml:space="preserve">
<g id="XMLID_531_">
	<path id="XMLID_355_" style="fill:#069986;" d="M393.656,512H0V118.344C0,52.984,52.984,0,118.344,0H512v393.656
		C512,459.016,459.016,512,393.656,512z"/>
	<g id="XMLID_670_">
		<path id="XMLID_1486_" style="fill:#FFFFFF;" d="M419.774,175.479l-0.196-0.196c-9.261-36.914-42.464-62.782-80.521-62.733
			c-7.761,0.024-15.485,1.064-22.975,3.096c-15.603-16.521-37.352-25.842-60.076-25.746c-22.813-0.052-44.642,9.29-60.355,25.829
			c-7.379-2.117-15.019-3.187-22.695-3.179c-38.144,0.011-71.403,25.94-80.718,62.93c-44.511,11.277-71.453,56.503-60.175,101.014
			c7.513,29.652,30.701,52.785,60.372,60.225c9.261,36.914,42.464,62.782,80.521,62.733c7.761-0.024,15.485-1.064,22.975-3.096
			c15.603,16.521,37.352,25.842,60.076,25.746c22.813,0.052,44.642-9.29,60.355-25.829c7.379,2.117,15.019,3.187,22.695,3.179
			c38.144-0.011,71.403-25.94,80.718-62.93c44.471-11.233,71.415-56.391,60.181-100.861
			C472.479,206.064,449.37,182.955,419.774,175.479L419.774,175.479z M416.067,321.882c-5.478,1.373-9.755,5.651-11.129,11.129
			c-7.571,30.208-34.739,51.38-65.882,51.34c-6.262,0.011-12.494-0.861-18.513-2.59c-5.512-1.596-11.454,0.018-15.402,4.183
			c-25.851,27.135-68.805,28.175-95.94,2.324c-0.793-0.756-1.568-1.53-2.324-2.324c-2.892-3.061-6.918-4.795-11.129-4.794
			c-1.45,0.004-2.893,0.207-4.288,0.604c-6.016,1.732-12.245,2.606-18.505,2.597c-31.142,0.037-58.309-21.134-65.882-51.34
			c-1.373-5.478-5.651-9.755-11.129-11.129c-36.385-9.19-58.432-46.135-49.243-82.521c6.116-24.217,25.026-43.126,49.243-49.243
			c5.478-1.373,9.755-5.651,11.129-11.129c7.571-30.208,34.739-51.38,65.882-51.34c6.262-0.011,12.494,0.861,18.513,2.59
			c5.512,1.596,11.454-0.018,15.402-4.183c25.851-27.135,68.805-28.175,95.94-2.324c0.793,0.756,1.568,1.53,2.324,2.324
			c3.949,4.174,9.899,5.791,15.417,4.19c6.016-1.732,12.245-2.606,18.505-2.597c31.142-0.037,58.309,21.134,65.882,51.34
			c1.373,5.478,5.651,9.755,11.129,11.129c36.385,9.19,58.432,46.135,49.243,82.521
			C459.193,296.856,440.284,315.765,416.067,321.882L416.067,321.882z"/>
		<path id="XMLID_1481_" style="fill:#FFFFFF;" d="M361.706,323.95h-15.1v-75.5c0-8.34-6.761-15.1-15.1-15.1h-15.1
			c-8.34,0-15.1,6.761-15.1,15.1v75.5h-22.65V256c0-8.34-6.761-15.1-15.1-15.1h-15.1c-8.34,0-15.1,6.761-15.1,15.1v67.95h-22.65
			V271.1c0-8.34-6.761-15.1-15.1-15.1h-15.1c-8.34,0-15.1,6.761-15.1,15.1v52.85h-15.1c-4.17,0-7.55,3.38-7.55,7.55
			s3.38,7.55,7.55,7.55h211.401c4.17,0,7.55-3.38,7.55-7.55S365.876,323.95,361.706,323.95z M180.505,323.95V271.1h15.1v52.85
			H180.505z M248.456,323.95V256h15.1v67.95H248.456z M316.406,323.95v-75.5h15.1v75.5H316.406z"/>
		<path id="XMLID_686_" style="fill:#FFFFFF;" d="M178.293,208.488l2.212-2.212v27.074c0,4.17,3.38,7.55,7.55,7.55
			s7.55-3.38,7.55-7.55v-27.074l2.212,2.212c2.999,2.897,7.779,2.814,10.676-0.186c2.826-2.926,2.826-7.564,0-10.49l-15.1-15.1
			c-2.948-2.947-7.727-2.947-10.676,0l-15.1,15.1c-2.897,2.999-2.814,7.779,0.186,10.676
			C170.729,211.313,175.367,211.313,178.293,208.488L178.293,208.488z"/>
		<path id="XMLID_685_" style="fill:#FFFFFF;" d="M246.244,193.387l2.212-2.212v27.074c0,4.17,3.38,7.55,7.55,7.55
			s7.55-3.38,7.55-7.55v-27.074l2.212,2.212c2.999,2.897,7.779,2.814,10.676-0.185c2.826-2.926,2.826-7.565,0-10.49l-15.1-15.1
			c-2.948-2.947-7.727-2.947-10.676,0l-15.1,15.1c-2.897,2.999-2.814,7.779,0.186,10.676
			C238.679,196.213,243.318,196.213,246.244,193.387L246.244,193.387z"/>
		<path id="XMLID_684_" style="fill:#FFFFFF;" d="M314.194,185.837l2.212-2.212V210.7c0,4.17,3.38,7.55,7.55,7.55
			s7.55-3.38,7.55-7.55v-27.074l2.212,2.212c2.999,2.897,7.779,2.814,10.676-0.185c2.826-2.926,2.826-7.565,0-10.49l-15.1-15.1
			c-2.948-2.947-7.727-2.947-10.676,0l-15.1,15.1c-2.897,2.999-2.814,7.779,0.185,10.676
			C306.629,188.663,311.268,188.663,314.194,185.837L314.194,185.837z"/>
	</g>
</g>
</svg>
