<?xml version="1.0" encoding="iso-8859-1"?>
<!-- Generator: Adobe Illustrator 19.0.0, SVG Export Plug-In . SVG Version: 6.00 Build 0)  -->
<svg version="1.1" id="Layer_1" xmlns="http://www.w3.org/2000/svg" xmlns:xlink="http://www.w3.org/1999/xlink" x="0px" y="0px"
	 viewBox="0 0 512 512" style="enable-background:new 0 0 512 512;" xml:space="preserve">
<g id="XMLID_532_">
	<path id="XMLID_396_" style="fill:#069986;" d="M393.656,512H0V118.344C0,52.984,52.984,0,118.344,0H512v393.656
		C512,459.016,459.016,512,393.656,512z"/>
	<path style="fill:#FFFFFF;" d="M118.171,335.728c-2.762,8.795-10.982,15.183-20.684,15.183c-11.963,0-21.675-9.712-21.675-21.675
		c0-11.963,9.712-21.675,21.675-21.675c9.702,0,17.922,6.387,20.684,15.183h3.623c2.194,0,3.972-1.779,3.972-3.972v-28.087
		c0-9.365,7.592-16.957,16.957-16.957h12.945v-5.707h-10.18c-34.041,0-61.886-27.846-61.886-61.866
		c0-24.186,14.066-45.246,34.412-55.414c-0.002-0.326-0.004-0.652-0.004-0.979c0-52.474,42.527-95.02,95-95.02
		c24.229,0,46.359,9.078,63.147,24.026c8.02-2.459,16.533-3.785,25.362-3.785c43.081,0,78.771,31.517,85.321,72.749
		c24.615,8.596,41.559,32.028,41.559,58.423c0,34.02-27.845,61.866-61.886,61.866h-10.18v5.707h12.945
		c9.365,0,16.957,7.592,16.957,16.957v28.087c0,2.194,1.778,3.972,3.972,3.972h3.623c2.762-8.795,10.982-15.183,20.684-15.183
		c11.963,0,21.675,9.711,21.675,21.675c0,11.963-9.712,21.675-21.675,21.675c-9.702,0-17.922-6.387-20.684-15.183h-3.623
		c-9.365,0-16.957-7.592-16.957-16.957v-28.087c0-2.194-1.779-3.972-3.972-3.972h-13.315c-1.587,19.691-8.203,38.186-18.641,54.058
		h12.518c3.586,0,6.492,2.907,6.492,6.492v25.789c8.795,2.762,15.183,10.983,15.183,20.684c0,11.963-9.712,21.675-21.675,21.675
		s-21.675-9.712-21.675-21.675c0-9.701,6.387-17.922,15.183-20.684c0-7.305,0-19.297,0-19.297h-15.929
		c-16.525,18.789-39.091,32.302-64.927,37.267v23.876c8.795,2.762,15.183,10.982,15.183,20.684c0,11.963-9.712,21.675-21.675,21.675
		c-11.963,0-21.675-9.712-21.675-21.675c0-9.702,6.387-17.922,15.183-20.684v-23.876c-25.836-4.966-48.402-18.479-64.926-37.267
		h-15.93v19.297c8.795,2.762,15.183,10.983,15.183,20.684c0,11.963-9.712,21.675-21.675,21.675s-21.675-9.712-21.675-21.675
		c0-9.701,6.387-17.922,15.183-20.684v-25.789c0-3.585,2.906-6.492,6.492-6.492h12.518c-10.438-15.872-17.054-34.367-18.641-54.058
		h-13.315c-2.194,0-3.972,1.778-3.972,3.972v28.087c0,9.365-7.592,16.957-16.957,16.957H118.171z M155.667,255.038v-53.43
		c0-2.597,1.548-4.944,3.934-5.967l93.841-40.225c1.634-0.7,3.482-0.7,5.116,0l93.841,40.225c2.387,1.023,3.934,3.37,3.934,5.967
		v53.43h10.18c26.898,0,48.901-22.001,48.901-48.882c0-22.021-14.934-41.427-36.16-47.188c-2.58-0.7-4.467-2.909-4.754-5.567
		c-3.979-36.795-35.125-65.432-72.981-65.432c-8.696,0-17.031,1.511-24.773,4.283c-2.328,0.834-4.928,0.273-6.705-1.447
		c-14.761-14.289-34.879-23.077-57.03-23.077c-45.302,0-82.016,36.733-82.016,82.036c0,1.578,0.036,3.157,0.127,4.717
		c0.161,2.767-1.453,5.332-4.017,6.383c-17.84,7.319-30.517,24.892-30.517,45.292c0,26.881,22.004,48.882,48.901,48.882H155.667z
		 M349.841,385.045c-4.796,0-8.691,3.895-8.691,8.691c0,4.797,3.895,8.691,8.691,8.691c4.797,0,8.691-3.894,8.691-8.691
		C358.531,388.94,354.638,385.045,349.841,385.045L349.841,385.045z M256,168.446l-87.349,37.442v71.6
		c0,49.662,36.146,92.576,85.044,101.101l2.305,0.403l2.305-0.403c48.898-8.524,85.044-51.438,85.044-101.101v-71.6L256,168.446z
		 M258.555,182.558l68.922,29.511c2.387,1.023,3.937,3.37,3.937,5.968v59.452c0,43.505-31.525,81.244-74.232,89.153
		c-0.782,0.144-1.583,0.144-2.365,0c-42.682-7.908-74.208-45.646-74.208-89.153v-59.452c0-2.598,1.548-4.945,3.936-5.968
		l68.898-29.51C255.076,181.859,256.924,181.859,258.555,182.558L258.555,182.558z M256.001,195.588l-62.407,26.731v55.169
		c0,36.875,26.436,68.909,62.407,76.156c35.992-7.246,62.429-39.281,62.429-76.156v-55.169L256.001,195.588z M210.721,285.058
		l-0.014-0.014c-6.51-6.486-6.508-17.007,0.007-23.489c6.476-6.468,16.949-6.479,23.461-0.007c0.005,0.005,0.009,0.009,0.014,0.014
		l10.861,10.861l32.788-33.103l0.008-0.007c6.448-6.488,16.946-6.525,23.434-0.076c6.523,6.484,6.52,16.975,0.084,23.45
		c-19.309,19.501-25.125,25.579-44.552,44.983c-6.488,6.512-17.013,6.507-23.481-0.001L210.721,285.058z M219.888,275.863
		l22.623,22.624c0.005,0.005,0.01,0.01,0.014,0.014c1.406,1.414,3.688,1.414,5.092,0c0.006-0.006,0.011-0.011,0.017-0.016
		c19.407-19.384,25.215-25.455,44.504-44.935l0.008-0.008c1.4-1.409,1.397-3.688-0.019-5.096c-1.404-1.395-3.675-1.384-5.071,0.019
		l-37.372,37.731c-1.215,1.227-2.87,1.919-4.596,1.923c-1.728,0.004-3.385-0.68-4.606-1.901c0,0-15.463-15.462-15.469-15.469
		c-1.426-1.406-3.71-1.417-5.123-0.003c-0.005,0.004-0.01,0.009-0.015,0.014c-1.413,1.405-1.413,3.687,0,5.091
		C219.879,275.854,219.883,275.859,219.888,275.863L219.888,275.863z M256,426.891c-4.796,0-8.691,3.894-8.691,8.691
		c0,4.796,3.894,8.691,8.691,8.691s8.691-3.895,8.691-8.691C264.691,430.785,260.796,426.891,256,426.891L256,426.891z
		 M97.487,320.546c-4.797,0-8.691,3.894-8.691,8.691c0,4.796,3.894,8.691,8.691,8.691c4.796,0,8.691-3.895,8.691-8.691
		C106.178,324.439,102.283,320.546,97.487,320.546z M414.513,320.546c-4.796,0-8.691,3.894-8.691,8.691
		c0,4.796,3.895,8.691,8.691,8.691c4.797,0,8.691-3.895,8.691-8.691C423.204,324.439,419.31,320.546,414.513,320.546z
		 M162.159,385.045c-4.797,0-8.691,3.895-8.691,8.691c0,4.797,3.894,8.691,8.691,8.691c4.796,0,8.691-3.894,8.691-8.691
		C170.85,388.94,166.955,385.045,162.159,385.045L162.159,385.045z"/>
</g>
</svg>
