<svg id="Layer_1" data-name="Layer 1" xmlns="http://www.w3.org/2000/svg" viewBox="0 0 512 512"><defs><style>.cls-1{fill:#069986;}.cls-2{fill:#fff;}</style></defs><path class="cls-1" d="M118.34,0H512a0,0,0,0,1,0,0V393.66A118.34,118.34,0,0,1,393.66,512H0a0,0,0,0,1,0,0V118.34A118.34,118.34,0,0,1,118.34,0Z"/><path class="cls-2" d="M246.1,228.27a3.92,3.92,0,0,0-3.65,2.46l-19.8,47.53a4,4,0,1,0,7.32,3.05l5.59-13.39h21.11l5.59,13.39a4,4,0,0,0,3.64,2.46,3.31,3.31,0,0,0,1.51-.32,4,4,0,0,0,2.14-5.19l-19.81-47.53A4,4,0,0,0,246.1,228.27ZM238.85,260l7.25-17.43L253.35,260h-14.5Zm46.86-31.69a4,4,0,0,1,4,4v47.54a4,4,0,0,1-7.92,0V232.23A4,4,0,0,1,285.71,228.27ZM204.5,200.54h103a4,4,0,0,1,4,4v21.79a4,4,0,0,1-7.92,0V208.46H208.46v95.08h95.08v-41.6a4,4,0,0,1,7.92,0V307.5a4,4,0,0,1-4,4h-103a4,4,0,0,1-4-4v-103A4,4,0,0,1,204.5,200.54Zm107,40v7.13a4,4,0,0,1-7.92,0v-7.13a4,4,0,1,1,7.92,0Zm35.65-59.81h71.3a11.8,11.8,0,0,0,9.43-4.76c.08-.12.2-.2.28-.31a11.75,11.75,0,0,0,2.18-6.86V97.55a11.92,11.92,0,0,0-11.89-11.88h-71.3a11.91,11.91,0,0,0-11.88,11.88v31.69H267.88a4,4,0,0,0-4,4v51.5H248.08V133.2a4,4,0,0,0-4-4H176.77V97.55a11.91,11.91,0,0,0-11.88-11.88H93.59A11.92,11.92,0,0,0,81.7,97.55v71.3a11.92,11.92,0,0,0,11.89,11.89h71.3a11.92,11.92,0,0,0,11.88-11.89V137.16h63.38V184.7H196.58a11.91,11.91,0,0,0-11.88,11.88V315.42a11.91,11.91,0,0,0,11.88,11.88h43.57v47.54H176.77V343.15a11.92,11.92,0,0,0-11.88-11.89H93.59A11.92,11.92,0,0,0,81.7,343.15v71.3a11.92,11.92,0,0,0,11.89,11.88h71.3a11.91,11.91,0,0,0,11.88-11.88V382.76h67.35a4,4,0,0,0,4-4V327.3h15.84v51.5a4,4,0,0,0,4,4h67.35v31.69a11.91,11.91,0,0,0,11.88,11.88h71.3a11.92,11.92,0,0,0,11.89-11.88v-71.3a11.92,11.92,0,0,0-11.89-11.89h-71.3a11.92,11.92,0,0,0-11.88,11.89v31.69H271.85V327.3h43.57a11.91,11.91,0,0,0,11.88-11.88V196.58a11.91,11.91,0,0,0-11.88-11.88H271.85V137.16h63.38v31.69A11.92,11.92,0,0,0,347.11,180.74ZM168.85,168.85a4,4,0,0,1-4,4H93.59a4,4,0,0,1-4-4V97.55a4,4,0,0,1,4-4h71.3a4,4,0,0,1,4,4Zm0,245.6a4,4,0,0,1-4,4H93.59a4,4,0,0,1-4-4v-71.3a4,4,0,0,1,4-4h71.3a4,4,0,0,1,4,4Zm174.3-71.3a4,4,0,0,1,4-4h71.3a4,4,0,0,1,4,4v71.3a4,4,0,0,1-4,4h-71.3a4,4,0,0,1-4-4ZM319.38,196.58V315.42a4,4,0,0,1-4,4H196.58a4,4,0,0,1-4-4V196.58a4,4,0,0,1,4-4H315.42A4,4,0,0,1,319.38,196.58Zm23.81-27.49,20.28-35.18a3.92,3.92,0,0,1,6.81,0l22.42,38.9H347a3.94,3.94,0,0,1-3.92-3.72Zm58.74,3.72L389.61,151.5l5.55-9.62a3.92,3.92,0,0,1,6.81,0l17.75,30.7c-.44.15-17.83.27-17.83.27ZM343.15,97.55a4,4,0,0,1,4-4h71.3a4,4,0,0,1,4,4v63.66L408.9,137.87a11.89,11.89,0,0,0-20.59,0L385,143.54l-7.84-13.63a11.9,11.9,0,0,0-20.6,0l-13.47,23.37V97.51ZM104.36,128.29v9.78a4,4,0,1,1-7.92,0v-9.78a4,4,0,0,1,7.92,0Zm14.42-4.87V143a4,4,0,1,1-7.92,0V123.42a4,4,0,1,1,7.92,0Zm14.42-11.25v42.07a4,4,0,1,1-7.92,0V112.17a4,4,0,1,1,7.92,0Zm14.42,11.25V143a4,4,0,1,1-7.92,0V123.42a4,4,0,1,1,7.92,0ZM162,128.29v9.78a4,4,0,1,1-7.92,0v-9.78a4,4,0,1,1,7.92,0ZM355,359a4,4,0,0,1,4-4h47.54a4,4,0,1,1,0,7.92H359A4,4,0,0,1,355,359Zm0,19.81a4,4,0,0,1,4-4h47.54a4,4,0,1,1,0,7.92H359A4,4,0,0,1,355,378.8Zm0,19.81a4,4,0,0,1,4-4h47.54a4,4,0,0,1,0,7.93H359A4,4,0,0,1,355,398.61Zm31.69-273.33a11.89,11.89,0,1,0-11.88-11.89A11.92,11.92,0,0,0,386.72,125.28Zm0-15.85a4,4,0,1,1-4,4A4,4,0,0,1,386.72,109.43ZM142.67,372.14l-14.58-8.43a7.69,7.69,0,0,0-11.53,6.65V387.2a7.58,7.58,0,0,0,3.85,6.65,7.36,7.36,0,0,0,3.84,1,7.79,7.79,0,0,0,3.84-1l14.58-8.44a7.69,7.69,0,0,0,0-13.31ZM124.49,386.8l-.12-16,13.94,8Zm4.75-41.67a33.67,33.67,0,1,0,33.67,33.67A33.69,33.69,0,0,0,129.24,345.13Zm0,59.42A25.75,25.75,0,1,1,155,378.8,25.8,25.8,0,0,1,129.24,404.55Z"/></svg>