<svg id="Layer_1" data-name="Layer 1" xmlns="http://www.w3.org/2000/svg" viewBox="0 0 512 512"><defs><style>.cls-1{fill:#069986;}.cls-2{fill:#fff;fill-rule:evenodd;}</style></defs><path class="cls-1" d="M118.34,0H512a0,0,0,0,1,0,0V393.66A118.34,118.34,0,0,1,393.66,512H0a0,0,0,0,1,0,0V118.34A118.34,118.34,0,0,1,118.34,0Z"/><path class="cls-2" d="M279.56,379.68H268.69a41.88,41.88,0,1,1,0-83.76l1.59,0c-.16-1.63-.23-3.27-.23-4.94a53,53,0,0,1,106-2,46.35,46.35,0,0,1,5-.27,45.48,45.48,0,1,1,0,91h-7.25v41.23a5.89,5.89,0,0,1-5.89,5.89H285.45a5.89,5.89,0,0,1-5.89-5.89Zm94.23-11.78H381a33.7,33.7,0,1,0,0-67.4,34.38,34.38,0,0,0-9.52,1.34,5.89,5.89,0,0,1-7.49-6.3,42.39,42.39,0,0,0,.25-4.53,41.23,41.23,0,1,0-81.12,10.36,5.89,5.89,0,0,1-7.11,7.22,30.84,30.84,0,0,0-7.36-.89,30.1,30.1,0,1,0,0,60.2h10.87V326.68a5.89,5.89,0,0,1,5.89-5.89h35.34a5.89,5.89,0,0,1,0,11.78H291.34V367.9H362V332.57H344.35a5.89,5.89,0,0,1,0-11.78H367.9a5.89,5.89,0,0,1,5.89,5.89Zm-82.45,11.78V415H362V379.68Zm23.56,23.56a5.89,5.89,0,0,1,0-11.78h23.56a5.89,5.89,0,1,1,0,11.78Zm0-47.11a5.89,5.89,0,0,1,0-11.78h23.56a5.89,5.89,0,1,1,0,11.78ZM138.21,256H127.33a41.88,41.88,0,1,1,0-83.76c.53,0,1.06,0,1.59,0-.15-1.63-.23-3.28-.23-4.94a53,53,0,0,1,106-1.29,5.89,5.89,0,0,1-1.05,11.31,33,33,0,0,0-3.47.81,5.89,5.89,0,0,1-7.49-6.31,42.2,42.2,0,0,0,.25-4.52,41.23,41.23,0,0,0-82.46,0,40.25,40.25,0,0,0,1.34,10.36,5.89,5.89,0,0,1-7.11,7.22,30.14,30.14,0,1,0-7.37,59.31h10.88V203a5.89,5.89,0,0,1,5.89-5.89h82.45a5.89,5.89,0,0,1,5.89,5.89v41.23h7.25a33.66,33.66,0,0,0,13.88-64.47,5.89,5.89,0,0,1,4.8-10.76,45.44,45.44,0,0,1-18.68,87h-7.25v41.23a5.89,5.89,0,0,1-5.89,5.89H144.1a5.89,5.89,0,0,1-5.89-5.89Zm82.45-11.78V208.88H150v35.34ZM150,256v35.34h70.67V256Zm23.55,23.56a5.89,5.89,0,0,1,0-11.78H197.1a5.89,5.89,0,1,1,0,11.78Zm0-47.12a5.89,5.89,0,0,1,0-11.78H197.1a5.89,5.89,0,1,1,0,11.78Zm250.55-11.87-38.76,24.78a5.87,5.87,0,0,1-8.62-2.73L359.32,200a5.89,5.89,0,0,1,7.23-7.84l9.1,2.89a70.69,70.69,0,0,0-116-58,5.9,5.9,0,0,1-8.12-.54l-15.93-17.38a5.88,5.88,0,0,1,.51-8.45,106,106,0,0,1,174.23,68.12,104.84,104.84,0,0,1-.3,27.17l12.63,4a5.89,5.89,0,0,1,1.4,10.57Zm-16.94-3.15-5.52-1.75a5.87,5.87,0,0,1-4-6.72,94.23,94.23,0,0,0-149.07-93.11l8,8.73a82.47,82.47,0,0,1,130,79.21,5.9,5.9,0,0,1-7.6,4.71l-4-1.27,10,24.4Z"/></svg>