<svg id="Layer_1" data-name="Layer 1" xmlns="http://www.w3.org/2000/svg" viewBox="0 0 512 512"><defs><style>.cls-1{fill:#069986;}.cls-2{fill:#fff;}</style></defs><path class="cls-1" d="M118.34,0H512a0,0,0,0,1,0,0V393.66A118.34,118.34,0,0,1,393.66,512H0a0,0,0,0,1,0,0V118.34A118.34,118.34,0,0,1,118.34,0Z"/><path class="cls-2" d="M273.22,251h-2.31V191.41H241.09V251h-2.31a12.6,12.6,0,0,0-10.48,19.58l15.84,23.76a14.25,14.25,0,0,0,23.72,0l15.84-23.75A12.61,12.61,0,0,0,273.22,251Zm2.21,14.07-15.84,23.76a4.48,4.48,0,0,1-7.18,0L236.57,265.1a2.55,2.55,0,0,1-.45-1.47,2.67,2.67,0,0,1,2.66-2.66H251V201.34H261V261h12.25a2.67,2.67,0,0,1,2.66,2.66A2.63,2.63,0,0,1,275.43,265.1Z"/><path class="cls-2" d="M390.16,360.34v-154a24.86,24.86,0,0,0-24.84-24.84H350a34.81,34.81,0,0,0-34.38-29.81,34.11,34.11,0,0,0-5.79.49,59.58,59.58,0,0,0-117.62-.25A34.83,34.83,0,0,0,162,181.47h-15.3a24.87,24.87,0,0,0-24.85,24.84v154H102v24.85A24.86,24.86,0,0,0,126.81,410H385.19A24.86,24.86,0,0,0,410,385.19V360.34ZM172.08,211.28a34.66,34.66,0,0,0,24.29,9.94h.56c-2.67,22.25-5.52,48.71-5.52,59.62,0,18.14,33.05,37.2,52.75,46.94a26.86,26.86,0,0,0,23.68,0c19.7-9.74,52.75-28.8,52.75-46.94,0-10.91-2.85-37.37-5.52-59.62h.56a34.64,34.64,0,0,0,24.29-9.94h20.42V340.47H151.66V211.28Zm138.58,69.56c0,8.92-18.54,23.85-47.23,38a16.93,16.93,0,0,1-14.86,0c-28.69-14.18-47.23-29.11-47.23-38,0-16.61,7.24-73.4,9.34-89.48a72.3,72.3,0,0,0,45.32-18,72.3,72.3,0,0,0,45.32,18c2.1,16.08,9.34,72.87,9.34,89.48ZM196.34,161.6h0l4.79.27.44-4.78a49.64,49.64,0,0,1,99,1.61l.38,6.64,6.26-2.25a24.83,24.83,0,1,1,8.42,48.19h-1.76c-1.7-13.83-3.1-24.37-3.25-25.5l-.58-4.31H304a62.47,62.47,0,0,1-44.47-18.42L256,159.54l-3.51,3.51A62.47,62.47,0,0,1,208,181.47H202l-.57,4.31c-.15,1.13-1.55,11.66-3.26,25.5h-1.76a24.84,24.84,0,0,1,0-49.68Zm-64.56,44.71a14.92,14.92,0,0,1,14.91-14.9H162a34.46,34.46,0,0,0,3,9.93H151.66a10,10,0,0,0-9.94,9.94V340.47a10,10,0,0,0,9.94,9.94H360.34a10,10,0,0,0,9.94-9.94V211.28a10,10,0,0,0-9.94-9.94H347a34.46,34.46,0,0,0,3-9.93h15.3a14.91,14.91,0,0,1,14.9,14.9v154H131.78ZM400.09,385.19a14.91,14.91,0,0,1-14.9,14.9H126.81a14.91,14.91,0,0,1-14.9-14.9V370.28H400.09Z"/><circle class="cls-2" cx="136.75" cy="385.19" r="4.97"/><circle class="cls-2" cx="156.62" cy="385.19" r="4.97"/><circle class="cls-2" cx="176.5" cy="385.19" r="4.97"/></svg>