<svg id="Layer_1" data-name="Layer 1" xmlns="http://www.w3.org/2000/svg" viewBox="0 0 512 512"><defs><style>.cls-1{fill:#069986;}.cls-2{fill:none;stroke:#fff;stroke-linecap:round;stroke-linejoin:round;stroke-width:14px;}</style></defs><path class="cls-1" d="M118.34,0H512a0,0,0,0,1,0,0V393.66A118.34,118.34,0,0,1,393.66,512H0a0,0,0,0,1,0,0V118.34A118.34,118.34,0,0,1,118.34,0Z"/><line class="cls-2" x1="369.74" y1="165.4" x2="274.43" y2="114.2"/><line class="cls-2" x1="125.22" y1="303.08" x2="125.22" y2="198.45"/><line class="cls-2" x1="373.68" y1="340.31" x2="274.15" y2="397.31"/><line class="cls-2" x1="237.85" y1="397.31" x2="138.33" y2="340.31"/><line class="cls-2" x1="237.57" y1="114.2" x2="142.26" y2="165.4"/><line class="cls-2" x1="386.78" y1="303.08" x2="386.78" y2="198.45"/><path class="cls-2" d="M276.93,104.29A20.93,20.93,0,1,0,256,125.22,20.93,20.93,0,0,0,276.93,104.29Z"/><path class="cls-2" d="M146.14,177.53a20.93,20.93,0,1,0-20.92,20.92A20.93,20.93,0,0,0,146.14,177.53Z"/><path class="cls-2" d="M407.71,177.53a20.93,20.93,0,1,0-20.93,20.92A20.93,20.93,0,0,0,407.71,177.53Z"/><path class="cls-2" d="M235.08,407.71A20.93,20.93,0,1,0,256,386.78,20.92,20.92,0,0,0,235.08,407.71Z"/><path class="cls-2" d="M365.86,324a20.93,20.93,0,1,0,20.92-20.93A20.92,20.92,0,0,0,365.86,324Z"/><path class="cls-2" d="M104.29,324a20.93,20.93,0,1,0,20.93-20.93A20.93,20.93,0,0,0,104.29,324Z"/><path class="cls-2" d="M276.93,104.29A20.93,20.93,0,1,0,256,125.22,20.93,20.93,0,0,0,276.93,104.29Z"/><path class="cls-2" d="M280.66,301.8H231.34a14.09,14.09,0,0,1-14.09-14.09h0a14.09,14.09,0,0,1,14.09-14.09h49.32a14.09,14.09,0,0,1,14.1,14.09h0A14.09,14.09,0,0,1,280.66,301.8Z"/><path class="cls-2" d="M294.76,287.71H329c16.12,0,29.19-14.63,29.19-32.67,0-16.25-10.6-29.72-24.48-32.24a48.07,48.07,0,0,0-93.9-19.68,36,36,0,0,0-61.5,19.68c-13.87,2.53-24.46,16-24.46,32.24,0,18,13.07,32.67,29.19,32.67h34.23"/><line class="cls-2" x1="256" y1="301.8" x2="256" y2="329.99"/><path class="cls-2" d="M270.09,344.08A14.09,14.09,0,1,0,256,358.17,14.09,14.09,0,0,0,270.09,344.08Z"/></svg>