<svg height="60" viewBox="0 0 60 60" width="60" xmlns="http://www.w3.org/2000/svg"><g id="Page-1" fill="none" fill-rule="evenodd"><g id="003---Briefcase" fill="#000" fill-rule="nonzero"><path id="Shape" d="m3 55v2c0 1.6568542 1.34314575 3 3 3h8c1.6568542 0 3-1.3431458 3-3v-2h26v2c0 1.6568542 1.3431458 3 3 3h8c1.6568542 0 3-1.3431458 3-3v-2c1.6568542 0 3-1.3431458 3-3v-40c0-1.6568542-1.3431458-3-3-3h-10.586l-5.422-5.422c0-.027.008-.051.008-.078 0-1.93299662-1.5670034-3.5-3.5-3.5h-17c-1.9329966 0-3.5 1.56700338-3.5 3.5 0 .027.007.051.008.078l-5.422 5.422h-8.586c-1.65685425 0-3 1.3431458-3 3v40c0 1.6568542 1.34314575 3 3 3zm-1-3v-24.377c.22344631.2240182.46164607.4328188.713.625.072.056.148.107.223.16.19844995.1419998.40441589.2731905.617.393.083.047.164.1.249.139.29395817.153736.5987721.2857552.912.395l19.286 6.658v3.007c0 1.1045695.8954305 2 2 2v12h-23c-.55228475 0-1-.4477153-1-1zm32-19v6h-8v-6zm-19 24c0 .5522847-.4477153 1-1 1h-8c-.55228475 0-1-.4477153-1-1v-2h10zm13-4v-12h4v12zm27 4c0 .5522847-.4477153 1-1 1h-8c-.5522847 0-1-.4477153-1-1v-2h10zm3-5c0 .5522847-.4477153 1-1 1h-23v-12c1.1045695 0 2-.8954305 2-2v-3.007l19.284-6.657c.3132647-.1111245.6180632-.244808.912-.4.086-.044.167-.092.25-.139.2126921-.1201671.4189723-.2513453.618-.393.074-.053.15-.1.222-.159.2518124-.1912841.4903599-.3994285.714-.623zm-37.5-50h17c.8284271.00000001 1.5.67157288 1.5 1.5s-.6715729 1.49999999-1.5 1.5h-17c-.8284271-.00000001-1.5-.67157288-1.5-1.5s.6715729-1.49999999 1.5-1.5zm-2.739 3.653c.6571721.84644373 1.6673993 1.34325863 2.739 1.347h17c1.0716007-.00374137 2.0818279-.50055627 2.739-1.347l3.347 3.347h-29.172zm-15.761 6.347c0-.5522847.44771525-1 1-1h54c.5522847 0 1 .4477153 1 1v10.72c.0019304 2.1321314-1.3502406 4.0302324-3.366 4.725l-18.634 6.432v-.877c0-1.1045695-.8954305-2-2-2h-8c-1.1045695 0-2 .8954305-2 2v.877l-18.636-6.433c-2.01481354-.6950748-3.36610187-2.5926628-3.364-4.724z"/><path id="Shape" d="m5 17c.55228475 0 1-.4477153 1-1v-1c0-.5522847-.44771525-1-1-1s-1 .4477153-1 1v1c0 .5522847.44771525 1 1 1z"/><path id="Shape" d="m6.02 25.554 4.654 1.607c.5168504.1631417 1.0695878-.1151515 1.2463372-.627508.1767495-.5123565-.0868328-1.0722584-.5943372-1.262492l-4.656-1.608c-.40092771-.1401574-.66958331-.5182801-.67-.943v-2.72c0-.5522847-.44771525-1-1-1s-1 .4477153-1 1v2.72c-.00122126 1.2791917.81038931 2.4178572 2.02 2.834z"/><path id="Shape" d="m14.674 28.542 1.168.4c.3404398.1276109.7233174.060396.9999358-.1755406.2766183-.2359366.4033895-.6034175.3310797-.959725-.0723097-.3563076-.3323063-.6452971-.6790155-.7547344l-1.168-.4c-.5221852-.1800448-1.0914552.0973148-1.2715.6195s.0973148 1.0914552.6195 1.2715z"/></g></g></svg>