<?xml version="1.0" encoding="utf-8"?>
<!-- Generator: Adobe Illustrator 24.3.0, SVG Export Plug-In . SVG Version: 6.00 Build 0)  -->
<svg version="1.1" id="Layer_1" xmlns="http://www.w3.org/2000/svg" xmlns:xlink="http://www.w3.org/1999/xlink" x="0px" y="0px"
	 viewBox="0 0 512 512" style="enable-background:new 0 0 512 512;" xml:space="preserve">
<style type="text/css">
	.st0{fill:#069986;}
</style>
<path class="st0" d="M465.3,302.7c-11.7-13-27.3-21.8-44.5-25.1c1.4-29.1-8.1-57.7-26.6-80.2v-84.8h22.6c3.9,0,7-3.1,7-7
	c0-1.8-0.7-3.5-1.9-4.8l-26-28.2l-26-28.3c-1.3-1.4-3.2-2.3-5.1-2.3l0,0c-2,0-3.8,0.8-5.1,2.3l-52.1,56.5c-2.6,2.8-2.4,7.3,0.4,9.9
	c1.3,1.2,3,1.9,4.8,1.9h22.6v46.5c-16.2-4.5-33.1-5.4-49.7-2.8V70.5h22.5c3.9,0,7-3.1,7-7c0-1.8-0.7-3.5-1.9-4.8L261.1,2.3
	C259.8,0.8,257.9,0,256,0l0,0c-2,0-3.8,0.8-5.1,2.3l-26,28.3l-26.1,28.2c-2.6,2.8-2.4,7.3,0.4,9.9c1.3,1.2,3,1.9,4.8,1.9h22.6v113.9
	c-8.2,7.2-15.3,15.5-21.1,24.7c-9.1-3.4-18.8-5.4-28.5-5.7v-90.8h22.6c3.9,0,7-3.1,7-7c0-1.8-0.7-3.5-1.9-4.8l-26-28.2l-26-28.3
	c-1.3-1.4-3.2-2.3-5.1-2.3l0,0c-2,0-3.8,0.8-5.1,2.3l-52.1,56.5c-2.6,2.8-2.4,7.3,0.4,9.9c1.3,1.2,3,1.9,4.8,1.9h22.5v110
	c-17.8,14-29.7,34.2-33.2,56.5c-42.8,12-67.8,56.5-55.8,99.3c9.8,34.8,41.5,58.8,77.6,58.8h59.4c0.1,0.2,0.2,0.4,0.3,0.6l-10.1,16.9
	c-1.5,2.4-1.3,5.5,0.4,7.8c6.9,9.1,15,17.3,24.1,24.2c2.3,1.7,5.4,1.9,7.8,0.4l16.9-10.1c7.2,4.1,14.9,7.3,22.9,9.5l4.8,19.1
	c0.7,2.8,3,4.8,5.9,5.2c11.3,1.5,22.8,1.5,34.1,0c2.8-0.4,5.2-2.5,5.9-5.2l4.8-19.1c8-2.2,15.7-5.4,22.9-9.5l16.9,10.1
	c2.4,1.5,5.5,1.3,7.8-0.4c9.1-6.9,17.3-15,24.2-24.2c1.7-2.3,1.9-5.4,0.4-7.8L346,437.9c0.1-0.2,0.2-0.4,0.3-0.6h59.4
	c44.4,0.1,80.5-35.9,80.6-80.3C486.2,336.8,478.8,317.5,465.3,302.7L465.3,302.7z M342.2,98.6h-13.6l36.1-39.2l36.1,39.2h-13.6
	c-3.9,0-7,3.1-7,7v77.5c-9.3-8-19.7-14.4-31-19.1v-58.3C349.2,101.8,346.1,98.6,342.2,98.6L342.2,98.6z M233.5,56.5h-13.6L256,17.3
	l36.1,39.2h-13.6c-3.9,0-7,3.1-7,7v96c-11,3.2-21.4,8-31,14.2V63.5C240.5,59.6,237.4,56.5,233.5,56.5L233.5,56.5z M124.8,98.6h-13.6
	l36.1-39.2l36.1,39.2h-13.6c-3.9,0-7,3.1-7,7V204c-10.8,1.3-21.4,4.5-31,9.6v-108C131.8,101.8,128.6,98.6,124.8,98.6L124.8,98.6z
	 M326.6,472.6l-16.3-9.7c-2.3-1.3-5.1-1.3-7.3,0.1c-8.2,5.1-17.2,8.8-26.6,11c-2.5,0.6-4.5,2.6-5.2,5.1l-4.7,18.4
	c-7,0.7-14,0.7-21,0l-4.6-18.4c-0.6-2.5-2.6-4.5-5.2-5.1c-9.4-2.2-18.4-5.9-26.6-11c-2.2-1.4-5-1.4-7.3-0.1l-16.3,9.7
	c-5.4-4.5-10.4-9.5-14.9-14.9l9.7-16.3c1.3-2.2,1.3-5.1-0.1-7.3c-5.1-8.2-8.8-17.2-11-26.6c-0.6-2.5-2.6-4.5-5.1-5.2l-18.4-4.7
	c-0.3-3.6-0.5-7.1-0.5-10.5s0.2-7,0.5-10.5l18.4-4.6c2.5-0.6,4.5-2.6,5.1-5.2c2.2-9.4,5.9-18.4,11.1-26.6c1.4-2.2,1.4-5.1,0.1-7.3
	l-9.7-16.3c4.5-5.4,9.5-10.4,14.9-14.9l16.3,9.7c2.3,1.4,5.1,1.3,7.3-0.1c8.2-5.1,17.2-8.9,26.6-11.1c2.6-0.6,4.6-2.6,5.2-5.1
	l4.6-18.4c7-0.7,14-0.7,21,0l4.7,18.4c0.6,2.5,2.6,4.5,5.2,5.1c9.4,2.2,18.4,5.9,26.6,11.1c2.2,1.4,5.1,1.4,7.3,0.1l16.3-9.7
	c5.4,4.5,10.4,9.5,14.9,14.9l-9.7,16.3c-1.3,2.3-1.3,5.1,0.1,7.3c5.1,8.2,8.8,17.2,11,26.6c0.6,2.6,2.6,4.6,5.1,5.2l18.4,4.6
	c0.3,3.5,0.5,7,0.5,10.5s-0.2,7.1-0.5,10.5l-18.4,4.7c-2.5,0.6-4.5,2.6-5.1,5.2c-1.6,6.7-3.9,13.2-7,19.3c-0.1,0.2-0.2,0.4-0.3,0.7
	c-1.2,2.3-2.4,4.5-3.7,6.6c-1.4,2.2-1.4,5-0.1,7.3l9.7,16.3C337,463.2,332,468.2,326.6,472.6z M405.6,423.2h-53
	c1-2.7,1.9-5.5,2.7-8.3l19-4.8c2.8-0.7,4.8-3,5.2-5.8c1.6-11.3,1.6-22.9,0-34.2c-0.4-2.8-2.5-5.1-5.2-5.8l-19-4.8
	c-2.2-8-5.4-15.7-9.5-22.9l10.1-16.9c1.5-2.4,1.3-5.5-0.4-7.8c-6.9-9.1-15-17.3-24.2-24.2c-2.3-1.7-5.4-1.9-7.8-0.4l-16.9,10.1
	c-7.2-4.1-14.9-7.3-22.9-9.5l-4.8-19c-0.7-2.8-3-4.8-5.9-5.2c-11.3-1.6-22.8-1.6-34.1,0c-2.8,0.4-5.2,2.5-5.9,5.2l-4.8,19
	c-8,2.2-15.7,5.4-22.9,9.5l-16.9-10.1c-2.5-1.5-5.5-1.3-7.8,0.4c-9.1,6.9-17.2,15-24.1,24.2c-1.7,2.3-1.9,5.4-0.4,7.8l10.1,16.9
	c-4.1,7.2-7.3,14.9-9.5,22.9l-19,4.8c-2.8,0.7-4.8,3-5.2,5.9c-1.6,11.3-1.6,22.8,0,34.1c0.4,2.8,2.5,5.2,5.2,5.9l19,4.8
	c0.8,2.8,1.7,5.6,2.7,8.3h-53c-36.8,0-66.6-29.8-66.6-66.6c0-31.4,21.9-58.5,52.6-65.1c3-0.6,5.2-3.1,5.5-6.1
	c2.2-21.2,13.2-40.5,30.3-53.2c0.5-0.3,1-0.6,1.4-1c22.2-15.7,51.1-18.4,75.9-7.1c3.3,1.5,7.2,0.3,9-2.9
	c27.9-49.5,90.6-67.1,140.2-39.2c9.7,5.5,18.5,12.5,26,20.8c0.4,0.5,0.8,0.9,1.2,1.4c0.2,0.2,0.3,0.4,0.5,0.6
	c18.4,21.6,27.1,49.7,24.1,77.9c-0.4,3.8,2.4,7.3,6.2,7.7l0,0c36.6,3.8,63.1,36.6,59.3,73.1C468.3,397.5,439.7,423.3,405.6,423.2
	L405.6,423.2z M256,316.8c-38.9,0-70.4,31.5-70.4,70.4s31.5,70.4,70.4,70.4s70.4-31.5,70.4-70.4S294.9,316.8,256,316.8z M256,443.6
	c-31.2,0-56.4-25.3-56.4-56.4c0-31.2,25.3-56.4,56.4-56.4c31.2,0,56.4,25.3,56.4,56.4S287.1,443.6,256,443.6z"/>
</svg>
