<?xml version="1.0" encoding="utf-8"?>
<!-- Generator: Adobe Illustrator 24.3.0, SVG Export Plug-In . SVG Version: 6.00 Build 0)  -->
<svg version="1.1" id="Capa_1" xmlns="http://www.w3.org/2000/svg" xmlns:xlink="http://www.w3.org/1999/xlink" x="0px" y="0px"
	 viewBox="0 0 512 512" style="enable-background:new 0 0 512 512;" xml:space="preserve">
<style type="text/css">
	.st0{fill-rule:evenodd;clip-rule:evenodd;fill:#069986;}
	.st1{fill:#FFFFFF;}
</style>
<circle class="st0" cx="256" cy="256" r="256"/>
<g>
	<g>
		<g>
			<path class="st1" d="M398.4,197c0.9-4.3,1.2-8.6,1.2-13c0-39.6-32.2-71.9-71.9-71.9c-9.8,0-19.3,2-28.1,5.8
				c-13.9-25.2-40.8-41.7-70.7-41.7c-42.9,0-78.2,33.7-80.7,76c-41.9,11.6-71.9,49.7-71.9,94.6c0,38.4,22.1,71.4,54.2,87.8v-43.9
				c-11.2-11.4-18.2-26.7-18.2-43.8c0-32.2,24.4-59,56.7-62.2l18.9-2l-3-18.8c-0.4-2.3-0.8-4.6-0.8-7c0-24.7,20.2-44.9,44.9-44.9
				c21.5,0,40,15.3,44,36.4l6.2,32.3l23.8-22.7c6.8-6.4,15.5-10,24.7-10c19.9,0,35.9,16.1,35.9,35.9c0,5-1.2,10-3.3,14.7l-7.8,17.5
				l17.9,6.7c17.7,6.7,29.1,23.1,29.1,41.9c0,14.4-6.9,27.1-17.6,35.4v40.1c31.1-11.2,53.4-40.5,53.4-75.4
				C435.5,237.1,421.1,211.6,398.4,197z"/>
		</g>
	</g>
	<g>
		<g>
			<path class="st1" d="M328.3,292h-17.9v-33.8c0-26.1-17.6-50-43.2-54.9c-34.4-6.7-64.6,19.7-64.6,52.8v35.9h-17.9
				c-9.9,0-17.9,8-17.9,17.9v107.9c0,9.9,8,17.9,17.9,17.9h143.7c9.9,0,17.9-8,17.9-17.9V310C346.2,300.1,338.2,292,328.3,292z
				 M273.9,381.8h-35.9v-35.9h35.9V381.8z M238.4,292v-35.9c0-9.9,8-17.9,17.9-17.9c9.9,0,17.9,8,17.9,17.9V292H238.4z"/>
		</g>
	</g>
</g>
</svg>
