<svg id="Layer_1" data-name="Layer 1" xmlns="http://www.w3.org/2000/svg" viewBox="0 0 512 512"><defs><style>.cls-1{fill:#069986;}.cls-2{fill:#fff;}</style></defs><path class="cls-1" d="M118.34,0H512a0,0,0,0,1,0,0V393.66A118.34,118.34,0,0,1,393.66,512H0a0,0,0,0,1,0,0V118.34A118.34,118.34,0,0,1,118.34,0Z"/><g id="Layer_1-2" data-name="Layer_1"><g id="_889664832" data-name=" 889664832"><path class="cls-2" d="M414.54,334.65V146.16a31.72,31.72,0,0,0-31.62-31.62H129.08a31.72,31.72,0,0,0-31.62,31.62h0l.19,188.49Zm10.95-188.49v194A5.47,5.47,0,0,1,420,345.6H92.18a5.46,5.46,0,0,1-5.45-5.48l-.2-194h0a42.68,42.68,0,0,1,42.57-42.57H382.92a42.68,42.68,0,0,1,42.57,42.57Z"/><path class="cls-2" d="M105.87,397.46H406.13a39.57,39.57,0,0,0,27.72-11.25,37.68,37.68,0,0,0,11.47-27V345.55H66.68v13.69a37.65,37.65,0,0,0,11.48,27,39.53,39.53,0,0,0,27.71,11.25Zm300.26,11H105.87A50.51,50.51,0,0,1,70.49,394a48.51,48.51,0,0,1-14.76-34.75V340.07a5.47,5.47,0,0,1,5.47-5.47H450.8a5.47,5.47,0,0,1,5.47,5.47v19.17A48.51,48.51,0,0,1,441.51,394a50.53,50.53,0,0,1-35.38,14.42Z"/><path class="cls-2" d="M112,354.72a16.79,16.79,0,1,1-16.79,16.79A16.8,16.8,0,0,1,112,354.72Zm0,10.95a5.84,5.84,0,1,0,5.84,5.84A5.82,5.82,0,0,0,112,365.67Z"/><path class="cls-2" d="M169,366a5.48,5.48,0,1,0,0,11H343a5.48,5.48,0,1,0,0-11Z"/><path class="cls-2" d="M319.33,208.31c-4.58,0-9.14-2-7.06-7.39a28,28,0,0,0,.84-3.82,29.33,29.33,0,0,0,.32-4.36,29.06,29.06,0,0,0-56.9-8.28v0a5.48,5.48,0,0,1-6.8,3.7,5.58,5.58,0,0,1-1.46-.68,24.36,24.36,0,0,0-5.48-2.14,25.08,25.08,0,0,0-31.19,21.26h0a5.49,5.49,0,0,1-8.18,4.09,24.82,24.82,0,0,0-5.06-1.77,25.08,25.08,0,1,0-5.7,49.5h6.62a57.79,57.79,0,0,1,113.42,0h6.63a25.07,25.07,0,1,0,0-50.14Zm5.05-15.57a38.73,38.73,0,0,1-.31,4.93,36,36,0,0,1-4.74,71.73H308a5.48,5.48,0,0,1-5.44-4.89h0a46.86,46.86,0,0,0-93.13-.33A5.48,5.48,0,0,1,204,269.4H192.66a36,36,0,1,1,0-72,36.6,36.6,0,0,1,8.19.94l1.35.34a36.08,36.08,0,0,1,34.3-25,35.81,35.81,0,0,1,9,1.16c.94.24,1.86.52,2.76.83a40,40,0,0,1,76.12,17.12Z"/><path class="cls-2" d="M256,211.76a57.8,57.8,0,1,1-57.8,57.8A57.79,57.79,0,0,1,256,211.76Zm46.84,57.8A46.84,46.84,0,1,0,256,316.4,46.84,46.84,0,0,0,302.84,269.56Z"/><path class="cls-2" d="M261.48,236a5.48,5.48,0,0,0-11,0v35.08a5.48,5.48,0,1,0,11,0Z"/><path class="cls-2" d="M256,281a13.69,13.69,0,1,1-13.69,13.69A13.7,13.7,0,0,1,256,281Zm0,8.94a4.76,4.76,0,1,0,4.76,4.76A4.75,4.75,0,0,0,256,289.89Z"/><path class="cls-2" d="M128.38,148.57v186.1l127.62,0,127.62,0V145.46H128.38ZM256,345.56H123.39a4,4,0,0,1-.49,0,5.48,5.48,0,0,1-5.48-5.48V148.23a15.37,15.37,0,0,1,3-9.07,10.92,10.92,0,0,1,8.71-4.66H382.92a10.92,10.92,0,0,1,8.71,4.66,15.3,15.3,0,0,1,2.95,9.07V340.12a5.48,5.48,0,0,1-5.48,5.48,4,4,0,0,1-.49,0Z"/></g></g></svg>