<svg id="Layer_1" data-name="Layer 1" xmlns="http://www.w3.org/2000/svg" viewBox="0 0 512 512"><defs><style>.cls-1{fill:#069986;stroke:#069986;stroke-miterlimit:10;stroke-width:4px;}</style></defs><path class="cls-1" d="M256,242.89a59,59,0,1,0,59,59A59,59,0,0,0,256,242.89Zm0,104.91a45.9,45.9,0,1,1,45.9-45.9A45.9,45.9,0,0,1,256,347.8Z"/><path class="cls-1" d="M276.1,275.64a6.58,6.58,0,0,0-5.89,3l-21.79,32.69L241,303.83a6.56,6.56,0,0,0-9.27,9.27l13.12,13.11a6.54,6.54,0,0,0,4.63,1.92c.22,0,.43,0,.65,0a6.54,6.54,0,0,0,4.81-2.89l26.22-39.34a6.55,6.55,0,0,0-5-10.23Z"/><path class="cls-1" d="M416.78,187.09s-.08-.08-.13-.11-.33-.16-.48-.25c-2-1.11-4-2.16-6.08-3.09l-.13-.06q-2.67-1.19-5.46-2.16a65.29,65.29,0,0,0-70-82.39c-.69.07-1.37.15-2.06.24-1.78.25-3.54.55-5.28.94-.95.21-1.89.45-2.84.7-1.42.38-2.82.8-4.21,1.27-.93.32-1.86.66-2.78,1q-2.29.9-4.51,2c-.38.19-.79.32-1.17.51a68.85,68.85,0,0,0-129.9-.74,65.3,65.3,0,0,0-6.29-2.64l-.32-.12a62.45,62.45,0,0,0-6.44-1.88l-.81-.16q-2.7-.6-5.47-.94l-1.62-.2a62.22,62.22,0,0,0-63.48,86.88c-.27.15-.5.35-.77.49s-.81.39-1.19.61a4.45,4.45,0,0,0-.61.54,71.12,71.12,0,0,0-35.45,61.93,72.22,72.22,0,0,0,72.13,72.13h21.81a164.87,164.87,0,0,0,58.93,100.35l32.4,26.67a18,18,0,0,0,22.87,0l32.39-26.67a164.91,164.91,0,0,0,58.95-100.37h21.81a72.11,72.11,0,0,0,36.2-134.48Zm-69,108.85A150,150,0,0,1,291.5,411.8h0l-32.41,26.69a4.86,4.86,0,0,1-6.19,0L220.49,411.8A150.07,150.07,0,0,1,164.2,295.94V243.85a3.41,3.41,0,0,1,1.84-3l84.11-42.44a13.07,13.07,0,0,1,11.69,0L346,240.82h0a3.41,3.41,0,0,1,1.83,3v52.09Zm74.51-4.77h0a58.59,58.59,0,0,1-41.72,17.29H360.35c.33-4.15.56-8.32.56-12.52V243.85a16.42,16.42,0,0,0-9.05-14.74l-84.11-42.43a26.22,26.22,0,0,0-23.51,0l-84.11,42.43a16.41,16.41,0,0,0-9,14.74v52.09c0,4.2.23,8.37.56,12.52H131.42A59,59,0,0,1,89.7,207.72a58.4,58.4,0,0,1,13.07-9.83c.84-.47,1.71-.88,2.57-1.31s1.93-1,2.92-1.37a60,60,0,0,1,40.86-2.07,6.56,6.56,0,0,0,3.94-12.51,73.23,73.23,0,0,0-43.59.17,48.63,48.63,0,0,1-4.28-19.87A49.07,49.07,0,0,1,162,112.37c1,.16,2,.46,3,.68,1.43.32,2.87.61,4.26,1s2.62,1,3.91,1.54c1,.4,1.95.75,2.88,1.21a51.07,51.07,0,0,1,25.26,29.62,6.56,6.56,0,0,0,12.54-3.85,62.11,62.11,0,0,0-20.73-30.45,55.7,55.7,0,0,1,107,1,65.35,65.35,0,0,0-20.8,29.22,6.56,6.56,0,1,0,12.37,4.37,52.3,52.3,0,0,1,23.94-28.18c.72-.4,1.39-.89,2.13-1.26a52.43,52.43,0,0,1,75.85,46.93,51.62,51.62,0,0,1-2,14.14,72.51,72.51,0,0,0-32.79,2.28,6.56,6.56,0,0,0,3.93,12.51,59.89,59.89,0,0,1,35.39.07l.81.23q2.71.88,5.34,2c.37.16.71.34,1.07.51,1.38.64,2.73,1.32,4.06,2.06a59,59,0,0,1,12.76,93.12Z"/></svg>