<svg id="Layer_1" data-name="Layer 1" xmlns="http://www.w3.org/2000/svg" viewBox="0 0 512 512"><defs><style>.cls-1{fill:#069986;stroke:#069986;stroke-miterlimit:10;stroke-width:3px;}</style></defs><path class="cls-1" d="M262.12,194.23V169.76c6.72,0,12.23,6.73,12.23,12.85h12.23c0-12.24-11-25.08-24.46-25.08V145.91H249.88v11.62a24.47,24.47,0,0,0,0,48.93v24.46c-6.72,0-12.23-5.5-12.23-11.62H225.42c0,12.24,11,23.86,24.46,23.86v61.77h12.24V243.16a24.47,24.47,0,0,0,0-48.93ZM237.65,182a12.27,12.27,0,0,1,12.23-12.23v24.47A12.28,12.28,0,0,1,237.65,182Zm24.47,48.93V206.46a12.23,12.23,0,1,1,0,24.46Z"/><path class="cls-1" d="M280.46,317.16H231.54A30.29,30.29,0,0,0,201,347.74v36.7a55.05,55.05,0,0,0,110.1,0v-36.7A30.29,30.29,0,0,0,280.46,317.16Zm18.35,30.58v18.35H262.12v-36.7h18.34A18,18,0,0,1,298.81,347.74Zm-67.27-18.35h18.34v36.7H213.19V347.74A18,18,0,0,1,231.54,329.39ZM256,427.25a42.55,42.55,0,0,1-42.81-42.81v-6.12h85.62v6.12A42.55,42.55,0,0,1,256,427.25Z"/><path class="cls-1" d="M378.32,164.26a44.76,44.76,0,0,0-39.75-24.47,47.41,47.41,0,0,0-9.18,1.23c-3.05-38.53-34.86-68.5-73.39-68.5-36.09,0-66.67,26.3-72.17,61.16a42,42,0,0,0-22.63-6.12c-22,0-40.37,16.51-44.65,39.14-25.69,7.34-44,30-44,55.66,0,31.81,27.52,58.1,61.16,58.1h104V268.23h-104c-26.91,0-48.93-20.79-48.93-45.87,0-21.41,15.9-40.37,38.53-44.65l4.28-1.22.61-4.28c1.84-18.35,16.52-32.42,33.64-32.42a31.58,31.58,0,0,1,23.24,10.4l10.4,11V145.91a61.16,61.16,0,1,1,122.32,0v1.83l-.61,11,9.18-4.28a32.94,32.94,0,0,1,12.84-3.06c12.84,0,25.08,8,30.58,20.8l2.45,3.67h7.34c26.91,0,48.92,20.79,48.92,45.87s-23.24,46.48-50.15,46.48h-104v12.23h104c33.64,0,61.16-26.29,61.16-58.1S412,164.26,378.32,164.26Z"/></svg>