<svg id="Layer_1" data-name="Layer 1" xmlns="http://www.w3.org/2000/svg" viewBox="0 0 512 512"><defs><style>.cls-1{fill:#069986;}</style></defs><path class="cls-1" d="M430.71,185.51a76.75,76.75,0,0,0,4.18-25.09A77.59,77.59,0,0,0,320.21,92.27a77.54,77.54,0,0,0-126-3.21A77.61,77.61,0,0,0,86.15,160.42,76.84,76.84,0,0,0,89.82,184a73.58,73.58,0,0,0,8.37,146.69h44.43a225.12,225.12,0,0,0,109.86,122.2,7.78,7.78,0,0,0,7.06,0A225.12,225.12,0,0,0,369.4,330.66h44.43a73.55,73.55,0,0,0,16.88-145.15ZM256,437.27c-108.39-58.07-115.43-169.95-115.42-198,68.72-7.28,102.2-44,115.42-63.66,13.22,19.65,46.7,56.38,115.42,63.66C371.44,267.32,364.39,379.2,256,437.27Zm157.82-122h-39a252.5,252.5,0,0,0,11.85-83.63,7.71,7.71,0,0,0-7.12-7.1c-88.6-6.6-115.37-65-116.48-67.43a7.72,7.72,0,0,0-14.15,0c-.27.61-27.36,60.8-116.47,67.43a7.71,7.71,0,0,0-7.12,7.1,252.29,252.29,0,0,0,11.91,83.63h-39a58.16,58.16,0,1,1-1.34-116.32H101A7.7,7.7,0,0,0,108,187.8a61.46,61.46,0,0,1-6.38-27.38,62.17,62.17,0,0,1,91.6-54.76A7.71,7.71,0,0,0,203.4,103a62.12,62.12,0,0,1,107.47,3.59,7.71,7.71,0,0,0,10.45,3.13,6.12,6.12,0,0,0,.69-.43,62.15,62.15,0,0,1,90.93,78.88,7.7,7.7,0,0,0,6.17,11.1,58.15,58.15,0,0,1-5.31,116Z"/><path class="cls-1" d="M350.4,250.37a168.66,168.66,0,0,1-88.91-46.28,8,8,0,0,0-11,0,168.66,168.66,0,0,1-88.91,46.28,7.72,7.72,0,0,0-6.17,8.23A204.26,204.26,0,0,0,252,418.71a7.74,7.74,0,0,0,8,0A204.21,204.21,0,0,0,356.58,258.6,7.72,7.72,0,0,0,350.4,250.37ZM256,403a188.14,188.14,0,0,1-84.5-139A186.42,186.42,0,0,0,256,220.25,186.42,186.42,0,0,0,340.51,264,188.12,188.12,0,0,1,256,403Z"/><path class="cls-1" d="M207.74,293v42.09a7.71,7.71,0,0,0,15.42,0v-14.9h28.4v14.9a7.72,7.72,0,0,0,15.43,0V293a29.63,29.63,0,0,0-59.25,0Zm43.82,0v11.77h-28.4V293a14.2,14.2,0,0,1,28.4,0Z"/><path class="cls-1" d="M296.57,342.78a7.71,7.71,0,0,0,7.71-7.71v-64a7.72,7.72,0,1,0-15.43,0v64A7.72,7.72,0,0,0,296.57,342.78Z"/><path class="cls-1" d="M169.79,110.86A44.54,44.54,0,0,0,127,124.74a45.58,45.58,0,0,0-9.68,39.16,7.71,7.71,0,0,0,7.51,6,7.8,7.8,0,0,0,1.74-.2,7.72,7.72,0,0,0,5.79-9.25h0a30.23,30.23,0,0,1,6.24-25.52,29,29,0,0,1,27.92-9,7.72,7.72,0,1,0,3.23-15.09Z"/></svg>