<?xml version="1.0" encoding="utf-8"?>
<!-- Generator: Adobe Illustrator 24.3.0, SVG Export Plug-In . SVG Version: 6.00 Build 0)  -->
<svg version="1.1" id="OBJECT" xmlns="http://www.w3.org/2000/svg" xmlns:xlink="http://www.w3.org/1999/xlink" x="0px" y="0px"
	 viewBox="0 0 512 512" style="enable-background:new 0 0 512 512;" xml:space="preserve">
<style type="text/css">
	.st0{fill:#069986;}
</style>
<path class="st0" d="M433.5,407c-18.1,0-33.3,12.9-36.8,30h-28.2c-6.9,0-12.5-5.6-12.5-12.5v-66.4c0-4.1-3.4-7.5-7.5-7.5
	s-7.5,3.4-7.5,7.5v66.4c0,15.2,12.3,27.5,27.5,27.5h28.2c3.5,17.1,18.6,30,36.8,30c20.7,0,37.5-16.8,37.5-37.5S454.2,407,433.5,407z
	 M433.5,467c-12.4,0-22.5-10.1-22.5-22.5s10.1-22.5,22.5-22.5s22.5,10.1,22.5,22.5S445.9,467,433.5,467z"/>
<path class="st0" d="M163.5,350.6c-4.1,0-7.5,3.4-7.5,7.5v66.4c0,6.9-5.6,12.5-12.5,12.5h-28.2c-3.5-17.1-18.6-30-36.8-30
	C57.8,407,41,423.8,41,444.5S57.8,482,78.5,482c18.1,0,33.3-12.9,36.8-30h28.2c15.2,0,27.5-12.3,27.5-27.5v-66.4
	C171,354,167.6,350.6,163.5,350.6z M78.5,467C66.1,467,56,456.9,56,444.5S66.1,422,78.5,422s22.5,10.1,22.5,22.5S90.9,467,78.5,467z
	"/>
<path class="st0" d="M449.5,110h-21.4c-3.7-33.7-32.4-60-67.1-60c-2.8,0-5.6,0.2-8.5,0.5C330.5,18.8,294.8,0,256,0
	s-74.6,18.8-96.6,50.5c-2.8-0.3-5.6-0.5-8.4-0.5c-34.7,0-63.3,26.3-67.1,60H62.5C28,110,0,138,0,172.5S28,235,62.5,235h57.1
	c7,55,46.7,100,98.9,114.8v139.7c0,12.4,10.1,22.5,22.5,22.5h30c12.4,0,22.5-10.1,22.5-22.5V349.8C345.7,335,385.4,290,392.4,235
	h57.1c34.5,0,62.5-28,62.5-62.5S484,110,449.5,110L449.5,110z M271,497h-30c-4.1,0-7.5-3.4-7.5-7.5V472h45v17.5
	C278.5,493.6,275.1,497,271,497z M278.5,457h-45V353.1c7.3,1.2,14.8,1.9,22.5,1.9c7.7,0,15.2-0.6,22.5-1.9V457z M256,340
	c-67.6,0-122.5-55-122.5-122.5S188.4,95,256,95s122.5,54.9,122.5,122.5S323.5,340,256,340z M449.5,220h-56c0-0.8,0-1.7,0-2.5
	C393.5,141.7,331.8,80,256,80s-137.5,61.7-137.5,137.5c0,0.8,0,1.7,0,2.5h-56C36.3,220,15,198.7,15,172.5S36.3,125,62.5,125H126
	c4.1,0,7.5-3.4,7.5-7.5s-3.4-7.5-7.5-7.5H99c3.7-25.4,25.5-45,52-45c3.5,0,7.1,0.3,10.5,1.1c3.1,0.6,6.2-0.7,7.8-3.3
	c19-30,51.4-47.8,86.7-47.8s67.7,17.8,86.6,47.7c1.7,2.6,4.8,4,7.8,3.3c3.5-0.7,7-1.1,10.5-1.1c26.4,0,48.3,19.6,52,45h-27
	c-4.1,0-7.5,3.4-7.5,7.5s3.4,7.5,7.5,7.5h63.5c26.2,0,47.5,21.3,47.5,47.5S475.7,220,449.5,220z"/>
<path class="st0" d="M256,110c-59.3,0-107.5,48.2-107.5,107.5S196.7,325,256,325s107.5-48.2,107.5-107.5S315.3,110,256,110z
	 M256,310c-51,0-92.5-41.5-92.5-92.5S205,125,256,125s92.5,41.5,92.5,92.5S307,310,256,310z"/>
<path class="st0" d="M444.5,145c-15.2,0-27.5,12.3-27.5,27.5s12.3,27.5,27.5,27.5s27.5-12.3,27.5-27.5S459.7,145,444.5,145z
	 M444.5,185c-6.9,0-12.5-5.6-12.5-12.5s5.6-12.5,12.5-12.5s12.5,5.6,12.5,12.5S451.4,185,444.5,185z"/>
<path class="st0" d="M67.5,145C52.3,145,40,157.3,40,172.5S52.3,200,67.5,200S95,187.7,95,172.5S82.7,145,67.5,145z M67.5,185
	c-6.9,0-12.5-5.6-12.5-12.5S60.6,160,67.5,160S80,165.6,80,172.5S74.4,185,67.5,185z"/>
<path class="st0" d="M292.8,169.2L243,216.3l-23.9-22.6c-6.9-6.5-17.8-6.2-24.3,0.7l-6.7,7c-6.5,6.9-6.2,17.8,0.7,24.3l42.4,40.1
	c3.3,3.1,7.6,4.7,11.8,4.7s8.5-1.6,11.8-4.7l68.2-64.6c3.3-3.2,5.2-7.4,5.4-12s-1.5-8.9-4.7-12.3l-6.7-7
	C310.6,163,299.7,162.7,292.8,169.2L292.8,169.2z M312.8,190.3l-68.2,64.6c-0.9,0.8-2.2,0.8-3,0s-42.4-40.1-42.4-40.1
	c-0.9-0.8-0.9-2.2-0.1-3.1l6.7-7c0.4-0.4,1-0.7,1.6-0.7c0.5,0,1.1,0.2,1.5,0.6l29,27.5c2.9,2.7,7.4,2.7,10.3,0l54.9-52
	c0.9-0.8,2.3-0.8,3.1,0.1l6.7,7c0.5,0.5,0.6,1.1,0.6,1.6C313.5,189.2,313.4,189.8,312.8,190.3L312.8,190.3z"/>
</svg>
