<?xml version="1.0" encoding="utf-8"?>
<!-- Generator: Adobe Illustrator 24.3.0, SVG Export Plug-In . SVG Version: 6.00 Build 0)  -->
<svg version="1.1" id="svg2247" xmlns:svg="http://www.w3.org/2000/svg"
	 xmlns="http://www.w3.org/2000/svg" xmlns:xlink="http://www.w3.org/1999/xlink" x="0px" y="0px" viewBox="0 0 512 512"
	 style="enable-background:new 0 0 512 512;" xml:space="preserve">
<style type="text/css">
	.st0{clip-path:url(#SVGID_2_);}
</style>
<g id="g2253" transform="matrix(1.3333333,0,0,-1.3333333,0,682.66667)">
	<g id="g2255" transform="translate(66.7734,322.9736)">
		<g id="path2257">
			<path d="M127.2,39.7H-10.4c-3,0-5.4,2.4-5.4,5.4c0,3,2.4,5.4,5.4,5.4h137.6c3,0,5.4-2.4,5.4-5.4
				C132.6,42.1,130.2,39.7,127.2,39.7z"/>
		</g>
	</g>
	<g id="g2259" transform="translate(66.7734,270.2778)">
		<g id="path2261">
			<path d="M127.2,54.6H-10.4c-3,0-5.4,2.4-5.4,5.4c0,3,2.4,5.4,5.4,5.4h137.6c3,0,5.4-2.4,5.4-5.4C132.6,57,130.2,54.6,127.2,54.6z
				"/>
		</g>
	</g>
	<g id="g2263" transform="translate(66.7734,217.5825)">
		<g id="path2265">
			<path d="M127.2,69.5H-10.4c-3,0-5.4,2.4-5.4,5.4s2.4,5.4,5.4,5.4h137.6c3,0,5.4-2.4,5.4-5.4S130.2,69.5,127.2,69.5z"/>
		</g>
	</g>
	<g id="g2267" transform="translate(66.7734,164.8867)">
		<g id="path2269">
			<path d="M127.2,84.4H-10.4c-3,0-5.4,2.4-5.4,5.4s2.4,5.4,5.4,5.4h137.6c3,0,5.4-2.4,5.4-5.4S130.2,84.4,127.2,84.4z"/>
		</g>
	</g>
	<g id="g2271" transform="translate(66.7734,87.6597)">
		<g id="path2273">
			<path d="M58.6,106.3h-69c-3,0-5.4,2.4-5.4,5.4c0,3,2.4,5.4,5.4,5.4h69c3,0,5.4-2.4,5.4-5.4C63.9,108.7,61.5,106.3,58.6,106.3z"/>
		</g>
	</g>
	<g id="g2275">
		<g>
			<defs>
				<rect id="SVGID_1_" x="-52.7" y="75.3" width="489.4" height="489.4"/>
			</defs>
			<clipPath id="SVGID_2_">
				<use xlink:href="#SVGID_1_"  style="overflow:visible;"/>
			</clipPath>
			<g id="g2277" class="st0">
				<g id="g2283" transform="translate(187.4014,409.8135)">
					<g id="path2285">
						<path d="M87.5-273.4h-237.9c-14.7,0-26.6,11.9-26.6,26.6V11.7c0,7.1,2.8,13.8,7.8,18.8l55.4,55.4c5,5,11.7,7.8,18.8,7.8H87.5
							c14.7,0,26.6-11.9,26.6-26.6V-4.5c0-3-2.4-5.4-5.4-5.4s-5.4,2.4-5.4,5.4v71.6c0,8.7-7.1,15.8-15.9,15.8H-94.9
							c-4.2,0-8.2-1.6-11.2-4.6l-55.4-55.4c-3-3-4.6-7-4.6-11.2v-258.4c0-8.7,7.1-15.8,15.8-15.8H87.5c8.7,0,15.9,7.1,15.9,15.8v7.2
							c0,3,2.4,5.4,5.4,5.4s5.4-2.4,5.4-5.4v-7.2C114.1-261.4,102.2-273.4,87.5-273.4z M56.5,15.1h-75.9c-3,0-5.4,2.4-5.4,5.4
							s2.4,5.4,5.4,5.4h75.9c0.7,0,1.3,0.6,1.3,1.3v17.4c0,0.7-0.6,1.3-1.3,1.3H-53.9c-0.7,0-1.3-0.6-1.3-1.3V27.1
							c0-0.7,0.6-1.3,1.3-1.3h9.3c3,0,5.4-2.4,5.4-5.4s-2.4-5.4-5.4-5.4h-9.3c-6.6,0-12.1,5.4-12.1,12.1v17.4
							c0,6.6,5.4,12.1,12.1,12.1H56.5c6.6,0,12.1-5.4,12.1-12.1V27.1C68.5,20.5,63.1,15.1,56.5,15.1z"/>
					</g>
				</g>
				<g id="g2287" transform="translate(356.5049,147.0181)">
					<g id="path2289">
						<path d="M-86.4,29.1c-1.9,0-3.8,0.5-5.6,1.4c-3.6,2-5.8,5.8-5.8,10v54.3c0,3,2.4,5.4,5.4,5.4s5.4-2.4,5.4-5.4V40.5
							c0-0.1,0-0.4,0.3-0.6c0.3-0.2,0.6,0,0.7,0l19.7,12.1c1.8,1.1,3.9,1.7,6,1.7c2.1,0,4.2-0.6,6-1.7L-34.7,40
							c0.1-0.1,0.3-0.2,0.7,0c0.3,0.2,0.3,0.5,0.3,0.6v54.3c0,3,2.4,5.4,5.4,5.4s5.4-2.4,5.4-5.4V40.5c0-4.1-2.2-7.9-5.8-10
							c-3.6-2-8-1.9-11.5,0.2L-60,43c-0.1,0.1-0.3,0.1-0.3,0.1c-0.1,0-0.2,0-0.3-0.1l-19.7-12.1C-82.3,29.7-84.3,29.1-86.4,29.1z"/>
					</g>
				</g>
				<g id="g2291" transform="translate(401.251,180.1875)">
					<g id="path2293">
						<path d="M-105.1,44.9c-6.7,0-12.9,3-17,8.3c-2.7,3.5-7.2,5-11.5,3.7c-0.9-0.3-1.8-0.5-2.7-0.6c-6.1-0.9-12.3,0.8-17,4.7
							c-4.7,3.9-7.6,9.7-7.8,15.9c-0.1,4.4-2.9,8.3-7.1,9.8c-6.3,2.3-11.1,7.2-13.2,13.6c-2.1,6.4-1.1,13.2,2.7,18.7
							c2.5,3.7,2.5,8.4,0,12.1c-3.8,5.5-4.8,12.4-2.7,18.7c2.1,6.4,6.9,11.3,13.2,13.6c4.2,1.5,7,5.3,7.1,9.8
							c0.2,6.7,3.4,12.8,8.9,16.7c5.4,3.9,12.2,5.1,18.7,3.2c4.3-1.2,8.8,0.2,11.5,3.7c4.1,5.3,10.3,8.3,17,8.3c6.7,0,12.9-3,17-8.3
							c2.7-3.5,7.2-5,11.5-3.7c6.4,1.9,13.2,0.7,18.7-3.2c5.4-3.9,8.7-10,8.9-16.7c0.1-4.4,2.9-8.3,7.1-9.8
							c6.3-2.3,11.1-7.2,13.2-13.6c2.1-6.4,1.1-13.2-2.7-18.7c-2.5-3.7-2.5-8.4,0-12.1l0,0c3.8-5.5,4.8-12.4,2.7-18.7
							C-30.9,94-35.7,89-42,86.8c-4.2-1.5-7-5.3-7.1-9.8c-0.2-6.2-3-12-7.7-15.9c-4.8-3.9-11-5.7-17-4.7c-0.9,0.1-1.8,0.3-2.7,0.6
							c-4.3,1.2-8.8-0.2-11.5-3.7C-92.2,47.9-98.4,44.9-105.1,44.9z M-130.5,68.2c6.5,0,12.8-3,16.9-8.4c2.1-2.7,5.1-4.2,8.5-4.2
							c3.3,0,6.4,1.5,8.5,4.2c5.4,7,14.5,10,23,7.5c0.5-0.1,0.9-0.2,1.4-0.3c3-0.5,6.1,0.4,8.5,2.4c2.4,2,3.8,4.8,3.9,7.9
							c0.3,8.9,5.9,16.6,14.2,19.6c3.2,1.1,5.6,3.6,6.6,6.8c1,3.2,0.5,6.6-1.3,9.4l0,0c-5,7.4-5,16.9,0,24.2
							c1.9,2.8,2.4,6.2,1.3,9.4c-1,3.2-3.4,5.7-6.6,6.8c-8.4,3-14,10.7-14.2,19.6c-0.1,3.3-1.7,6.4-4.4,8.4c-2.7,2-6.1,2.6-9.3,1.6
							c-8.5-2.5-17.6,0.4-23,7.5c-2.1,2.6-5.1,4.2-8.5,4.2c-3.3,0-6.4-1.5-8.5-4.2c-5.4-7-14.5-10-23-7.5c-3.2,0.9-6.6,0.3-9.3-1.6
							c-2.7-2-4.3-5-4.4-8.4c-0.3-8.9-5.9-16.6-14.2-19.6c-3.2-1.1-5.6-3.6-6.6-6.8c-1-3.2-0.5-6.6,1.3-9.4c5-7.4,5-16.9,0-24.2
							c-1.9-2.8-2.4-6.2-1.3-9.4c1-3.2,3.4-5.7,6.6-6.8c8.4-3,14-10.7,14.2-19.6c0.1-3.1,1.5-5.9,3.9-7.9c2.4-2,5.5-2.8,8.5-2.4
							c0.5,0.1,0.9,0.2,1.4,0.3C-134.6,67.9-132.6,68.2-130.5,68.2z M-105.1,80.1c-24.8,0-45.1,20.2-45.1,45.1
							c0,24.8,20.2,45.1,45.1,45.1c24.8,0,45.1-20.2,45.1-45.1C-60,100.3-80.3,80.1-105.1,80.1z M-105.1,159.5
							c-18.9,0-34.3-15.4-34.3-34.3c0-18.9,15.4-34.3,34.3-34.3c18.9,0,34.3,15.4,34.3,34.3C-70.8,144.1-86.2,159.5-105.1,159.5z"/>
					</g>
				</g>
				<g id="g2295" transform="translate(401.251,290.896)">
					<g id="path2297">
						<path d="M-105.1-30.6c-24.8,0-45.1,20.2-45.1,45.1c0,24.8,20.2,45.1,45.1,45.1c24.8,0,45.1-20.2,45.1-45.1
							C-60-10.4-80.3-30.6-105.1-30.6z M-105.1,48.7c-18.9,0-34.3-15.4-34.3-34.3c0-18.9,15.4-34.3,34.3-34.3
							c18.9,0,34.3,15.4,34.3,34.3C-70.8,33.4-86.2,48.7-105.1,48.7z"/>
					</g>
				</g>
				<g id="g2299" transform="translate(104.9434,501.8198)">
					<g id="path2301">
						<path d="M-34.4-76.9h-52.8c-3,0-5.4,2.4-5.4,5.4s2.4,5.4,5.4,5.4h52.8c4.3,0,7.8,3.5,7.8,7.8v52.8c0,3,2.4,5.4,5.4,5.4
							s5.4-2.4,5.4-5.4v-52.8C-15.9-68.6-24.2-76.9-34.4-76.9z"/>
					</g>
				</g>
			</g>
		</g>
	</g>
</g>
</svg>
