<?xml version="1.0" encoding="utf-8"?>
<!-- Generator: Adobe Illustrator 24.3.0, SVG Export Plug-In . SVG Version: 6.00 Build 0)  -->
<svg version="1.1" id="Layer_1" xmlns="http://www.w3.org/2000/svg" xmlns:xlink="http://www.w3.org/1999/xlink" x="0px" y="0px"
	 viewBox="0 0 252.23 59.2" style="enable-background:new 0 0 252.23 59.2;" xml:space="preserve">
<style type="text/css">
	.st0{clip-path:url(#SVGID_2_);fill-rule:evenodd;clip-rule:evenodd;fill:#231F20;}
	.st1{clip-path:url(#SVGID_4_);fill:url(#SVGID_5_);}
	.st2{clip-path:url(#SVGID_7_);fill-rule:evenodd;clip-rule:evenodd;fill:#231F20;}
	.st3{fill:#231F20;}
	.st4{font-family:'FranklinGothic-Book';}
	.st5{font-size:11.9625px;}
	.st6{clip-path:url(#SVGID_9_);}
	.st7{font-size:28.1901px;}
	.st8{clip-path:url(#SVGID_9_);fill-rule:evenodd;clip-rule:evenodd;fill:#231F20;}
</style>
<g>
	<defs>
		<rect id="SVGID_1_" y="0" width="252.23" height="59.2"/>
	</defs>
	<clipPath id="SVGID_2_">
		<use xlink:href="#SVGID_1_"  style="overflow:visible;"/>
	</clipPath>
	<path class="st0" d="M66.8,51.37l18.11-18.11l18.11-18.11c10,10,10,26.22,0,36.22S76.81,61.37,66.8,51.37"/>
	<path class="st0" d="M107.82,9.13L94.5,22.45L81.19,35.76c-7.35-7.35-7.35-19.28,0-26.63C88.54,1.78,100.46,1.78,107.82,9.13"/>
</g>
<g>
	<defs>
		<path id="SVGID_3_" d="M38.93,21.48c0,0.45,0,0.9,0.01,1.34h-0.01v17.52c0,10.41,8.45,18.86,18.86,18.86s18.86-8.45,18.86-18.86
			S68.2,21.48,57.79,21.48C57.79,8.88,53.83,0,48.3,0C42.05,0,38.93,7.16,38.93,21.48"/>
	</defs>
	<clipPath id="SVGID_4_">
		<use xlink:href="#SVGID_3_"  style="overflow:visible;"/>
	</clipPath>
	
		<linearGradient id="SVGID_5_" gradientUnits="userSpaceOnUse" x1="0" y1="59.1988" x2="1" y2="59.1988" gradientTransform="matrix(0 -58.8693 58.8693 0 -3427.2026 58.8689)">
		<stop  offset="0" style="stop-color:#4652A2"/>
		<stop  offset="0.45" style="stop-color:#188699"/>
		<stop  offset="1" style="stop-color:#089B87"/>
	</linearGradient>
	<rect x="38.93" y="0" class="st1" width="37.71" height="59.2"/>
</g>
<g>
	<defs>
		<rect id="SVGID_6_" y="0" width="252.23" height="59.2"/>
	</defs>
	<clipPath id="SVGID_7_">
		<use xlink:href="#SVGID_6_"  style="overflow:visible;"/>
	</clipPath>
	<path class="st2" d="M9.23,38.06c5.05,0,9.14-4.09,9.14-9.13c0-3.07,0.01-6.61,0.01-10.14c0-4.67,2.07-9.1,5.64-12.11
		c3.57-3.01,8.29-4.29,12.89-3.5h0c0,0,0.06,35.24,0.04,36.72c-0.05,17.88-18.2,24-29.15,15.55C3.47,52.1,0,46.49,0,38.06H9.23z"/>
</g>
<text transform="matrix(1 0 0 1 149.7363 49.0777)" class="st3 st4 st5"> </text>
<text transform="matrix(1 0 0 1 152.7266 49.0777)" class="st3 st4 st5">W</text>
<text transform="matrix(1 0 0 1 162.2363 49.0777)" class="st3 st4 st5">o</text>
<text transform="matrix(1 0 0 1 168.457 49.0777)" class="st3 st4 st5">r</text>
<text transform="matrix(1 0 0 1 172.3574 49.0777)" class="st3 st4 st5">ks B</text>
<text transform="matrix(1 0 0 1 194.1172 49.0777)" class="st3 st4 st5">e</text>
<text transform="matrix(1 0 0 1 200.2891 49.0777)" class="st3 st4 st5">t</text>
<text transform="matrix(1 0 0 1 203.9736 49.0777)" class="st3 st4 st5">t</text>
<text transform="matrix(1 0 0 1 207.4434 49.0777)" class="st3 st4 st5">e</text>
<text transform="matrix(1 0 0 1 213.6758 49.0777)" class="st3 st4 st5">r</text>
<text transform="matrix(1 0 0 1 216.9648 49.0777)" class="st3 st4 st5">.</text>
<g>
	<defs>
		<rect id="SVGID_8_" y="0" width="252.23" height="59.2"/>
	</defs>
	<clipPath id="SVGID_9_">
		<use xlink:href="#SVGID_8_"  style="overflow:visible;"/>
	</clipPath>
	<g class="st6">
		<text transform="matrix(1 0 0 1 119.8379 37.0933)" class="st3 st4 st7">Consulting.</text>
	</g>
	<path class="st8" d="M238.29,24.05c2.04,0,3.69,1.65,3.69,3.69c0,2.04-1.65,3.69-3.69,3.69c-2.04,0-3.69-1.65-3.69-3.69
		C234.6,25.7,236.25,24.05,238.29,24.05"/>
	<path class="st8" d="M238.76,35.95c2.81,0,5.09,1.24,5.09,2.77c0,1.53-2.28,2.77-5.09,2.77c-2.81,0-5.09-1.24-5.09-2.77
		C233.66,37.19,235.95,35.95,238.76,35.95"/>
</g>
</svg>
