<?xml version="1.0" encoding="utf-8"?>
<!-- Generator: Adobe Illustrator 24.3.0, SVG Export Plug-In . SVG Version: 6.00 Build 0)  -->
<svg version="1.1" id="Layer_1" xmlns="http://www.w3.org/2000/svg" xmlns:xlink="http://www.w3.org/1999/xlink" x="0px" y="0px"
	 viewBox="0 0 512 512" style="enable-background:new 0 0 512 512;" xml:space="preserve">
<style type="text/css">
	.st0{fill:#FFFFFF;}
</style>
<g>
	<path class="st0" d="M79.9,249.2c38.9-1,158.6-1.2,189.4-0.1c10.6,0.4,20.2-1.7,28.5-6.1c0.1-0.1,0.2-0.1,0.2-0.2
		c24-13,38.9-37.9,38.9-65.2c0-29.9-17.9-56.8-45.1-68.3c-2.7-39.9-36-71.4-76.5-71.4c-5.4,0-10.6,0.5-15.6,1.6
		c-15.1-18.5-38-29.5-62.1-29.5c-0.1,0-0.1,0-0.2,0c-34.1,0-65.4,22.6-76.1,55c-3.5,10.6-4.8,21.5-3.8,32.4
		c-29.6,12.5-49,41.5-49,74.1c0,26.1,12.8,50.7,34.5,65.9c0.5,0.4,1.1,0.8,1.5,1.1c10.1,7,21.8,10.7,34,10.7
		C79,249.2,79.4,249.2,79.9,249.2L79.9,249.2z M51.4,224.9c-17.4-12.2-27.8-32.1-27.8-53.4c0-28.2,17.9-53.1,44.6-62
		c3.5-1.2,5.7-4.7,5-8.4c-1.8-10.6-0.9-21.1,2.5-31.4c8.7-26.3,34.1-44.7,61.8-44.7h0.1c21,0,40.9,10.2,53.1,27.4
		c1.9,2.6,5.2,3.8,8.3,2.9c5-1.5,10.6-2.2,16.4-2.2c34,0,61.7,27.7,61.7,61.7c0,3.2,2,6.1,5.1,7.1c23.8,8.1,39.8,30.6,39.8,55.9
		c0,21.6-11.8,41.5-30.8,51.8c-0.2,0.1-0.3,0.2-0.5,0.2c-5.8,3.1-12.7,4.6-20.7,4.3c-31-1.2-151.3-0.9-190.4,0.1
		c-9.5,0.2-18.6-2.6-26.5-8.1L51.4,224.9z"/>
	<path class="st0" d="M458.4,362.2c-2.7-39.9-36-71.4-76.5-71.4c-5.4,0-10.6,0.5-15.6,1.6c-15.1-18.5-38-29.5-62.1-29.5
		c-0.1,0-0.1,0-0.2,0c-34.1,0-65.4,22.6-76.1,55c-3.5,10.6-4.8,21.5-3.8,32.4c-29.6,12.5-49,41.5-49,74.1
		c0,26.1,12.8,50.7,34.5,65.9c0.5,0.4,1.1,0.8,1.5,1.1c10.1,7,21.8,10.7,34,10.7h1.4c38.9-1,158.6-1.2,189.4-0.1
		c10.6,0.4,20.2-1.6,28.4-6.1c0.1-0.1,0.2-0.1,0.3-0.2c24-13,38.9-37.9,38.9-65.2C503.5,400.4,485.5,373.7,458.4,362.2L458.4,362.2z
		 M457.6,482.3c-0.2,0.1-0.3,0.2-0.4,0.2c-5.8,3.2-12.8,4.6-20.8,4.3c-31-1.2-151.3-0.9-190.4,0.1c-9.5,0.2-18.6-2.6-26.5-8.1
		l-1.6-1.2c-17.4-12.2-27.8-32.1-27.8-53.4c0-28.2,17.9-53.1,44.6-62c3.5-1.2,5.7-4.7,5-8.4c-1.8-10.6-0.9-21.1,2.5-31.4
		c8.7-26.3,34.1-44.7,61.8-44.7h0.1c21,0,40.9,10.2,53.1,27.4c1.9,2.6,5.2,3.7,8.3,2.9c5-1.5,10.6-2.2,16.4-2.2
		c34,0,61.7,27.7,61.7,61.7c0,3.2,2,6.1,5.1,7.1c23.8,8.1,39.8,30.6,39.8,55.9C488.4,452,476.6,471.9,457.6,482.3L457.6,482.3z"/>
	<path class="st0" d="M205.3,207.4h50.5c8.1,0,15.5-3.1,21-8.7c5.7-5.6,8.8-13,8.8-21.1c0-16.4-13.3-29.8-29.8-29.8h-50.5H89.6
		c-7.9,0-15.4,3.1-21.1,8.8c-5.6,5.7-8.6,13.1-8.6,21c0,16.4,13.3,29.8,29.7,29.8L205.3,207.4z M270.5,177.6c0,4-1.6,7.6-4.4,10.5
		c-2.7,2.8-6.4,4.3-10.3,4.3h-43v-29.5h43C263.9,162.9,270.5,169.5,270.5,177.6z M74.9,177.6c0-3.9,1.6-7.6,4.3-10.4
		c2.8-2.8,6.5-4.3,10.4-4.3h108.1v29.5H89.6C81.5,192.4,74.9,185.8,74.9,177.6z"/>
	<path class="st0" d="M420.3,406.3h-99.4h-66.8c-7.9,0-15.4,3.1-21.1,8.8c-5.6,5.7-8.6,13.1-8.6,21c0,16.4,13.3,29.8,29.7,29.8h66.8
		h99.4c8.1,0,15.5-3.1,21-8.7c5.7-5.6,8.8-13,8.8-21.1C450.1,419.6,436.8,406.3,420.3,406.3z M254.1,450.8
		c-8.1,0-14.7-6.6-14.7-14.7c0-3.9,1.6-7.6,4.3-10.4c2.8-2.8,6.5-4.3,10.4-4.3h59.3v29.5L254.1,450.8z M430.7,446.5
		c-2.7,2.8-6.4,4.3-10.3,4.3h-91.9v-29.5h91.8c8.1,0,14.7,6.6,14.7,14.7C435,440,433.6,443.7,430.7,446.5z"/>
	<path class="st0" d="M135.4,387.2c-2.9-2.9-7.7-2.9-10.6,0c-2.9,2.9-2.9,7.7,0,10.6l12.3,12.3h-23.8c-22.2,0-40.2-18-40.2-40.2
		v-54.3c0-4.2-3.3-7.5-7.5-7.5c-4.2,0-7.5,3.3-7.5,7.5v54.3c0,30.4,24.7,55.2,55.2,55.2h23.8l-12.3,12.3c-2.9,2.9-2.9,7.7,0,10.6
		c1.5,1.5,3.4,2.2,5.4,2.2s3.9-0.7,5.4-2.2l25.1-25.1c2.9-2.9,2.9-7.7,0-10.6L135.4,387.2z"/>
	<path class="st0" d="M396.3,131.6c1.5,1.5,3.4,2.2,5.4,2.2s3.9-0.7,5.4-2.2c2.9-2.9,2.9-7.7,0-10.6l-12.3-12.3h23.8
		c22.2,0,40.2,18,40.2,40.2v54.3c0,4.2,3.3,7.5,7.5,7.5c4.2,0,7.5-3.3,7.5-7.5v-54.3c0-30.4-24.7-55.2-55.2-55.2h-23.8L407,81.4
		c2.9-2.9,2.9-7.7,0-10.6c-2.9-2.9-7.7-2.9-10.6,0l-25.1,25.1c-2.9,2.9-2.9,7.7,0,10.6L396.3,131.6z"/>
</g>
</svg>
