<?xml version="1.0" encoding="utf-8"?>
<!-- Generator: Adobe Illustrator 24.3.0, SVG Export Plug-In . SVG Version: 6.00 Build 0)  -->
<svg version="1.1" id="Layer_1" xmlns="http://www.w3.org/2000/svg" xmlns:xlink="http://www.w3.org/1999/xlink" x="0px" y="0px"
	 viewBox="0 0 512 512" style="enable-background:new 0 0 512 512;" xml:space="preserve">
<style type="text/css">
	.st0{fill:#FFFFFF;}
</style>
<g>
	<g>
		<g>
			<circle class="st0" cx="482.9" cy="436.3" r="17"/>
		</g>
		<g>
			<circle class="st0" cx="476.3" cy="489.1" r="10.6"/>
		</g>
		<g>
			<circle class="st0" cx="447.5" cy="455.7" r="6.5"/>
		</g>
	</g>
	<g>
		<g>
			<circle class="st0" cx="29.1" cy="29.2" r="17"/>
		</g>
		<g>
			<circle class="st0" cx="35.7" cy="82" r="10.6"/>
		</g>
		<g>
			<circle class="st0" cx="64.5" cy="48.6" r="6.5"/>
		</g>
	</g>
	<g>
		<g>
			<g>
				<g>
					<path class="st0" d="M181.2,161.1c-1.4,0-2.8-0.6-3.8-1.7c-1.6-1.7-3.5-3.1-5.7-3.8c-2.6-1-4-3.9-3.1-6.5c1-2.6,3.9-4,6.5-3.1
						c3.7,1.3,7.1,3.6,9.8,6.6c1.9,2.1,1.7,5.3-0.4,7.2C183.7,160.6,182.5,161.1,181.2,161.1z"/>
				</g>
				<g>
					<path class="st0" d="M155.6,216c-14.7,0-26.7-12.5-26.7-27.8c0-10.6,5.9-20.2,14.9-24.9c3.6-12.6,16.3-20.7,28.1-18.3
						c7.6-7.1,17.7-11.2,28.2-11.2c22.8,0,41.3,18.5,41.3,41.3c0,20.8-15.6,38.3-36.4,40.8L155.6,216z M167.4,154.8
						c-6.8,0-12.8,5.5-14.2,13.1c-0.3,1.7-1.5,3.2-3.2,3.8c-6.5,2.5-10.9,9.2-10.9,16.5c0,9.7,7.4,17.6,16.5,17.6h48.8
						c15-1.8,26.8-15,26.8-30.7c0-17.1-13.9-31.1-31.1-31.1c-8.7,0-17.1,3.7-23,10.1c-1.4,1.5-3.6,2.1-5.5,1.3
						C170.4,155.1,168.9,154.8,167.4,154.8z"/>
				</g>
			</g>
			<g>
				<g>
					<path class="st0" d="M181.2,263.6c-1.4,0-2.8-0.6-3.8-1.7c-1.6-1.7-3.5-3.1-5.7-3.8c-2.6-1-4-3.9-3.1-6.5c1-2.6,3.9-4,6.5-3.1
						c3.7,1.3,7.1,3.6,9.8,6.6c1.9,2.1,1.7,5.3-0.4,7.2C183.7,263.2,182.5,263.6,181.2,263.6z"/>
				</g>
				<g>
					<path class="st0" d="M155.7,318.6c-14.7,0-26.7-12.5-26.7-27.8c0-10.6,5.9-20.2,14.9-24.9c3.6-12.5,16.1-20.7,28.1-18.3
						c7.6-7.1,17.7-11.2,28.2-11.2c22.8,0,41.3,18.5,41.3,41.2c0,20.8-15.6,38.3-36.4,40.8L155.7,318.6z M167.4,257.4
						c-6.8,0-12.8,5.5-14.2,13.1c-0.3,1.7-1.5,3.2-3.2,3.8c-6.5,2.5-10.9,9.2-10.9,16.5c0,9.7,7.4,17.6,16.5,17.6h48.9
						c15-1.8,26.8-15.1,26.8-30.7c0-17.1-13.9-31.1-31.1-31.1c-8.7,0-17.1,3.7-23,10.1c-1.4,1.5-3.6,2.1-5.5,1.4
						C170.4,257.6,168.9,257.4,167.4,257.4z"/>
				</g>
			</g>
			<g>
				<g>
					<path class="st0" d="M181.2,366.5c-1.4,0-2.8-0.6-3.8-1.7c-1.6-1.7-3.5-3.1-5.7-3.8c-2.6-0.9-4-3.9-3.1-6.5s3.9-4,6.5-3.1
						c3.7,1.3,7.1,3.6,9.8,6.6c1.9,2.1,1.7,5.3-0.4,7.2C183.7,366,182.5,366.5,181.2,366.5z"/>
				</g>
				<g>
					<path class="st0" d="M155.7,421.4c-14.7,0-26.7-12.5-26.7-27.8c0-10.6,5.9-20.2,14.9-24.9c3.6-12.6,16.1-20.6,28.1-18.3
						c7.6-7.1,17.7-11.2,28.2-11.2c22.8,0,41.3,18.5,41.3,41.3c0,20.8-15.6,38.3-36.4,40.8L155.7,421.4z M167.4,360.2
						c-6.8,0-12.8,5.5-14.2,13.1c-0.3,1.7-1.5,3.2-3.2,3.8c-6.5,2.5-10.9,9.2-10.9,16.5c0,9.7,7.4,17.6,16.5,17.6h48.9
						c15-1.8,26.8-15.1,26.8-30.7c0-17.1-13.9-31.1-31.1-31.1c-8.7,0-17.1,3.7-23,10.1c-1.4,1.5-3.6,2-5.5,1.4
						C170.4,360.5,168.9,360.2,167.4,360.2z"/>
				</g>
			</g>
		</g>
		<g>
			<path class="st0" d="M403.3,496.8H108.7c-17.9,0-32.5-14.6-32.5-32.7v-395c0-17.9,14.6-32.5,32.5-32.5h54.1
				c2.8,0,5.1,2.3,5.1,5.1c0,2.8-2.3,5.1-5.1,5.1h-54.1c-12.3,0-22.3,10-22.3,22.3v395c0,12.4,10,22.5,22.3,22.5h294.6
				c12.3,0,22.3-10.1,22.3-22.5V69.1c0-12.3-10-22.3-22.3-22.3h-53.5c-2.8,0-5.1-2.3-5.1-5.1c0-2.8,2.3-5.1,5.1-5.1h53.5
				c17.9,0,32.4,14.6,32.4,32.5v395.1C435.8,482.1,421.2,496.8,403.3,496.8z"/>
		</g>
		<g>
			<path class="st0" d="M325.8,97.3h-139c-16.1,0-29.3-13.1-29.3-29.3V44.2c0-16.1,13.1-29.3,29.3-29.3h139
				c16.1,0,29.3,13.1,29.3,29.3V68C355.1,84.2,342,97.3,325.8,97.3z M186.8,25.2c-10.5,0-19.1,8.6-19.1,19.1V68
				c0,10.5,8.6,19.1,19.1,19.1h139c10.5,0,19.1-8.6,19.1-19.1V44.2c0-10.5-8.6-19.1-19.1-19.1H186.8z"/>
		</g>
		<g>
			<path class="st0" d="M395.1,468H116.6c-6.7,0-12.1-5.3-12.1-11.9V77.9c0-6.7,5.4-12.1,12.1-12.1h46.3c2.8,0,5.1,2.3,5.1,5.1
				c0,2.8-2.3,5.1-5.1,5.1h-46.3c-1,0-2,0.9-2,2v378.1c0,1,0.9,1.7,2,1.7h278.5c1,0,1.7-0.7,1.7-1.7V77.9c0-1.1-0.8-2-1.7-2h-45.3
				c-2.8,0-5.1-2.3-5.1-5.1c0-2.8,2.3-5.1,5.1-5.1h45.3c6.6,0,11.9,5.4,11.9,12.1v378.1C407,462.7,401.8,468,395.1,468z"/>
		</g>
		<g>
			<g>
				<g>
					<path class="st0" d="M364,166.1h-98c-2.8,0-5.1-2.3-5.1-5.1c0-2.8,2.3-5.1,5.1-5.1h98c2.8,0,5.1,2.3,5.1,5.1
						C369.1,163.8,366.8,166.1,364,166.1z"/>
				</g>
				<g>
					<path class="st0" d="M364,194.1h-98c-2.8,0-5.1-2.3-5.1-5.1s2.3-5.1,5.1-5.1h98c2.8,0,5.1,2.3,5.1,5.1S366.8,194.1,364,194.1z"
						/>
				</g>
			</g>
			<g>
				<g>
					<path class="st0" d="M364,268.6h-98c-2.8,0-5.1-2.3-5.1-5.1s2.3-5.1,5.1-5.1h98c2.8,0,5.1,2.3,5.1,5.1S366.8,268.6,364,268.6z"
						/>
				</g>
				<g>
					<path class="st0" d="M364,296.6h-98c-2.8,0-5.1-2.3-5.1-5.1c0-2.8,2.3-5.1,5.1-5.1h98c2.8,0,5.1,2.3,5.1,5.1
						C369.1,294.3,366.8,296.6,364,296.6z"/>
				</g>
			</g>
			<g>
				<g>
					<path class="st0" d="M364,371.2h-98c-2.8,0-5.1-2.3-5.1-5.1c0-2.8,2.3-5.1,5.1-5.1h98c2.8,0,5.1,2.3,5.1,5.1
						C369.1,368.9,366.8,371.2,364,371.2z"/>
				</g>
				<g>
					<path class="st0" d="M364,399.2h-98c-2.8,0-5.1-2.3-5.1-5.1c0-2.8,2.3-5.1,5.1-5.1h98c2.8,0,5.1,2.3,5.1,5.1
						C369.1,396.9,366.8,399.2,364,399.2z"/>
				</g>
			</g>
		</g>
	</g>
</g>
</svg>
