<?xml version="1.0" encoding="iso-8859-1"?>
<!-- Generator: Adobe Illustrator 19.0.0, SVG Export Plug-In . SVG Version: 6.00 Build 0)  -->
<svg version="1.1" id="Layer_1" xmlns="http://www.w3.org/2000/svg" xmlns:xlink="http://www.w3.org/1999/xlink" x="0px" y="0px"
	 viewBox="0 0 512 512" style="enable-background:new 0 0 512 512;" xml:space="preserve">
<g id="XMLID_743_">
	<g id="XMLID_1702_">
		<path id="XMLID_1703_" style="fill:#069986;" d="M256,319.466c-17.517,0-31.733,14.216-31.733,31.733
			c0,8.187,3.173,15.93,8.885,21.832l-8.695,36.874c-0.444,1.904,0,3.871,1.206,5.395c1.206,1.523,3.046,2.412,4.95,2.412h50.773
			c1.967,0,3.745-0.889,4.95-2.412s1.65-3.491,1.206-5.395l-8.695-36.874c5.649-5.902,8.885-13.645,8.885-21.832
			C287.733,333.683,273.517,319.466,256,319.466z M265.647,372.334l7.679,32.685H238.61l7.679-32.685
			c0.571-2.412-0.317-4.887-2.221-6.41c-4.57-3.681-7.172-9.012-7.172-14.724c0-10.472,8.568-19.04,19.04-19.04
			c10.472,0,19.04,8.568,19.04,19.04c0,5.712-2.602,11.107-7.172,14.724c-1.904,1.523-2.729,3.998-2.221,6.41H265.647z
			 M421.013,363.893c-11.805,0-21.642,8.124-24.498,19.04h-7.235c-3.491,0-6.347-2.856-6.347-6.347v-50.773h6.347
			c34.97,0,63.466-28.496,63.466-63.466c0-25.64-15.295-48.488-38.588-58.389c0.317-2.729,0.508-5.522,0.508-8.251
			c0-36.747-29.893-66.64-66.64-66.64c-5.902,0-11.741,0.762-17.453,2.348c-7.806-41.634-44.046-72.161-87.266-72.161
			s-78.825,30.4-87.076,71.4c-30.273,6.474-52.55,33.701-52.55,65.053c0,1.967,0.127,3.998,0.317,6.029
			c-26.212,8.124-44.744,32.749-44.744,60.61c0,34.97,28.496,63.466,63.466,63.466v50.773c0,3.491-2.856,6.347-6.347,6.347h-7.235
			c-2.856-10.916-12.693-19.04-24.498-19.04c-14.026,0-25.387,11.361-25.387,25.387c0,14.026,11.36,25.387,25.387,25.387
			c11.805,0,21.642-8.124,24.498-19.04h7.235c10.472,0,19.04-8.568,19.04-19.04v-50.773H160.8v107.893
			c0,10.472,8.568,19.04,19.04,19.04H332.16c10.472,0,19.04-8.568,19.04-19.04V325.813h19.04v50.773
			c0,10.472,8.568,19.04,19.04,19.04h7.235c2.856,10.916,12.693,19.04,24.498,19.04c14.026,0,25.387-11.361,25.387-25.387
			C446.399,375.253,435.039,363.893,421.013,363.893z M84.641,401.973c-6.981,0-12.693-5.712-12.693-12.693
			c0-6.981,5.712-12.693,12.693-12.693s12.693,5.712,12.693,12.693C97.334,396.261,91.622,401.973,84.641,401.973z M338.506,433.706
			c0,3.491-2.856,6.347-6.347,6.347H179.84c-3.491,0-6.347-2.856-6.347-6.347V306.773c0-3.491,2.856-6.347,6.347-6.347H332.16
			c3.491,0,6.347,2.856,6.347,6.347V433.706z M300.427,287.733h-12.693v-44.426c0-17.517-14.216-31.733-31.733-31.733
			s-31.733,14.216-31.733,31.733v44.426h-12.693v-44.426c0-24.498,19.928-44.426,44.426-44.426s44.427,19.928,44.427,44.426V287.733
			z M236.96,287.733v-44.426c0-10.472,8.568-19.04,19.04-19.04c10.472,0,19.04,8.568,19.04,19.04v44.426H236.96z M332.16,287.733
			h-19.04v-44.426c0-31.479-25.64-57.12-57.12-57.12s-57.12,25.64-57.12,57.12v44.426h-19.04c-10.472,0-19.04,8.568-19.04,19.04
			v6.347h-38.08c-27.989,0-50.773-22.784-50.773-50.773c0-23.8,16.819-44.553,39.984-49.567c5.077-0.317,12.63,0.254,20.563,4.443
			c9.33,4.887,14.28,12.376,16.374,16.374c1.142,2.158,3.364,3.364,5.585,3.364c1.015,0,2.031-0.254,2.983-0.762
			c3.11-1.65,4.252-5.458,2.666-8.568c-2.793-5.331-9.393-15.168-21.706-21.706c-7.933-4.189-15.613-5.585-21.769-5.902
			c-0.127-1.46-0.19-2.919-0.19-4.379c0-26.656,19.865-49.567,46.267-53.312c2.793-0.381,5.014-2.602,5.395-5.395
			c5.458-37.128,37.826-65.053,75.271-65.053c39.286,0,71.907,29.448,75.779,68.544c0.19,1.967,1.333,3.745,3.046,4.823
			c1.714,1.015,3.808,1.206,5.648,0.444c6.537-2.666,13.328-3.998,20.246-3.998c29.766,0,53.946,24.181,53.946,53.946
			c0,3.681-0.381,7.426-1.142,11.107c-0.635,3.173,1.142,6.347,4.252,7.299c20.944,6.854,34.97,26.212,34.97,48.234
			c0,27.989-22.784,50.773-50.773,50.773h-38.08v-6.347c0-10.472-8.568-19.04-19.04-19.04L332.16,287.733z M421.013,401.973
			c-6.981,0-12.693-5.712-12.693-12.693c0-6.981,5.712-12.693,12.693-12.693c6.981,0,12.693,5.712,12.693,12.693
			C433.706,396.261,427.994,401.973,421.013,401.973z"/>
	</g>
</g>
</svg>
