<?xml version="1.0" encoding="iso-8859-1"?>
<!-- Generator: Adobe Illustrator 19.0.0, SVG Export Plug-In . SVG Version: 6.00 Build 0)  -->
<svg version="1.1" id="Layer_1" xmlns="http://www.w3.org/2000/svg" xmlns:xlink="http://www.w3.org/1999/xlink" x="0px" y="0px"
	 viewBox="0 0 512 512" style="enable-background:new 0 0 512 512;" xml:space="preserve">
<g id="XMLID_615_">
	<g id="XMLID_1840_">
		<path id="XMLID_1866_" style="fill:#069986;" d="M118.399,366.081c0-15.205-12.315-27.52-27.52-27.52s-27.52,12.315-27.52,27.52
			c0,15.205,12.315,27.52,27.52,27.52S118.399,381.286,118.399,366.081z M90.879,379.841c-7.568,0-13.76-6.192-13.76-13.76
			c0-7.568,6.192-13.76,13.76-13.76c7.568,0,13.76,6.192,13.76,13.76C104.639,373.649,98.447,379.841,90.879,379.841z"/>
		<path id="XMLID_1863_" style="fill:#069986;" d="M132.159,455.521v-41.28c0-11.352-9.288-20.64-20.64-20.64h-41.28
			c-11.352,0-20.64,9.288-20.64,20.64v41.28c0,3.784,3.096,6.88,6.88,6.88h68.8C129.063,462.401,132.159,459.305,132.159,455.521z
			 M118.399,448.641h-55.04v-34.4c0-3.784,3.096-6.88,6.88-6.88h41.28c3.784,0,6.88,3.096,6.88,6.88V448.641z"/>
		<path id="XMLID_1860_" style="fill:#069986;" d="M283.52,366.081c0-15.205-12.315-27.52-27.52-27.52
			c-15.205,0-27.52,12.315-27.52,27.52c0,15.205,12.315,27.52,27.52,27.52C271.205,393.601,283.52,381.286,283.52,366.081z
			 M256,379.841c-7.568,0-13.76-6.192-13.76-13.76c0-7.568,6.192-13.76,13.76-13.76c7.568,0,13.76,6.192,13.76,13.76
			C269.76,373.649,263.568,379.841,256,379.841z"/>
		<path id="XMLID_1857_" style="fill:#069986;" d="M214.72,414.241v41.28c0,3.784,3.096,6.88,6.88,6.88h68.8
			c3.784,0,6.88-3.096,6.88-6.88v-41.28c0-11.352-9.288-20.64-20.64-20.64h-41.28C224.008,393.601,214.72,402.889,214.72,414.241z
			 M276.64,407.361c3.784,0,6.88,3.096,6.88,6.88v34.4h-55.04v-34.4c0-3.784,3.096-6.88,6.88-6.88H276.64z"/>
		<path id="XMLID_1854_" style="fill:#069986;" d="M448.641,366.081c0-15.205-12.315-27.52-27.52-27.52
			c-15.205,0-27.52,12.315-27.52,27.52c0,15.205,12.315,27.52,27.52,27.52C436.326,393.601,448.641,381.286,448.641,366.081z
			 M421.121,379.841c-7.568,0-13.76-6.192-13.76-13.76c0-7.568,6.192-13.76,13.76-13.76c7.568,0,13.76,6.192,13.76,13.76
			C434.881,373.649,428.689,379.841,421.121,379.841z"/>
		<path id="XMLID_1851_" style="fill:#069986;" d="M441.761,393.601h-41.28c-11.352,0-20.64,9.288-20.64,20.64v41.28
			c0,3.784,3.096,6.88,6.88,6.88h68.8c3.784,0,6.88-3.096,6.88-6.88v-41.28C462.401,402.889,453.113,393.601,441.761,393.601z
			 M448.641,448.641h-55.04v-34.4c0-3.784,3.096-6.88,6.88-6.88h41.28c3.784,0,6.88,3.096,6.88,6.88V448.641z"/>
		<path id="XMLID_1850_" style="fill:#069986;" d="M379.566,118.743c-3.302-38.666-35.845-69.144-75.405-69.144
			c-28.552,0-54.696,16.375-67.493,41.555c-8.875-4.678-18.714-7.155-28.827-7.155c-23.805,0-45.064,13.347-55.453,34.4h-13.347
			c-34.125,0-61.92,27.795-61.92,61.92s27.795,61.92,61.92,61.92h27.52v-13.76h-27.52c-26.557,0-48.16-21.603-48.16-48.16
			s21.603-48.16,48.16-48.16h17.819c2.821,0,5.366-1.72,6.398-4.334c7.362-18.301,24.837-30.066,44.583-30.066
			c10.045,0,19.677,3.096,27.933,9.013c1.72,1.238,3.922,1.582,5.986,0.963c2.064-0.619,3.646-2.133,4.403-4.128
			c9.082-24.08,32.405-40.179,57.93-40.179c34.125,0,61.92,27.795,61.92,61.92c0,3.784,3.096,6.88,6.88,6.88
			c26.557,0,48.16,21.603,48.16,48.16s-21.603,48.16-48.16,48.16h-27.52v13.76h27.52c34.125,0,61.92-27.795,61.92-61.92
			c0-31.923-24.287-58.274-55.316-61.576L379.566,118.743z"/>
		<path id="XMLID_1849_" style="fill:#069986;" d="M352.321,125.279c0-26.557-21.603-48.16-48.16-48.16v13.76
			c18.989,0,34.4,15.411,34.4,34.4H352.321z"/>
		<path id="XMLID_1848_" style="fill:#069986;" d="M331.68,249.12c0-41.762-33.919-75.68-75.68-75.68s-75.68,33.919-75.68,75.68
			c0,33.162,21.259,62.196,52.976,72.172l4.128-13.141c-25.938-8.187-43.344-31.923-43.344-59.1c0-34.125,27.795-61.92,61.92-61.92
			s61.92,27.795,61.92,61.92c0,27.176-17.406,50.912-43.344,59.1l4.128,13.141C310.421,311.315,331.68,282.282,331.68,249.12z"/>
		<path id="XMLID_1847_" style="fill:#069986;" d="M263.499,324.456l-1.238-13.691c-4.128,0.344-8.394,0.344-12.522,0l-1.238,13.691
			c2.477,0.206,4.954,0.344,7.499,0.344S261.022,324.663,263.499,324.456z"/>
		<path id="XMLID_1846_" style="fill:#069986;" d="M262.88,269.76v-41.28l8.256,11.008l11.008-8.256l-20.64-27.52
			c-1.307-1.72-3.371-2.752-5.504-2.752c-2.133,0-4.197,1.032-5.504,2.752l-20.64,27.52l11.008,8.256l8.256-11.008v41.28H262.88z"/>
		<path id="XMLID_1845_" style="fill:#069986;" d="M83.999,311.04h13.76v13.76h-13.76V311.04z"/>
		<path id="XMLID_1844_" style="fill:#069986;" d="M97.759,276.64h68.8v-13.76h-75.68c-3.784,0-6.88,3.096-6.88,6.88v27.52h13.76
			V276.64z"/>
		<path id="XMLID_1843_" style="fill:#069986;" d="M414.241,311.04h13.76v13.76h-13.76V311.04z"/>
		<path id="XMLID_1842_" style="fill:#069986;" d="M428.001,269.76c0-3.784-3.096-6.88-6.88-6.88h-75.68v13.76h68.8v20.64h13.76
			V269.76z"/>
		<path id="XMLID_1841_" style="fill:#069986;" d="M228.48,283.52h55.04v13.76h-55.04V283.52z"/>
	</g>
</g>
</svg>
