<svg id="Layer_1" data-name="Layer 1" xmlns="http://www.w3.org/2000/svg" viewBox="0 0 512 512"><defs><style>.cls-1{fill:#069986;}.cls-2{fill:#fff;}</style></defs><path class="cls-1" d="M118.34,0H512a0,0,0,0,1,0,0V393.66A118.34,118.34,0,0,1,393.66,512H0a0,0,0,0,1,0,0V118.34A118.34,118.34,0,0,1,118.34,0Z"/><path class="cls-2" d="M244.7,80.65A157.71,157.71,0,0,0,127.58,344.14l-20.45,55.43a5.84,5.84,0,0,0,7.7,7.43l62.68-25.79a156.67,156.67,0,0,0,105.38,10.4,72.19,72.19,0,0,0-2.48,18.44v15.46a5.85,5.85,0,0,0,5.85,5.84h133a5.85,5.85,0,0,0,5.85-5.84V410.06a72.43,72.43,0,0,0-47.42-67.83,47.22,47.22,0,0,0,18.43-59.34A157.75,157.75,0,0,0,244.7,80.65Zm0,304a145.36,145.36,0,0,1-64.47-15.1,5.8,5.8,0,0,0-4.79-.16l-52.76,21.7,17.11-46.27a5.84,5.84,0,0,0-1.23-6,146.13,146.13,0,1,1,248.92-69.05,47.4,47.4,0,0,0-24.42-14,120,120,0,1,0-45.66,77.71,47.38,47.38,0,0,0,10.45,8.8A72.64,72.64,0,0,0,288,378,145.25,145.25,0,0,1,244.7,384.67Zm66-60.87a109.18,109.18,0,1,1,40.68-69.18,47.31,47.31,0,0,0-40.68,69.18Zm102.72,86.26v9.6H292.12v-9.6a60.67,60.67,0,0,1,121.34,0Zm-60.67-72.35A35.73,35.73,0,1,1,388.52,302h0A35.78,35.78,0,0,1,352.79,337.71Z"/><path class="cls-2" d="M306.42,192.84a38.57,38.57,0,0,0-54.32,0l-7.36,7.4-7.45-7.37a38,38,0,0,0-27.06-11.24h0a38.08,38.08,0,0,0-26.5,10.66,7.56,7.56,0,0,0-.69.58,38.52,38.52,0,0,0,0,54.3l57.63,57.59a5.85,5.85,0,0,0,8.27,0l57.54-57.59a37.19,37.19,0,0,0,7.24-10.08,38.46,38.46,0,0,0,4-17.07,35.41,35.41,0,0,0-.43-5.44A38,38,0,0,0,306.42,192.84Zm-3.24,39.08a26,26,0,0,1-5,7l-53.41,53.46-53.49-53.45a26.13,26.13,0,0,1-5-7,26.49,26.49,0,0,1-2.42-15.72,26.08,26.08,0,0,1,7-14.56,4,4,0,0,0,.58-.51,26.52,26.52,0,0,1,18.87-7.81h0A26.4,26.4,0,0,1,229,201.14l11.57,11.54a5.84,5.84,0,0,0,4.13,1.7h0a5.84,5.84,0,0,0,4.13-1.72l11.48-11.53a26.84,26.84,0,0,1,37.77,0,26.54,26.54,0,0,1,7.53,15.2A22.93,22.93,0,0,1,306,220,26.64,26.64,0,0,1,303.18,231.92Z"/><path class="cls-2" d="M170.34,277.14a98.89,98.89,0,0,1-10.68-33.84,5.85,5.85,0,0,0-11.6,1.48A110.61,110.61,0,0,0,160,282.61,112,112,0,0,0,192.25,320a5.85,5.85,0,0,0,7.24-9.18l-.29-.22A100.22,100.22,0,0,1,170.34,277.14Z"/><path class="cls-2" d="M220.93,322.11a4.08,4.08,0,0,0-.94-.71,4.2,4.2,0,0,0-2.11-.87,4.84,4.84,0,0,0-2.27,0,6.27,6.27,0,0,0-1.05.29,8.43,8.43,0,0,0-1.06.59,4.94,4.94,0,0,0-.87.7A5.79,5.79,0,0,0,211.4,324a5.45,5.45,0,0,0-.47,2.28,4.85,4.85,0,0,0,.47,2.22,5.58,5.58,0,0,0,1.23,1.87,5.85,5.85,0,0,0,4.15,1.76,5.68,5.68,0,0,0,2.22-.48,5.81,5.81,0,0,0,1.93-1.28,5.89,5.89,0,0,0,1.23-1.88,5,5,0,0,0,.46-2.21,5.23,5.23,0,0,0-.46-2.28A5.74,5.74,0,0,0,220.93,322.11Z"/></svg>