<svg id="Layer_1" data-name="Layer 1" xmlns="http://www.w3.org/2000/svg" viewBox="0 0 512 512"><defs><style>.cls-1{fill:#069986;}.cls-2{fill:#fff;}</style></defs><path class="cls-1" d="M118.34,0H512a0,0,0,0,1,0,0V393.66A118.34,118.34,0,0,1,393.66,512H0a0,0,0,0,1,0,0V118.34A118.34,118.34,0,0,1,118.34,0Z"/><g id="Idea-Innovation-Stat-Analytics-Web"><path class="cls-2" d="M325.75,223.57a5,5,0,0,1-5-5h-10a15.05,15.05,0,0,0,10,14.13v21h10v-21a15.06,15.06,0,0,0,10-14.13h-10A5,5,0,0,1,325.75,223.57Z"/><path class="cls-2" d="M135.1,173.4h10v10h-10Z"/><path class="cls-2" d="M155.16,173.4h10v10h-10Z"/><path class="cls-2" d="M175.23,173.4h10v10h-10Z"/><path class="cls-2" d="M385.51,123.68a25.08,25.08,0,0,0-24.63-20.52H130.08A25.08,25.08,0,0,0,105,128.24V339a25.08,25.08,0,0,0,20.52,24.63,25.11,25.11,0,0,0,24.64,20.53h144.5l13,22.57,8.68-5-18.71-32.42a5.06,5.06,0,0,1,1.85-6.87,5,5,0,0,1,6.79,1.8l0,.06,10,17.36A5.15,5.15,0,0,0,322,384a5,5,0,0,0,3.71-4.87V318.9a5,5,0,0,1,10,0v45.16a5,5,0,0,0,10,0V349a5.39,5.39,0,0,1,5-5,5,5,0,0,1,5,5v15.06a5,5,0,0,0,10,0V354a5,5,0,1,1,10,0v15.05a5,5,0,1,0,10,0V359a5,5,0,1,1,10,0v45.15h10V148.31A25.07,25.07,0,0,0,385.51,123.68ZM150.15,374.09a15.09,15.09,0,0,1-14.15-10H287.27a15,15,0,0,0,1.61,10ZM375.93,339c0,.3-.1.6-.1.95a14.53,14.53,0,0,0-4.92-.95,14.72,14.72,0,0,0-7.38,2,15,15,0,0,0-12.69-7,14.12,14.12,0,0,0-5,1v-16a15,15,0,0,0-30.1,0V354H309.9a15,15,0,0,0-15.4-.3l-.46.3h-164A15.09,15.09,0,0,1,115,339V153.33h260.9Zm0-195.68H115v-15a15.09,15.09,0,0,1,15.05-15.05h230.8a15.1,15.1,0,0,1,15.05,15.05ZM396,344.89a14.09,14.09,0,0,0-10.89.4A24.07,24.07,0,0,0,386,339V134.16a15.12,15.12,0,0,1,10,14.15Z"/><path class="cls-2" d="M353.5,247.5a40.13,40.13,0,0,0-28.45-69.08,40.58,40.58,0,0,0-39.38,38.68,40,40,0,0,0,11.94,30.05,25.82,25.82,0,0,1,7.87,16.56h-9.83v10h10v10a10.06,10.06,0,0,0,10,10h20.07a10.05,10.05,0,0,0,10-10v-10h10v-10H346a25.17,25.17,0,0,1,7.48-16.21Zm-17.71,36.28H315.72v-10h20.07Zm0-20.07H315.67a35.86,35.86,0,0,0-11-23.73,30.08,30.08,0,0,1,22.26-51.51,30.06,30.06,0,0,1,29,30.08,29.8,29.8,0,0,1-9.28,21.68A35.19,35.19,0,0,0,335.84,263.71Z"/><path class="cls-2" d="M265.55,323.92V218.55a5,5,0,0,0-5-5H240.46a5,5,0,0,0-5,5V323.92h-10v-85.3a5,5,0,0,0-5-5H200.32a5,5,0,0,0-5,5v85.3h-10V268.73a5,5,0,0,0-5-5H160.18a5,5,0,0,0-5,5v55.19h-10V208.52h-10V328.93a5,5,0,0,0,5,5H275.58v-10Zm-90.32,0h-10V273.74h10Zm40.14,0h-10V243.64h10Zm40.14,0h-10V223.57h10Z"/><path class="cls-2" d="M125.06,123.22h10v10h-10Z"/><path class="cls-2" d="M145.13,123.22h10v10h-10Z"/><path class="cls-2" d="M165.2,123.22h10v10h-10Z"/></g></svg>