<svg id="Layer_1" data-name="Layer 1" xmlns="http://www.w3.org/2000/svg" viewBox="0 0 512 512"><defs><style>.cls-1{fill:#069986;}.cls-2{fill:#fff;}</style></defs><path class="cls-1" d="M118.34,0H512a0,0,0,0,1,0,0V393.66A118.34,118.34,0,0,1,393.66,512H0a0,0,0,0,1,0,0V118.34A118.34,118.34,0,0,1,118.34,0Z"/><path class="cls-2" d="M215.48,361.11H186.16a8.63,8.63,0,0,0-8.62,8.63v45.83a8.63,8.63,0,0,0,8.62,8.63h29.32a8.63,8.63,0,0,0,8.62-8.63V369.74A8.63,8.63,0,0,0,215.48,361.11Zm.26,54.46a.26.26,0,0,1-.26.26H186.16a.26.26,0,0,1-.26-.26V369.74a.26.26,0,0,1,.26-.26h29.32a.26.26,0,0,1,.26.26ZM279,327.8H249.7a8.65,8.65,0,0,0-8.63,8.65v80.13a8.65,8.65,0,0,0,8.63,8.64H279a8.64,8.64,0,0,0,8.62-8.64V336.45A8.65,8.65,0,0,0,279,327.8Zm.25,88.78a.27.27,0,0,1-.25.27H249.7a.27.27,0,0,1-.26-.27V336.45a.28.28,0,0,1,.26-.28H279a.28.28,0,0,1,.25.28Zm63.29-122.06H313.23a8.63,8.63,0,0,0-8.62,8.62V417.61a8.63,8.63,0,0,0,8.62,8.62h29.33a8.63,8.63,0,0,0,8.62-8.62V303.14A8.63,8.63,0,0,0,342.56,294.52Zm.25,123.09a.26.26,0,0,1-.25.25H313.23a.26.26,0,0,1-.25-.25V303.14a.26.26,0,0,1,.25-.26h29.33a.26.26,0,0,1,.25.26Zm63.28-156.4h-29.3a8.64,8.64,0,0,0-8.64,8.64V418.61a8.64,8.64,0,0,0,8.64,8.64h29.3a8.64,8.64,0,0,0,8.63-8.64V269.85a8.64,8.64,0,0,0-8.63-8.64Zm.26,157.4a.29.29,0,0,1-.26.28h-29.3a.3.3,0,0,1-.28-.28V269.85a.29.29,0,0,1,.28-.28h29.3a.28.28,0,0,1,.26.28ZM115.62,356.34a4.18,4.18,0,0,1-2-7.86L399.3,193.82l-37.05-9.93a4.18,4.18,0,1,1,2.17-8.08l47.2,12.65.05,0,.21.07.19.06.17.08.2.09.16.09.2.11.15.11.18.13.15.13.15.13.15.16.13.14a1.83,1.83,0,0,0,.13.16l.12.17a1.3,1.3,0,0,1,.1.15,2.12,2.12,0,0,1,.12.2l0,0,.06.12.1.2c0,.06.05.12.07.19a1.46,1.46,0,0,1,.07.19l.06.2.05.2c0,.06,0,.13,0,.2l0,.2c0,.07,0,.14,0,.21a1.27,1.27,0,0,1,0,.2v.2a1.48,1.48,0,0,1,0,.21,1.49,1.49,0,0,1,0,.21l0,.19a1.89,1.89,0,0,1,0,.23.53.53,0,0,1,0,.12l-12.64,47.2a4.18,4.18,0,0,1-4,3.1,4.13,4.13,0,0,1-1.09-.14,4.19,4.19,0,0,1-3-5.12L404,200.81l-286.37,155a4.12,4.12,0,0,1-2,.51ZM186.85,180.6,198,183.13a60.87,60.87,0,0,0,3.94,9.49l-6.11,9.69c-3.14,5-2.92,10.25.58,13.75l8.79,8.79c3.53,3.5,8.8,3.71,13.74.58l9.71-6.11a61.27,61.27,0,0,0,9.49,3.94l2.53,11.17c1.3,5.73,5.18,9.3,10.14,9.3h12.41c5,0,8.85-3.57,10.14-9.3l2.54-11.17a61.57,61.57,0,0,0,9.48-3.94l9.7,6.1c5,3.14,10.23,2.92,13.76-.58l8.78-8.78c3.5-3.5,3.72-8.76.58-13.75l-6.11-9.69a61.28,61.28,0,0,0,3.93-9.48l11.18-2.54c5.74-1.32,9.31-5.21,9.31-10.14V158c0-4.93-3.57-8.81-9.32-10.14L316,145.36a60.31,60.31,0,0,0-3.94-9.49l6.11-9.69c3.14-5,2.92-10.25-.58-13.75l-8.78-8.78c-3.51-3.51-8.78-3.73-13.75-.58l-9.71,6.1a62.58,62.58,0,0,0-9.48-3.94l-2.54-11.16c-1.3-5.75-5.18-9.32-10.14-9.32H250.82c-5,0-8.84,3.57-10.14,9.31l-2.53,11.17a62.27,62.27,0,0,0-9.49,3.94l-9.7-6.09c-5-3.16-10.25-2.94-13.76.57l-8.78,8.78c-3.49,3.5-3.72,8.77-.58,13.76l6.11,9.68a61.73,61.73,0,0,0-3.93,9.49l-11.18,2.54c-5.74,1.32-9.31,5.2-9.31,10.13v12.43c0,4.93,3.57,8.82,9.32,10.14ZM185.9,158c0-1.27,2.35-1.87,2.8-2L202.26,153a4.19,4.19,0,0,0,3.11-3,52.85,52.85,0,0,1,5.06-12.21,4.19,4.19,0,0,0-.09-4.31l-7.42-11.76c-.16-.24-1.5-2.45-.58-3.37l8.78-8.78c.91-.91,3,.32,3.38.58l11.78,7.4a4.18,4.18,0,0,0,4.29.1,53.5,53.5,0,0,1,12.23-5.08,4.16,4.16,0,0,0,3-3.1l3.08-13.56c.07-.29.67-2.8,2-2.8h12.41c1.31,0,1.91,2.51,2,2.8l3.08,13.56a4.17,4.17,0,0,0,3,3.1,53.61,53.61,0,0,1,12.22,5.08,4.2,4.2,0,0,0,4.29-.1l11.8-7.41c.4-.25,2.46-1.48,3.37-.57l8.78,8.78c.92.92-.43,3.13-.58,3.37l-7.42,11.76a4.19,4.19,0,0,0-.1,4.31,51.91,51.91,0,0,1,5.06,12.2,4.18,4.18,0,0,0,3.11,3l13.55,3.08c.47.11,2.81.71,2.81,2v12.43c0,1.3-2.52,1.92-2.8,2l-13.56,3.08a4.17,4.17,0,0,0-3.1,3,53.36,53.36,0,0,1-5.07,12.22,4.18,4.18,0,0,0,.1,4.3l7.41,11.76c.16.25,1.51,2.45.59,3.37L303,218.91c-.93.92-3-.3-3.4-.57l-11.78-7.4a4.2,4.2,0,0,0-4.29-.1,53.61,53.61,0,0,1-12.22,5.08,4.17,4.17,0,0,0-3,3.1l-3.08,13.56c-.11.47-.69,2.78-2,2.78H250.82c-1.28,0-1.87-2.31-2-2.78L245.76,219a4.16,4.16,0,0,0-3-3.1,53.5,53.5,0,0,1-12.23-5.08,4.21,4.21,0,0,0-2.07-.54,4.14,4.14,0,0,0-2.22.64l-11.8,7.41c-.4.25-2.45,1.48-3.36.57l-8.78-8.78c-.92-.92.42-3.13.58-3.37L210.34,195a4.19,4.19,0,0,0,.09-4.31,51.91,51.91,0,0,1-5.06-12.2,4.18,4.18,0,0,0-3.11-3l-13.54-3.08c-.29-.06-2.82-.68-2.82-2V158ZM257,206.33A42.09,42.09,0,1,0,215,164.25,42.14,42.14,0,0,0,257,206.33Zm0-75.81a33.73,33.73,0,1,1-33.73,33.73A33.76,33.76,0,0,1,257,130.52Zm-4.19,37.17v8.69a5.34,5.34,0,0,1-3-2.77,4.18,4.18,0,1,0-7.9,2.74c1.53,4.4,5.71,7.64,10.95,8.78v3.5a4.19,4.19,0,1,0,8.37,0v-3.5c6.73-1.45,11.54-6.34,11.54-12.32,0-8.23-6.06-10.78-11.54-12v-8.66A5.37,5.37,0,0,1,264.3,155a4.19,4.19,0,0,0,8-2.57c-1.45-4.46-5.73-7.84-11-9v-3.52a4.19,4.19,0,1,0-8.37,0v3.5c-6.73,1.45-11.56,6.34-11.56,12.32,0,8.23,6.08,10.78,11.56,12Zm11.55,5.12c0,1.3-1.23,2.69-3.18,3.55v-6.92C263.9,170.25,264.4,171.16,264.4,172.81Zm-11.55-20.69v6.93c-2.7-.82-3.19-1.72-3.19-3.37C249.66,154.38,250.89,153,252.85,152.12ZM209.07,252.28l-99.77,54a4.18,4.18,0,0,1-4-7.36l99.76-54a4.19,4.19,0,0,1,4,7.36Zm-105.61-.59a4.18,4.18,0,0,1-4-7.36l71-38.46a4.19,4.19,0,0,1,4,7.36Zm-5.67-64.6a4.18,4.18,0,0,1,1.69-5.67l64.3-34.82a4.18,4.18,0,0,1,4,7.35l-64.31,34.83a4.17,4.17,0,0,1-5.67-1.69Zm55.42,201.37H121.36a7.38,7.38,0,0,0-7.36,7.38v21a7.37,7.37,0,0,0,7.36,7.36h31.85a7.38,7.38,0,0,0,7.36-7.36v-21A7.38,7.38,0,0,0,153.21,388.46Zm-1,27.37H122.37v-19H152.2Z"/></svg>