<svg id="Layer_1" data-name="Layer 1" xmlns="http://www.w3.org/2000/svg" viewBox="0 0 512 512"><defs><style>.cls-1{fill:#069986;}.cls-2{fill:#fff;}</style></defs><path class="cls-1" d="M118.34,0H512a0,0,0,0,1,0,0V393.66A118.34,118.34,0,0,1,393.66,512H0a0,0,0,0,1,0,0V118.34A118.34,118.34,0,0,1,118.34,0Z"/><g id="Layer_15" data-name="Layer 15"><path class="cls-2" d="M183.05,376.58a21,21,0,1,0-21-21A21,21,0,0,0,183.05,376.58Zm0-31.45a10.49,10.49,0,1,1-10.49,10.48A10.48,10.48,0,0,1,183.05,345.13Z"/><path class="cls-2" d="M366.53,282.22H314.11a21,21,0,0,0-21,21v94.36a21,21,0,0,0,21,21h52.42a21,21,0,0,0,21-21V303.19A21,21,0,0,0,366.53,282.22ZM377,397.55A10.49,10.49,0,0,1,366.53,408H314.11a10.49,10.49,0,0,1-10.49-10.49V303.19a10.49,10.49,0,0,1,10.49-10.49h52.42A10.49,10.49,0,0,1,377,303.19Z"/><path class="cls-2" d="M357.66,330.71l-6.94,7.86a15.73,15.73,0,1,1-22.2,1.4,18.49,18.49,0,0,1,1.4-1.4L323,330.71A26.21,26.21,0,1,0,360,333,26.73,26.73,0,0,0,357.66,330.71Z"/><rect class="cls-2" x="335.08" y="324.16" width="10.49" height="20.97"/><path class="cls-2" d="M325,256a15.73,15.73,0,1,0,15.72-15.72A15.72,15.72,0,0,0,325,256Zm21,0a5.25,5.25,0,1,1-5.25-5.24A5.25,5.25,0,0,1,345.94,256Z"/><path class="cls-2" d="M366.07,230.07a36.19,36.19,0,0,0-51.16-.33l-.34.33,7.45,7.38a25.69,25.69,0,0,1,36.33-.26l.27.26Z"/><path class="cls-2" d="M380.74,215.24a56.77,56.77,0,0,0-80.28-.55l-.56.55,7.45,7.38a46.29,46.29,0,0,1,65.47-.47l.48.47Z"/><path class="cls-2" d="M183.05,214.06a15.73,15.73,0,1,0,15.72,15.73A15.73,15.73,0,0,0,183.05,214.06Zm0,21a5.24,5.24,0,1,1,5.24-5.24A5.24,5.24,0,0,1,183.05,235Z"/><path class="cls-2" d="M277.41,114.46a15.73,15.73,0,1,0,15.73,15.72A15.72,15.72,0,0,0,277.41,114.46Zm0,21a5.25,5.25,0,1,1,5.24-5.25A5.25,5.25,0,0,1,277.41,135.43Z"/><path class="cls-2" d="M384.88,104h15.55l8.91,13.4,8.72-5.82L407.58,95.82a5.24,5.24,0,0,0-4.35-2.33h-21a5.23,5.23,0,0,0-4.19,2.09l-14,18.65-56.34-4.69a36.65,36.65,0,0,0-66.9,18.35L174.62,194.1a36.64,36.64,0,0,0-17.79,61.33v58.24h-4.19a36.87,36.87,0,0,0-36.33,31.51l-6,42.44A21,21,0,0,0,93.92,408v5.24a5.24,5.24,0,0,0,5.24,5.24H266.93a5.24,5.24,0,0,0,5.24-5.24V408a21,21,0,0,0-16.35-20.45l-6.06-42.41a36.88,36.88,0,0,0-36.31-31.51h-4.19V255.43a36.58,36.58,0,0,0,10.48-25.64c0-1-.07-1.95-.14-2.92l60.1-60.1a36.74,36.74,0,0,0,28-15.94l56.34-4.72,14,18.67a5.24,5.24,0,0,0,4.19,2.1h21a5.23,5.23,0,0,0,4.36-2.33l10.49-15.73L409.35,143l-8.93,13.4H384.88l-13.1-17.48V121.45ZM261.68,408H104.41a10.49,10.49,0,0,1,10.48-10.49H251.2A10.49,10.49,0,0,1,261.68,408Zm-22.3-61.38,5.77,40.41H120.94l5.76-40.41a26.34,26.34,0,0,1,25.94-22.5h60.81A26.33,26.33,0,0,1,239.38,346.66Zm-72.06-33V262.9a36.21,36.21,0,0,0,31.45,0v50.77ZM183.05,256a26.21,26.21,0,1,1,26.21-26.21A26.21,26.21,0,0,1,183.05,256Zm6.76-62.26,52.58-52.58a36.87,36.87,0,0,0,24,24L216.63,215A36.82,36.82,0,0,0,189.81,193.74Zm87.6-37.34a26.22,26.22,0,1,1,26.21-26.22A26.21,26.21,0,0,1,277.41,156.4Zm83.88-20.55-48.52,4a35.91,35.91,0,0,0,0-19.4l48.52,4Z"/></g></svg>