<svg id="Layer_1" data-name="Layer 1" xmlns="http://www.w3.org/2000/svg" viewBox="0 0 512 512"><defs><style>.cls-1{fill:#069986;}.cls-2{fill:#fff;}</style></defs><path class="cls-1" d="M118.34,0H512a0,0,0,0,1,0,0V393.66A118.34,118.34,0,0,1,393.66,512H0a0,0,0,0,1,0,0V118.34A118.34,118.34,0,0,1,118.34,0Z"/><path class="cls-2" d="M277.16,120.51l-9-6.44-16,22.44-8.84-8.74-7.8,7.89L248.93,149a5.55,5.55,0,0,0,3.9,1.6,3.62,3.62,0,0,0,.47,0,5.53,5.53,0,0,0,4.05-2.3Z"/><path class="cls-2" d="M300.39,133.94A44.39,44.39,0,1,0,256,178.32,44.44,44.44,0,0,0,300.39,133.94Zm-77.68,0A33.29,33.29,0,1,1,256,167.23,33.32,33.32,0,0,1,222.71,133.94Z"/><path class="cls-2" d="M130.77,150.58a3.77,3.77,0,0,0,.47,0,5.51,5.51,0,0,0,4-2.3l19.82-27.75-9-6.44-16,22.44-8.84-8.74-7.8,7.89L126.87,149A5.53,5.53,0,0,0,130.77,150.58Z"/><path class="cls-2" d="M133.94,178.32a44.39,44.39,0,1,0-44.39-44.38A44.43,44.43,0,0,0,133.94,178.32Zm0-77.67a33.29,33.29,0,1,1-33.29,33.29A33.32,33.32,0,0,1,133.94,100.65Z"/><path class="cls-2" d="M374.16,136.51l-8.84-8.74-7.8,7.89L371,149a5.53,5.53,0,0,0,3.9,1.6,3.77,3.77,0,0,0,.47,0,5.51,5.51,0,0,0,4-2.3l19.82-27.75-9-6.44Z"/><path class="cls-2" d="M378.06,89.55a44.39,44.39,0,1,0,44.39,44.39A44.43,44.43,0,0,0,378.06,89.55Zm0,77.68a33.29,33.29,0,1,1,33.29-33.29A33.32,33.32,0,0,1,378.06,167.23Z"/><path class="cls-2" d="M233.81,317h44.38v11.1H233.81Z"/><path class="cls-2" d="M233.81,339.23h44.38v11.09H233.81Z"/><path class="cls-2" d="M233.81,361.42h44.38v11.1H233.81Z"/><path class="cls-2" d="M372.52,200.52h-111v-11.1h-11.1v11.1h-111v-11.1H128.39v16.64a5.54,5.54,0,0,0,5.55,5.55H250.45V244.9h11.1V211.61H378.06a5.54,5.54,0,0,0,5.55-5.55V189.42H372.52Z"/><path class="cls-2" d="M367,416.9V328.13a5.57,5.57,0,0,0-3.07-5l-33.29-16.64a5.57,5.57,0,0,0-5,0l-25.25,12.63V300.39a5.54,5.54,0,0,0-5.55-5.55h-11.1V278.19a5.54,5.54,0,0,0-5.55-5.54H261.55V256h-11.1v16.65H233.81a5.54,5.54,0,0,0-5.55,5.54v16.65h-11.1a5.54,5.54,0,0,0-5.55,5.55v18.76l-25.26-12.63a5.55,5.55,0,0,0-5,0l-33.3,16.65a5.56,5.56,0,0,0-3.06,5V416.9a5.54,5.54,0,0,0,5.55,5.55H361.42A5.54,5.54,0,0,0,367,416.9Zm-177.55-5.55h-11.1V400.26h11.1Zm22.19,0H200.52V394.71a5.54,5.54,0,0,0-5.55-5.55h-22.2a5.54,5.54,0,0,0-5.54,5.55v16.64h-11.1V331.56l27.74-13.87,27.74,13.87Zm27.74-127.61h33.3v11.1h-33.3Zm22.2,127.61h-11.1V394.71h11.1Zm27.74-83.22v83.22H272.65V389.16a5.54,5.54,0,0,0-5.55-5.55H244.9a5.54,5.54,0,0,0-5.55,5.55v22.19H222.71V305.94h66.58Zm44.39,83.22h-11.1V400.26h11.1Zm22.19,0h-11.1V394.71a5.54,5.54,0,0,0-5.54-5.55H317a5.54,5.54,0,0,0-5.55,5.55v16.64H300.39V331.56l27.74-13.87,27.74,13.87Z"/><path class="cls-2" d="M311.48,344.77h33.29v11.1H311.48Z"/><path class="cls-2" d="M311.48,367h33.29v11.09H311.48Z"/><path class="cls-2" d="M167.23,344.77h33.29v11.1H167.23Z"/><path class="cls-2" d="M167.23,367h33.29v11.09H167.23Z"/></svg>