<svg id="Layer_1" data-name="Layer 1" xmlns="http://www.w3.org/2000/svg" viewBox="0 0 512 512"><defs><style>.cls-1{fill:#069986;}.cls-2{fill:#fff;}</style></defs><circle class="cls-1" cx="256" cy="256" r="256"/><g id="Digital_Certificate" data-name="Digital Certificate"><path class="cls-2" d="M407.26,220.8A60.32,60.32,0,0,1,371,265.92V251.75a23.36,23.36,0,0,0-9.31-18.67l-36.48-27.42a22.54,22.54,0,0,0-13.69-4.56H164a23.13,23.13,0,0,0-23,23.23v45.3a49.67,49.67,0,0,1-36.61-54.43,50.57,50.57,0,0,1,46.4-42.81,53.73,53.73,0,0,1,14,.85,5.91,5.91,0,0,0,7.13-4.38c0-.2.08-.4.11-.6a84.93,84.93,0,0,1,162.19-21.65,6.21,6.21,0,0,0,6.38,3.83c1.83-.12,3.59-.24,5.41-.24a61.15,61.15,0,0,1,61.18,70.6Z"/><circle class="cls-2" cx="300.48" cy="343.82" r="6.08"/><path class="cls-2" d="M300.48,310.74a33.11,33.11,0,1,0,33.14,33.08,33.12,33.12,0,0,0-33.14-33.08Zm0,51.32a18.24,18.24,0,1,1,18.24-18.24,18.24,18.24,0,0,1-18.24,18.24Z"/><path class="cls-2" d="M291.9,388.27l-15.38,27.55c-.73,1.4-2.5,1.46-3,.12l-6.45-16.6a1.4,1.4,0,0,0-1.58-.91l-17.15,2.49c-1.34.25-2.19-1.33-1.4-2.73l16.18-28.83A44.89,44.89,0,0,0,291.9,388.27Z"/><path class="cls-2" d="M352.59,400.92l-17.15-2.49a1.44,1.44,0,0,0-1.58.91l-6.45,16.6c-.48,1.34-2.18,1.28-3-.12l-15.39-27.55a45.2,45.2,0,0,0,28.89-18.91L354,398.19c.79,1.4,0,3-1.4,2.73Z"/><path class="cls-2" d="M353.87,242.33H318.66V215.94Z"/><path class="cls-2" d="M318.11,254.49a11.65,11.65,0,0,1-11.61-11.62V213.26H164a10.93,10.93,0,0,0-10.82,11.05V346.62A11,11,0,0,0,164,357.75h93.41a44.26,44.26,0,0,1-2.25-13.93,45.31,45.31,0,0,1,90.61,0,44.26,44.26,0,0,1-2.25,13.93H348a11,11,0,0,0,10.82-11.13V254.49ZM177,233.69h48.65a6.08,6.08,0,0,1,0,12.16H177a6.08,6.08,0,1,1,0-12.16ZM286.43,294.5H177a6.08,6.08,0,1,1,0-12.16H286.43a6.08,6.08,0,0,1,0,12.16Zm0-24.32H177A6.08,6.08,0,1,1,177,258H286.43a6.08,6.08,0,0,1,0,12.16Z"/></g></svg>