<svg id="Layer_1" data-name="Layer 1" xmlns="http://www.w3.org/2000/svg" viewBox="0 0 512 512"><defs><style>.cls-1{fill:#069986;}.cls-2{fill:#fff;}</style></defs><circle class="cls-1" cx="256" cy="256" r="256"/><g id="Glyph"><path class="cls-2" d="M382.45,327.13a23.68,23.68,0,0,0-17.7,8.06L351,329.66V309.43a71,71,0,0,0,39.28-114c1.73-39.75-31.46-73.81-71-73.81A71.4,71.4,0,0,0,285.72,130a71.09,71.09,0,0,0-124.24,40.7,71.13,71.13,0,0,0-.32,138.78v20.24l-13.75,5.53a23.34,23.34,0,0,0-17.7-8.14,23.71,23.71,0,1,0,23.71,23.71c0-.32-.08-.63-.08-.95L172,342.38a7.9,7.9,0,0,0,5-7.35V311.32h23.71v36.91l-7.83,10.51H169.06a7.93,7.93,0,0,0-7.9,7.91v31.61a7.93,7.93,0,0,0,7.9,7.9h31.62a7.93,7.93,0,0,0,7.9-7.9V366.65a9.85,9.85,0,0,0-.39-2.06l6.71-9.09a7.75,7.75,0,0,0,1.58-4.74V311.24H248.1v48.85a23.71,23.71,0,1,0,15.8,0V311.32h31.77v39.52a8.17,8.17,0,0,0,1.58,4.74l6.64,8.85a7.09,7.09,0,0,0-.47,2.22v31.61a7.93,7.93,0,0,0,7.9,7.9h31.62a7.93,7.93,0,0,0,7.9-7.9V366.65a7.93,7.93,0,0,0-7.9-7.91H319.3l-7.82-10.51V311.32h23.71V335a7.9,7.9,0,0,0,5,7.35l18.65,7.51c0,.32-.08.63-.08.95a23.71,23.71,0,1,0,23.71-23.71ZM311.32,225.57c0,29.88-46.78,51.14-52.16,53.51a8,8,0,0,1-6.32,0c-5.3-2.29-52.16-23.63-52.16-53.51V180.68a7.93,7.93,0,0,1,11.85-6.79c3.72,2.13,9.17-.24,9.17-4.83,0-5.84,6.8-9.8,11.85-6.79a44.41,44.41,0,0,0,44.74,0,8,8,0,0,1,11.85,6.79c0,4.59,5.46,7,9.17,4.83,5.06-2.93,11.93.94,11.93,6.79C311.32,180.76,311.32,225.57,311.32,225.57Z"/><path class="cls-2" d="M277.5,180.13a60.46,60.46,0,0,1-43.08,0,22,22,0,0,1-18,10.43v35c0,15.26,26.56,31.22,39.52,37.54,13-6.32,39.52-22.36,39.52-37.54v-35a22.06,22.06,0,0,1-10.28-2.92A23.22,23.22,0,0,1,277.5,180.13Zm3.87,29.08-22.76,31.62a8,8,0,0,1-12.09.87l-15.18-15.81A7.88,7.88,0,0,1,242.72,215l8.62,8.93L268.57,200a7.94,7.94,0,0,1,11.06-1.82A8,8,0,0,1,281.37,209.21Z"/></g></svg>