<svg id="Layer_1" data-name="Layer 1" xmlns="http://www.w3.org/2000/svg" viewBox="0 0 512 512"><defs><style>.cls-1{fill:none;stroke:#069986;stroke-linecap:round;stroke-linejoin:round;stroke-width:13px;}</style></defs><line class="cls-1" x1="256" y1="381.8" x2="256" y2="424.9"/><circle class="cls-1" cx="256" cy="441.08" r="16.18"/><path class="cls-1" d="M342.76,280.78h19.72c40.11,0,73-32.83,72-72.93a71.26,71.26,0,0,0-54-67.22,8.78,8.78,0,0,1-6-5.2,77.91,77.91,0,0,0-72-48.34c-1.46,0-2.92,0-4.37.13a9.14,9.14,0,0,1-7.22-2.91,92.54,92.54,0,0,0-136.49,1"/><path class="cls-1" d="M140.92,104.52a93.92,93.92,0,0,0-5.62,13.1,9,9,0,0,1-5.31,5.52A81.63,81.63,0,0,0,77.5,199.83c.29,44.95,37.48,80.95,82.43,80.95h8.25"/><path class="cls-1" d="M185.56,304.05v63.66a12.71,12.71,0,0,0,12.71,12.7h79.27"/><path class="cls-1" d="M301,380.41h12.71a12.7,12.7,0,0,0,12.7-12.7V304.05"/><path class="cls-1" d="M270.88,322.39l63.71-22.14a9,9,0,0,0,6-8.47V264.41a9,9,0,0,0-9-9H267.74"/><path class="cls-1" d="M244.26,255.44H180.35a9,9,0,0,0-9,9v27.37a9,9,0,0,0,6,8.47l63.47,22.06"/><path class="cls-1" d="M262.8,345.78H249.2a6.39,6.39,0,0,1-6.39-6.4V315.13a6.4,6.4,0,0,1,6.39-6.4h13.6a6.41,6.41,0,0,1,6.4,6.4v24.25A6.4,6.4,0,0,1,262.8,345.78Z"/><path class="cls-1" d="M214.27,255.44v-21.2A11.77,11.77,0,0,1,226,222.47H286a11.77,11.77,0,0,1,11.77,11.77v21.2"/><line class="cls-1" x1="121.5" y1="271.34" x2="121.5" y2="376.28"/><circle class="cls-1" cx="121.5" cy="392.46" r="16.18"/><line class="cls-1" x1="390.51" y1="275.13" x2="390.51" y2="376.28"/><circle class="cls-1" cx="390.51" cy="392.46" r="16.18"/><line class="cls-1" x1="114.27" y1="312.08" x2="128.72" y2="312.08"/><line class="cls-1" x1="248.78" y1="401.95" x2="263.22" y2="401.95"/><line class="cls-1" x1="383.28" y1="343.41" x2="397.73" y2="343.41"/></svg>