<svg id="Layer_1" data-name="Layer 1" xmlns="http://www.w3.org/2000/svg" viewBox="0 0 512 512"><defs><style>.cls-1{fill:#069986;}</style></defs><path class="cls-1" d="M383,368a19.42,19.42,0,1,0,0-11.09H341.81V332h8.29a5.53,5.53,0,0,0,4.06-1.78l23-24.8H383a19.42,19.42,0,1,0,0-11.09h-8.23a5.55,5.55,0,0,0-4.07,1.77l-23,24.81h-5.87V305.56a17,17,0,0,0-17-17h-7.32V275.14c0-.36,0-.73,0-1.09h29.75a54.77,54.77,0,0,0,34.55-97.31,39.35,39.35,0,0,0-32-45.51,67.46,67.46,0,0,0-134.7-.25,39.92,39.92,0,0,0-5-.32,39.35,39.35,0,0,0-38.9,33.75h-6.42a54.82,54.82,0,1,0,0,109.63H194.5c0,.37,0,.73,0,1.1v13.45h-7.32a17,17,0,0,0-17,17V320.9h-5.87l-23-24.81a5.56,5.56,0,0,0-4.07-1.77H129a19.42,19.42,0,1,0,0,11.09h5.81l23,24.8A5.53,5.53,0,0,0,161.9,332h8.29v24.93H129A19.42,19.42,0,1,0,129,368h41.18v24.93H161.9a5.56,5.56,0,0,0-4.07,1.77l-23,24.81H129a19.42,19.42,0,1,0,0,11.09h8.23a5.56,5.56,0,0,0,4.07-1.77l23-24.81h5.87v15.34a17,17,0,0,0,17,17h137.7a17,17,0,0,0,17-17V404h5.87l23,24.81a5.55,5.55,0,0,0,4.07,1.77H383a19.43,19.43,0,1,0,0-11.09h-5.81l-23-24.8a5.53,5.53,0,0,0-4.07-1.78h-8.29V368Zm18.61-13.87a8.33,8.33,0,1,1-8.33,8.33h0A8.33,8.33,0,0,1,401.59,354.14Zm0-62.6a8.33,8.33,0,1,1-8.33,8.32A8.33,8.33,0,0,1,401.59,291.54ZM110.41,308.19a8.33,8.33,0,1,1,8.33-8.33A8.33,8.33,0,0,1,110.41,308.19Zm0,62.6a8.33,8.33,0,1,1,8.33-8.33h0A8.33,8.33,0,0,1,110.41,370.79Zm0,62.6a8.33,8.33,0,1,1,8.33-8.32A8.33,8.33,0,0,1,110.41,433.39Zm291.18-16.65a8.33,8.33,0,1,1-8.33,8.33A8.33,8.33,0,0,1,401.59,416.74ZM164.75,263a43.73,43.73,0,0,1,0-87.46h11.57a5.54,5.54,0,0,0,5.54-5.54,28.23,28.23,0,0,1,37-26.81,5.55,5.55,0,0,0,7.26-5.53,56.37,56.37,0,1,1,112.66-1.5,5.55,5.55,0,0,0,5.34,5.65,28.24,28.24,0,0,1,26.14,35.75,5.52,5.52,0,0,0,2.14,6A43.69,43.69,0,0,1,347.25,263H316.31a61.53,61.53,0,0,0-120.62,0Zm40.81,12.18a50.44,50.44,0,0,1,100.88,0v13.45H296.35V275.14a40.35,40.35,0,0,0-80.7,0v13.45H205.56Zm21.18,0c0-.37,0-.73,0-1.09h58.46c0,.36,0,.72,0,1.09v13.45H226.74V275.14ZM229.41,263a29.24,29.24,0,0,1,53.18,0ZM330.72,419.37a5.88,5.88,0,0,1-5.87,5.88H187.15a5.88,5.88,0,0,1-5.87-5.88V305.55a5.87,5.87,0,0,1,5.87-5.87h137.7a5.87,5.87,0,0,1,5.87,5.87V419.37ZM256,325.43a27.71,27.71,0,0,0-16.42,50V394a5.54,5.54,0,0,0,5.54,5.54h21.76a5.54,5.54,0,0,0,5.54-5.54V375.46a27.71,27.71,0,0,0-16.42-50Zm8.15,42.2a5.52,5.52,0,0,0-2.81,4.82v16H250.66v-16a5.51,5.51,0,0,0-2.82-4.82,16.63,16.63,0,1,1,16.31,0Z"/></svg>