<?xml version="1.0" encoding="iso-8859-1"?>
<!-- Generator: Adobe Illustrator 19.0.0, SVG Export Plug-In . SVG Version: 6.00 Build 0)  -->
<svg version="1.1" id="Layer_1" xmlns="http://www.w3.org/2000/svg" xmlns:xlink="http://www.w3.org/1999/xlink" x="0px" y="0px"
	 viewBox="0 0 512 512" style="enable-background:new 0 0 512 512;" xml:space="preserve">
<g id="XMLID_534_">
	<path id="XMLID_12_" style="fill:#069986;" d="M256,512L256,512C114.615,512,0,397.385,0,256V256C0,114.615,114.615,0,256,0H256
		c141.385,0,256,114.615,256,256V256C512,397.385,397.385,512,256,512z"/>
	<g id="XMLID_376_">
		<path id="XMLID_388_" style="fill:#FFFFFF;" d="M314.949,232.662c-49.128-49.931-135.931-13.96-136.006,55.342
			c-0.277,44.195,35.327,80.247,79.522,80.523c9.232,0.058,18.404-1.482,27.111-4.552
			C339.211,346.334,356.451,272.212,314.949,232.662z M299.523,257.215c-2.527,2.504-6.6,2.504-9.127,0
			c-17.582-17.547-46.051-17.547-63.633,0c-2.503,2.503-6.56,2.503-9.063,0c-2.503-2.503-2.503-6.56,0-9.063
			c22.609-22.561,59.214-22.561,81.823,0c2.503,2.497,2.507,6.549,0.011,9.052C299.53,257.208,299.526,257.211,299.523,257.215z"/>
		<path id="XMLID_379_" style="fill:#FFFFFF;" d="M330.31,129.564c-12.706-35.567-51.839-54.099-87.406-41.393
			c-20.111,7.185-35.711,23.352-42.173,43.707c-33.132-7.944-67.058,9.705-79.573,41.394
			c-34.297,11.141-53.068,47.976-41.926,82.273c8.741,26.908,33.817,45.125,62.108,45.121l25.519,0.13
			c-6.52-50.677,29.277-97.044,79.954-103.564c50.677-6.52,97.044,29.277,103.564,79.954c1.033,8.031,1.008,16.163-0.076,24.187
			c48.006-0.691,86.362-40.168,85.671-88.173c-0.691-48.006-40.168-86.362-88.173-85.671
			C341.915,127.614,336.056,128.296,330.31,129.564L330.31,129.564z"/>
		<path id="XMLID_378_" style="fill:#FFFFFF;" d="M347.215,341.416c2.736-4.1,2.198-9.561-1.285-13.048l-2.507-2.507
			c-9.299,21.511-26.412,38.693-47.885,48.078c2.267,3.2,5.856,5.207,9.769,5.464c2.019,0.018,3.995-0.588,5.656-1.736
			l26.932,36.701c10.756,14.671,31.368,17.845,46.039,7.089s17.845-31.368,7.089-46.039c-0.968-1.32-2.033-2.567-3.186-3.728
			C387.873,370.748,349.045,342.905,347.215,341.416z"/>
	</g>
</g>
</svg>
