<?xml version="1.0" encoding="iso-8859-1"?>
<!-- Generator: Adobe Illustrator 19.0.0, SVG Export Plug-In . SVG Version: 6.00 Build 0)  -->
<svg version="1.1" id="Layer_1" xmlns="http://www.w3.org/2000/svg" xmlns:xlink="http://www.w3.org/1999/xlink" x="0px" y="0px"
	 viewBox="0 0 512 512" style="enable-background:new 0 0 512 512;" xml:space="preserve">
<g id="XMLID_533_">
	<path id="XMLID_31_" style="fill:#069986;" d="M256,512L256,512C114.615,512,0,397.385,0,256V256C0,114.615,114.615,0,256,0H256
		c141.385,0,256,114.615,256,256V256C512,397.385,397.385,512,256,512z"/>
	<g id="XMLID_2_">
		<path id="XMLID_344_" style="fill:#FFFFFF;" d="M339.646,315.163l-72.059-72.059c3.239-11.913-0.116-24.637-8.906-33.543
			c-9.716-9.716-24.29-12.839-37.128-7.75c-1.851,0.694-3.123,2.313-3.586,4.164c-0.463,1.966,0.231,3.933,1.619,5.321
			l14.574,14.689l-8.212,8.097l-14.574-14.689c-1.388-1.388-3.354-1.966-5.321-1.619c-1.851,0.347-3.47,1.735-4.164,3.586
			c-5.089,12.839-1.966,27.413,7.75,37.244c8.791,8.791,21.629,12.145,33.543,8.906l72.059,72.059
			c-3.239,11.913,0.116,24.637,8.906,33.543c6.477,6.709,15.383,10.178,24.405,10.178c4.28,0,8.559-0.81,12.723-2.429
			c1.851-0.694,3.123-2.313,3.586-4.164c0.463-1.966-0.231-3.933-1.619-5.321l-14.689-14.574l8.212-8.212l14.574,14.689
			c1.388,1.388,3.354,1.966,5.321,1.619c1.851-0.347,3.47-1.735,4.164-3.586c5.089-12.839,1.966-27.413-7.75-37.244
			C364.283,315.278,351.444,311.924,339.646,315.163z"/>
		<path style="fill:#FFFFFF;" d="M201.311,266.815c-0.694-0.694-1.157-1.388-1.851-2.082c-0.578,0.347-1.272,0.578-1.966,0.925
			l-5.668-5.668c-2.313-2.313-5.899-2.313-8.212,0l-16.309,16.309c-1.041,1.041-1.735,2.545-1.735,4.048
			c0,1.504,0.578,3.007,1.735,4.048l5.668,5.668c-3.354,5.552-5.783,11.566-7.403,17.928h-7.865
			c-3.239,0.116-5.783,2.66-5.783,5.899v23.133c0,3.239,2.545,5.783,5.783,5.783h7.981c1.619,6.246,4.048,12.26,7.403,17.928
			l-5.668,5.668c-1.041,1.041-1.735,2.545-1.735,4.048s0.578,3.007,1.735,4.048l16.309,16.309c2.313,2.313,5.899,2.313,8.212,0
			l5.668-5.668c5.552,3.354,11.566,5.783,17.928,7.403v7.981c0,3.239,2.545,5.783,5.783,5.783h23.133
			c3.239,0,5.783-2.545,5.783-5.783v-7.981c6.362-1.619,12.26-4.048,17.928-7.403l5.668,5.668c2.313,2.313,5.899,2.313,8.212,0
			l16.309-16.309c1.041-1.041,1.735-2.545,1.735-4.048s-0.578-3.007-1.735-4.048l-5.668-5.668
			c3.354-5.552,5.783-11.566,7.403-17.928h1.851l-62.69-62.69C225.369,281.62,211.258,276.762,201.311,266.815z M266.893,318.633
			c4.627,24.405-16.424,45.456-40.83,40.83c-13.533-2.545-24.637-13.648-27.297-27.297c-4.627-24.405,16.424-45.456,40.83-40.83
			C253.244,293.996,264.348,305.1,266.893,318.633z"/>
		<path id="XMLID_88_" style="fill:#FFFFFF;" d="M383.252,199.845c0-0.578,0-1.041,0-1.619c0-31.924-25.909-57.832-57.832-57.832
			c-2.892,0-5.783,0.231-8.906,0.81c-12.26-21.745-35.509-35.509-60.493-35.509s-48.232,13.764-60.493,35.509
			c-3.123-0.578-6.015-0.81-8.906-0.81c-31.924,0-57.832,25.909-57.832,57.832v1.619c-24.29,6.246-40.598,31.577-32.849,58.064
			c5.899,20.01,25.562,32.849,46.497,32.849h14.921l-6.246-6.246c-2.313-2.313-2.313-5.899,0-8.212l32.733-32.733
			c1.272-1.272,3.123-1.735,4.742-1.504c-1.388-8.212-0.694-16.771,2.429-24.868l0.578-1.388
			c4.395-11.104,13.07-19.894,24.174-24.174c11.104-4.395,23.596-5.205,34.699-0.81c20.704,8.097,31.808,28.338,29.61,48.464
			l51.587,51.471h38.054c20.82,0,40.483-12.839,46.382-32.849C423.734,231.421,407.541,206.091,383.252,199.845z"/>
	</g>
</g>
</svg>
