<svg id="Layer_1" data-name="Layer 1" xmlns="http://www.w3.org/2000/svg" viewBox="0 0 512 512"><defs><style>.cls-1{fill:#069986;}.cls-2{fill:#fff;}</style></defs><path class="cls-1" d="M118.34,0H512a0,0,0,0,1,0,0V393.66A118.34,118.34,0,0,1,393.66,512H0a0,0,0,0,1,0,0V118.34A118.34,118.34,0,0,1,118.34,0Z"/><path class="cls-2" d="M404.74,78.32H322.15a29,29,0,0,0-28.95,29v55.9H200.41a37.27,37.27,0,0,0-37.23,37.23v92.8H107.26a29,29,0,0,0-28.95,29v82.57a29,29,0,0,0,29,28.95h82.59a29,29,0,0,0,29-28.95v-55.9h92.79a37.28,37.28,0,0,0,37.23-37.25V218.79h55.92a29,29,0,0,0,28.95-29V107.27a29,29,0,0,0-28.95-28.95Zm-196,326.42a18.9,18.9,0,0,1-18.88,18.88H107.26a18.9,18.9,0,0,1-18.88-18.88V322.17a18.91,18.91,0,0,1,18.88-18.89h82.59A18.79,18.79,0,0,1,203,308.65l.16.17.18.17a18.82,18.82,0,0,1,5.38,13.18Zm130-93.16a27.21,27.21,0,0,1-27.16,27.19H218.8v-16.6a28.81,28.81,0,0,0-5.25-16.6l89-89v35.17a5,5,0,0,0,10.08,0V204.39a5,5,0,0,0-5-5H260.3a5,5,0,0,0,0,10.07h35.17l-89,89a28.77,28.77,0,0,0-16.58-5.24H173.26v-92.8a27.19,27.19,0,0,1,27.16-27.16H311.59a27.06,27.06,0,0,1,18.9,7.67,4.12,4.12,0,0,0,.28.31,2.7,2.7,0,0,0,.31.28,27,27,0,0,1,7.68,18.9V311.58Zm84.87-121.74a18.91,18.91,0,0,1-18.88,18.89H348.82V200.4a37,37,0,0,0-7.6-22.51l61.07-61V152a5,5,0,0,0,10.07,0V104.69a5,5,0,0,0-5-5H360a5,5,0,0,0,0,10.07h35.17L334.1,170.77a37.08,37.08,0,0,0-22.51-7.6h-8.33v-55.9a18.91,18.91,0,0,1,18.89-18.88h82.58a18.9,18.9,0,0,1,18.89,18.88v82.56Zm-233,136.63V373.8a5,5,0,0,1-10.08,0V338.63l-72.23,72.26a5,5,0,0,1-7.12-7.13l72.24-72.25H138.21a5,5,0,1,1,0-10.07h47.46a2.11,2.11,0,0,1,.36,0l.27,0,.22,0,.28.07.2,0,.26.09.2.07.23.11.21.1.23.13.2.12.24.18.15.12a4.7,4.7,0,0,1,.71.7l.12.17c.06.08.12.15.17.23a2.39,2.39,0,0,1,.13.21l.13.21a2.29,2.29,0,0,1,.1.23l.1.22.09.23a2.09,2.09,0,0,1,.08.23l.06.24a1.12,1.12,0,0,1,.06.23c0,.1,0,.2,0,.29a1.38,1.38,0,0,1,0,.2,4.36,4.36,0,0,1,0,.51Z"/></svg>