<svg id="Layer_1" data-name="Layer 1" xmlns="http://www.w3.org/2000/svg" viewBox="0 0 512 512"><defs><style>.cls-1{fill:#069986;}.cls-2{fill:#fff;}</style></defs><path class="cls-1" d="M118.34,0H512a0,0,0,0,1,0,0V393.66A118.34,118.34,0,0,1,393.66,512H0a0,0,0,0,1,0,0V118.34A118.34,118.34,0,0,1,118.34,0Z"/><path class="cls-2" d="M190.55,132.07a4.8,4.8,0,0,0,2-.44,50.49,50.49,0,0,1,9.53-3.24l9.07-2.1a26.56,26.56,0,0,0,12.67-7l5.87-5.8a42.38,42.38,0,0,1,59.3,0l5.87,5.8a26.6,26.6,0,0,0,12.67,7l9.07,2.1a51.54,51.54,0,0,1,6.49,2,4.86,4.86,0,1,0,3.44-9.1,60.29,60.29,0,0,0-7.73-2.34l-9.07-2.11a16.79,16.79,0,0,1-8-4.42l-5.87-5.8a51.95,51.95,0,0,0-73,0L217,112.38a16.83,16.83,0,0,1-8,4.43l-9.07,2.1a60.39,60.39,0,0,0-11.36,3.87,4.86,4.86,0,0,0,2,9.29Z"/><path class="cls-2" d="M246.58,384.37a4.86,4.86,0,0,0-4.86,4.87v27.58a4.87,4.87,0,0,0,9.73,0V389.24A4.87,4.87,0,0,0,246.58,384.37Z"/><path class="cls-2" d="M280.06,194.54H238a4.86,4.86,0,0,0-4.86,4.87V227a4.86,4.86,0,0,0,4.86,4.86h42.06a4.86,4.86,0,0,0,4.86-4.86V199.41A4.87,4.87,0,0,0,280.06,194.54Zm-4.87,27.54H242.87V204.27h32.32Z"/><path class="cls-2" d="M104.72,203h59.67A11.57,11.57,0,0,0,176,191.42V158.69a4.87,4.87,0,0,0-9.73,0v32.73a1.83,1.83,0,0,1-1.83,1.83H104.72a1.83,1.83,0,0,1-1.83-1.83V101.87a1.83,1.83,0,0,1,1.83-1.82h59.67a1.83,1.83,0,0,1,1.83,1.82V138a4.87,4.87,0,0,0,9.73,0V101.87a11.56,11.56,0,0,0-11.56-11.55H104.72a11.57,11.57,0,0,0-11.56,11.55v89.55A11.58,11.58,0,0,0,104.72,203Z"/><path class="cls-2" d="M152.53,117.33H116.19a4.87,4.87,0,0,0,0,9.73h36.34a4.87,4.87,0,1,0,0-9.73Z"/><path class="cls-2" d="M152.53,139.85H116.19a4.87,4.87,0,0,0,0,9.73h36.34a4.87,4.87,0,1,0,0-9.73Z"/><path class="cls-2" d="M152.53,162.36H116.19a4.87,4.87,0,0,0,0,9.74h36.34a4.87,4.87,0,1,0,0-9.74Z"/><path class="cls-2" d="M402.12,116a16.73,16.73,0,0,0-16,11.85H369.42a4.86,4.86,0,0,0-4.33,2.64l-8.37,16.3a59.82,59.82,0,0,0-10.52-13.23,4.86,4.86,0,1,0-6.69,7.06,49.58,49.58,0,0,1,8.83,61.18,11.52,11.52,0,0,0-.19,11.21l11.64,21.6a39.2,39.2,0,0,1-38.28,57.61l-.88-.08a4.87,4.87,0,0,0-4.88,2.79A31.64,31.64,0,0,1,277,311.59V284.73a5.74,5.74,0,0,1,.26-1.7l9.43-29.81h2.85a16.79,16.79,0,0,0,14.12-7.72l3.68,3.67a4.85,4.85,0,0,0,3.44,1.43h13.92a4.86,4.86,0,0,0,9.18-2.25V243a4.86,4.86,0,0,0-9.26-2.08H312.79l-6.46-6.46V218h8.38a4.85,4.85,0,0,0,9.21-2.16v-5.4a4.86,4.86,0,0,0-9.21-2.17h-8.38V192l6.46-6.46h11.82a4.86,4.86,0,0,0,9.26-2.08V178a4.86,4.86,0,0,0-9.18-2.24H310.77a4.88,4.88,0,0,0-3.44,1.42l-3.68,3.68a16.86,16.86,0,0,0-9.25-7v-5.08a4.87,4.87,0,0,0-9.73,0v4.36H263.89v-4.36a4.87,4.87,0,0,0-9.73,0v4.36H233.39v-4.36a4.87,4.87,0,0,0-9.73,0v5.08a16.92,16.92,0,0,0-9.26,7l-3.68-3.68a4.87,4.87,0,0,0-3.44-1.42H193.37a4.86,4.86,0,0,0-9.18,2.24v5.41a4.86,4.86,0,0,0,9.26,2.08h11.82l6.46,6.46v16.36h-8.38a4.86,4.86,0,0,0-9.22,2.17v5.4a4.86,4.86,0,0,0,9.22,2.16h8.38v16.37l-6.46,6.46H193.45a4.86,4.86,0,0,0-9.26,2.08v5.4a4.86,4.86,0,0,0,9.17,2.25h13.92a4.83,4.83,0,0,0,3.44-1.43l3.68-3.67a16.79,16.79,0,0,0,14.12,7.72h13.19v58.36A31.72,31.72,0,0,1,203,294.94a4.86,4.86,0,0,0-4.88-2.79l-.87.08a39.2,39.2,0,0,1-38.28-57.61l7.94-14.74a4.87,4.87,0,1,0-8.57-4.61L150.35,230a48.23,48.23,0,0,0,2.33,50.28,49.27,49.27,0,0,0,14.79,14.52l-23,44.08H130.26a18.31,18.31,0,1,0,0,9.73h17.13A4.85,4.85,0,0,0,151.7,346l24.5-46.89a48.75,48.75,0,0,0,19.51,3,41.55,41.55,0,0,0,36,20.86,40.26,40.26,0,0,0,10-1.25v46.8a4.87,4.87,0,1,0,9.73,0V253.22h25L268,280.1a15.13,15.13,0,0,0-.72,4.63V416.82a4.87,4.87,0,0,0,9.73,0v-95.1a41.27,41.27,0,0,0,46-19.63A48.94,48.94,0,0,0,368.35,230l-11.63-21.6a1.74,1.74,0,0,1,0-1.71,59.29,59.29,0,0,0,5.1-48.59l10.54-20.52h13.74a16.72,16.72,0,1,0,16-21.58ZM112.62,352.33a8.57,8.57,0,1,1,8.57-8.57A8.58,8.58,0,0,1,112.62,352.33ZM221.46,236.42V189.93a7.07,7.07,0,0,1,7.06-7.06h61a7.07,7.07,0,0,1,7.07,7.06v46.49a7.08,7.08,0,0,1-7.07,7.07h-61a7.07,7.07,0,0,1-7.06-7.07Zm180.66-96.71a7,7,0,1,1,7-7A7,7,0,0,1,402.12,139.71Z"/></svg>