<svg id="Layer_1" data-name="Layer 1" xmlns="http://www.w3.org/2000/svg" viewBox="0 0 512 512"><defs><style>.cls-1{fill:#069986;}.cls-2{fill:#fff;}</style></defs><path class="cls-1" d="M118.34,0H512a0,0,0,0,1,0,0V393.66A118.34,118.34,0,0,1,393.66,512H0a0,0,0,0,1,0,0V118.34A118.34,118.34,0,0,1,118.34,0Z"/><path class="cls-2" d="M256,234.44a70.08,70.08,0,1,0-70.07-70.08A70.14,70.14,0,0,0,256,234.44Zm0-129.37a59.3,59.3,0,1,1-59.29,59.29A59.33,59.33,0,0,1,256,105.07Z"/><path class="cls-2" d="M238.1,164.09l25.66,8.58-17.62,26.46a5.38,5.38,0,1,0,8.94,6l21.56-32.35a5.43,5.43,0,0,0,.6-4.74,5.24,5.24,0,0,0-3.4-3.34l-25.66-8.57,17.63-26.47a5.4,5.4,0,1,0-9-6L235.25,156a5.47,5.47,0,0,0-.6,4.74,5.22,5.22,0,0,0,3.4,3.34Z"/><path class="cls-2" d="M412.32,353H396.15V202.1a32.37,32.37,0,0,0-32.34-32.35H342.25a5.4,5.4,0,1,0,0,10.79h21.56a21.55,21.55,0,0,1,21.56,21.56V353h-97a5.35,5.35,0,0,0-4.47,2.42L274.7,369.2H237.35l-9.16-13.75a5.44,5.44,0,0,0-4.48-2.42H126.63V202.1a21.55,21.55,0,0,1,21.56-21.56h21.56a5.4,5.4,0,1,0,0-10.79H148.19a32.37,32.37,0,0,0-32.34,32.35V353H99.68a5.41,5.41,0,0,0-5.39,5.39v16.17a43.18,43.18,0,0,0,43.12,43.12H374.59a43.18,43.18,0,0,0,43.12-43.12V358.42A5.41,5.41,0,0,0,412.32,353Zm-5.39,21.56a32.37,32.37,0,0,1-32.34,32.34H137.41a32.37,32.37,0,0,1-32.34-32.34V363.81H220.75l9.16,13.74a5.45,5.45,0,0,0,4.47,2.43h43.13a5.36,5.36,0,0,0,4.47-2.43l9.16-13.74H406.82v10.78Z"/><path class="cls-2" d="M245.22,261.39a5.41,5.41,0,0,0-5.39,5.39v64.68a5.4,5.4,0,0,0,5.39,5.39h21.56a5.4,5.4,0,0,0,5.39-5.39V266.78a5.41,5.41,0,0,0-5.39-5.39Zm16.17,64.68H250.61v-53.9h10.78Z"/><path class="cls-2" d="M288.34,245.22a5.41,5.41,0,0,0-5.39,5.39v80.85a5.41,5.41,0,0,0,5.39,5.39H309.9a5.4,5.4,0,0,0,5.39-5.39V250.61a5.41,5.41,0,0,0-5.39-5.39Zm16.17,80.85H293.73V256h10.78Z"/><path class="cls-2" d="M326.07,331.46a5.41,5.41,0,0,0,5.39,5.39H353a5.41,5.41,0,0,0,5.39-5.39V283a5.41,5.41,0,0,0-5.39-5.39H331.46a5.41,5.41,0,0,0-5.39,5.39Zm10.78-43.12h10.79v37.73H336.85Z"/><path class="cls-2" d="M202.1,277.56a5.41,5.41,0,0,0-5.39,5.39v48.51a5.4,5.4,0,0,0,5.39,5.39h21.56a5.41,5.41,0,0,0,5.39-5.39V283a5.41,5.41,0,0,0-5.39-5.39Zm16.17,48.51H207.49V288.34h10.78Z"/><path class="cls-2" d="M153.58,239.83v91.63a5.41,5.41,0,0,0,5.39,5.39h21.57a5.41,5.41,0,0,0,5.39-5.39V239.83a5.41,5.41,0,0,0-5.39-5.39H159A5.41,5.41,0,0,0,153.58,239.83Zm10.78,5.39h10.79v80.85H164.36Z"/></svg>