<svg id="Layer_1" data-name="Layer 1" xmlns="http://www.w3.org/2000/svg" viewBox="0 0 512 512"><defs><style>.cls-1{fill:#069986;}.cls-2{fill:#fff;}</style></defs><path class="cls-1" d="M118.34,0H512a0,0,0,0,1,0,0V393.66A118.34,118.34,0,0,1,393.66,512H0a0,0,0,0,1,0,0V118.34A118.34,118.34,0,0,1,118.34,0Z"/><path class="cls-2" d="M200.31,337H111.44a17.4,17.4,0,0,1-17.35-17.35V117.22a17.4,17.4,0,0,1,17.35-17.35H319.61A17.4,17.4,0,0,1,337,117.22v76.39a5.78,5.78,0,1,0,11.56,0V117.22a28.92,28.92,0,0,0-28.91-28.91H111.44a28.93,28.93,0,0,0-28.92,28.91V319.61a28.93,28.93,0,0,0,28.92,28.91h88.87a5.78,5.78,0,1,0,0-11.56Z"/><path class="cls-2" d="M325.39,215.52A104.09,104.09,0,1,0,429.48,319.61,104.18,104.18,0,0,0,325.39,215.52Zm0,196.61a92.52,92.52,0,1,1,92.52-92.52A92.64,92.64,0,0,1,325.39,412.13Z"/><path class="cls-2" d="M394.78,325.39a5.78,5.78,0,0,0,0-11.56H383.22V290.7h11.56a5.79,5.79,0,0,0,0-11.57H383.22V267.57a5.81,5.81,0,0,0-5.79-5.79H365.87V250.22a5.79,5.79,0,1,0-11.57,0v11.56H331.17V250.22a5.78,5.78,0,1,0-11.56,0v11.56H296.48V250.22a5.79,5.79,0,1,0-11.57,0v11.56H273.35a5.8,5.8,0,0,0-5.78,5.79v11.56H256a5.79,5.79,0,0,0,0,11.57h11.57v23.13H256a5.78,5.78,0,0,0,0,11.56h11.57v23.13H256a5.79,5.79,0,0,0,0,11.57h11.57v11.56a5.8,5.8,0,0,0,5.78,5.78h11.56V389a5.79,5.79,0,0,0,11.57,0V377.43h23.13V389a5.78,5.78,0,1,0,11.56,0V377.43H354.3V389a5.79,5.79,0,0,0,11.57,0V377.43h11.56a5.8,5.8,0,0,0,5.79-5.78V360.09h11.56a5.79,5.79,0,0,0,0-11.57H383.22V325.39Zm-23.13,40.48H279.13V273.35h92.52Z"/><path class="cls-2" d="M294.45,348.17a5.82,5.82,0,0,0,7.46-3.41l2.95-7.8h18l2.95,7.8a5.77,5.77,0,0,0,5.43,3.76,5.69,5.69,0,0,0,2-.35,5.8,5.8,0,0,0,3.42-7.46l-17.35-46.26a5.81,5.81,0,0,0-10.87,0L291.1,340.71a5.82,5.82,0,0,0,3.41,7.46ZM313.83,313l4.68,12.43H309.2L313.88,313Z"/><path class="cls-2" d="M348.52,348.52a5.8,5.8,0,0,0,5.78-5.78V296.48a5.78,5.78,0,0,0-11.56,0v46.26A5.8,5.8,0,0,0,348.52,348.52Z"/><path class="cls-2" d="M232.87,221.3a16.7,16.7,0,0,0-.75-4.74c5.66-8.44,9.54-20.93,13.53-34.17,2.83-9.43,5.78-19.08,9.25-26.14a16.93,16.93,0,0,0,18-2.77c4.11,7.17,7.46,18.21,10.76,29,1.62,5.32,3.24,10.64,4.91,15.62a5.77,5.77,0,0,0,5.44,3.87,5.37,5.37,0,0,0,1.91-.35,5.79,5.79,0,0,0,3.58-7.34c-1.67-4.8-3.24-10-4.8-15.15-4.51-14.86-8.79-29-15.78-37.24,0-.52.17-1.1.17-1.62a17.35,17.35,0,0,0-34.7,0,17.62,17.62,0,0,0,1.8,7.58c-4.74,8.38-8.27,19.95-11.63,31.16-3.06,10.07-6.18,20.36-9.94,27.53a17,17,0,0,0-9.14-2.66,16.73,16.73,0,0,0-9.08,2.66c-3.76-7.17-6.88-17.46-9.94-27.53-4.51-14.86-8.85-28.85-15.79-37.12,0-.52.17-1.1.17-1.62a17.35,17.35,0,1,0-34.69,0,17.14,17.14,0,0,0,1.79,7.52c-4.74,8.38-8.27,19.95-11.68,31.22-4.91,16.25-11,36.43-19,36.43a5.79,5.79,0,1,0,0,11.57c16.59,0,23.47-22.67,30.12-44.64,2.89-9.43,5.84-19.08,9.31-26.2a16.95,16.95,0,0,0,18-2.77c4.1,7.11,7.45,18.15,10.75,29,4,13.18,7.86,25.67,13.53,34.12a18.21,18.21,0,0,0-.75,4.74,17.35,17.35,0,0,0,34.7,0Zm28.91-86.73a5.78,5.78,0,1,1-5.78,5.78A5.8,5.8,0,0,1,261.78,134.57Zm-98.3,11.56a5.78,5.78,0,1,1,5.78-5.78A5.8,5.8,0,0,1,163.48,146.13Zm52,81a5.79,5.79,0,1,1,5.78-5.79A5.8,5.8,0,0,1,215.52,227.09Z"/><path class="cls-2" d="M186.61,244.43H117.22a5.79,5.79,0,0,0,0,11.57h69.39a5.79,5.79,0,0,0,0-11.57Z"/><path class="cls-2" d="M186.61,273.35H117.22a5.78,5.78,0,0,0,0,11.56h69.39a5.78,5.78,0,1,0,0-11.56Z"/><path class="cls-2" d="M186.61,302.26H117.22a5.79,5.79,0,0,0,0,11.57h69.39a5.79,5.79,0,0,0,0-11.57Z"/></svg>