<svg id="Layer_1" data-name="Layer 1" xmlns="http://www.w3.org/2000/svg" viewBox="0 0 512 512"><defs><style>.cls-1{fill:#069986;}.cls-2{fill:#fff;}</style></defs><path class="cls-1" d="M118.34,0H512a0,0,0,0,1,0,0V393.66A118.34,118.34,0,0,1,393.66,512H0a0,0,0,0,1,0,0V118.34A118.34,118.34,0,0,1,118.34,0Z"/><g id="layer1"><path id="rect820" class="cls-2" d="M386.54,88.94a15.75,15.75,0,0,0-15.69,15.64v5.25H344.76a5.22,5.22,0,0,0-5.2,5.2v26.13a5.2,5.2,0,0,0,10.4,0V120.27h20.89v5.2a15.79,15.79,0,0,0,15.69,15.69h5.2l.07,11.32a15.66,15.66,0,1,0,10.28,0l.08-11.31h5.25a15.75,15.75,0,0,0,15.64-15.69V104.58a15.71,15.71,0,0,0-15.64-15.64Zm0,10.44h20.89a5.07,5.07,0,0,1,5.2,5.2v20.89a5.1,5.1,0,0,1-5.2,5.25H386.53a5.14,5.14,0,0,1-5.25-5.25V104.58a5.1,5.1,0,0,1,5.25-5.2ZM397,109.82a5.22,5.22,0,1,0,5.22,5.22A5.22,5.22,0,0,0,397,109.82ZM243.37,115c-23.07-.3-46.91,5.39-67.21,17.11C135.62,155.47,115,199.26,115,245.56H104.64a5.22,5.22,0,0,0-4,8.64L132,290.73a5.22,5.22,0,0,0,7.94,0l31.34-36.53a5.23,5.23,0,0,0-4-8.64H156.81a104.42,104.42,0,0,1,46.75-87.06c29.28-19.4,66.31-23.9,98-15.42a5.22,5.22,0,0,0,4.39-9.29C288.75,121.54,266.43,115.26,243.37,115Zm-.17,10.6a120.09,120.09,0,0,1,25,3c-28.52.64-51.56,8.83-70.43,21.33a114.82,114.82,0,0,0-51.41,95.73v5.2a5.22,5.22,0,0,0,5.24,5.24h4.28l-20,23.32L116,256h4.31a5.21,5.21,0,0,0,5.2-5.24v-5.2c0-43.23,18.94-83.09,55.93-104.44C199.86,130.46,222,125.54,243.2,125.55Zm77.05,17.72a4.27,4.27,0,0,0-1.16.16A5.23,5.23,0,0,0,317.7,153q2.39,1.44,4.7,3a5.22,5.22,0,0,0,5.74-8.72c-1.67-1.11-3.36-2.19-5.09-3.23A5.54,5.54,0,0,0,320.25,143.27Zm18.41,13.65a5.22,5.22,0,0,0-3.11,9.15c1.38,1.22,2.73,2.45,4.05,3.73a5.22,5.22,0,0,0,7.23-7.53c-1.44-1.39-2.89-2.71-4.39-4a5.21,5.21,0,0,0-3.78-1.32ZM397,162.05a5.2,5.2,0,1,1-5.22,5.2A5.16,5.16,0,0,1,397,162.05Zm-41.84,11.64a4.93,4.93,0,0,0-3.54,1.11,5.24,5.24,0,0,0-.93,7.33c1.14,1.45,2.25,2.92,3.32,4.43a5.23,5.23,0,0,0,8.52-6.06c-1.16-1.63-2.35-3.23-3.59-4.81a5.1,5.1,0,0,0-3.78-2ZM256,182.89c-5.14,0-8.58.41-11.56,1.86a12.17,12.17,0,0,0-5.52,6.08,12.21,12.21,0,0,1-1.69,3.43c-.76.93-2.19,2.22-5.78,3.74s-5.62,1.7-6.87,1.62a11.43,11.43,0,0,1-3.66-1.08,12.2,12.2,0,0,0-7.93-.43c-3.09,1-5.67,3.1-9.08,6.56s-5.46,6.06-6.44,9.17a12.35,12.35,0,0,0,.56,8,10.87,10.87,0,0,1,1.17,3.55c.1,1.23,0,3.24-1.51,6.85s-2.77,5.13-3.71,5.94a10.68,10.68,0,0,1-3.27,1.73,12.09,12.09,0,0,0-6,5.21c-1.49,2.88-1.86,6.14-1.82,10.9s.33,8,1.82,10.91a12.06,12.06,0,0,0,6,5.2,10.68,10.68,0,0,1,3.27,1.73c.94.81,2.24,2.32,3.71,5.94s1.6,5.59,1.51,6.82a11.29,11.29,0,0,1-1.17,3.59,12.13,12.13,0,0,0-.56,7.93c1,3.11,3,5.76,6.44,9.22s6,5.53,9.09,6.55a12.18,12.18,0,0,0,7.92-.42,11.43,11.43,0,0,1,3.66-1.08c1.25-.09,3.26.05,6.87,1.58s5,2.8,5.78,3.73a12.55,12.55,0,0,1,1.69,3.47,12.19,12.19,0,0,0,5.52,6.09c3,1.45,6.42,1.81,11.56,1.81s8.58-.36,11.56-1.81a12.21,12.21,0,0,0,5.51-6.09,12.55,12.55,0,0,1,1.69-3.47c.76-.93,2.19-2.22,5.78-3.73s5.62-1.66,6.87-1.58a11.43,11.43,0,0,1,3.66,1.08,12.24,12.24,0,0,0,7.94.42c3.09-1,5.68-3.09,9.09-6.55s5.46-6.11,6.44-9.22a12.18,12.18,0,0,0-.58-7.93,11,11,0,0,1-1.16-3.59c-.1-1.23,0-3.21,1.5-6.82s2.77-5.13,3.71-5.94a10.68,10.68,0,0,1,3.27-1.73,12.08,12.08,0,0,0,6-5.2c1.49-2.87,1.9-6.14,1.86-10.91s-.37-8-1.86-10.9a12,12,0,0,0-5.93-5.21,11,11,0,0,1-3.31-1.73c-.94-.81-2.24-2.32-3.71-5.94s-1.59-5.62-1.5-6.85a11.05,11.05,0,0,1,1.16-3.55,11.25,11.25,0,0,0,.58-8c-1-3.11-3-5.71-6.44-9.17s-6-5.54-9.09-6.56a12.23,12.23,0,0,0-7.94.43,11.43,11.43,0,0,1-3.66,1.08c-1.25.09-3.26-.09-6.87-1.62s-5-2.81-5.78-3.74a12.21,12.21,0,0,1-1.69-3.43,12.15,12.15,0,0,0-5.51-6.08c-3-1.45-6.42-1.86-11.56-1.86Zm111.51,10.29a5.23,5.23,0,0,0-4.87,7.64c.85,1.65,1.68,3.3,2.46,5a5.22,5.22,0,1,0,9.48-4.35c-.85-1.85-1.72-3.67-2.66-5.47A5.21,5.21,0,0,0,367.51,193.18ZM256,193.34c4.44,0,6.57.6,7,.82.13.13.16.14.41.73a20.9,20.9,0,0,0,3.25,6c2,2.48,5.13,4.76,9.82,6.74s8.45,2.65,11.64,2.42a21.19,21.19,0,0,0,6.71-1.77c1.14-.44.52-.38.88-.26s2,1,4.93,4,3.84,4.67,3.94,5,.19-.32-.28.81a20.86,20.86,0,0,0-1.93,6.67c-.27,3.18.35,7,2.25,11.68s4.12,7.81,6.54,9.9a20.83,20.83,0,0,0,6.05,3.47,6,6,0,0,1,.76.3c.15.3.71,2.1.67,6.17s-.53,5.88-.67,6.18c-.05,0-.2.06-.76.29a20.83,20.83,0,0,0-6.05,3.47c-2.42,2.09-4.64,5.23-6.54,9.91s-2.52,8.49-2.25,11.67a20.62,20.62,0,0,0,1.93,6.63c.47,1.13.38.51.28.85s-1.05,2.07-3.94,5-4.58,3.86-4.93,4,.26.18-.88-.26a21.19,21.19,0,0,0-6.71-1.77c-3.19-.23-7,.46-11.64,2.43s-7.8,4.26-9.82,6.74a20.77,20.77,0,0,0-3.25,6c-.43,1.06,0,.51-.41.72s-2.58.82-7,.82-6.57-.61-7.11-.85c-.07-.05-.07-.17-.29-.7a21.21,21.21,0,0,0-3.28-6c-2-2.48-5.14-4.76-9.83-6.74s-8.44-2.66-11.63-2.43a21.19,21.19,0,0,0-6.71,1.77c-1.15.45-.53.39-.89.27s-2-1-4.93-4-3.83-4.66-4-5.06a3.89,3.89,0,0,1,.31-.79,20.54,20.54,0,0,0,1.93-6.63c.27-3.18-.34-7-2.24-11.68s-4.13-7.82-6.55-9.91a20.83,20.83,0,0,0-6.05-3.47c-.56-.23-.73-.25-.77-.29-.14-.31-.66-2.11-.62-6.18s.47-5.86.62-6.16c.06,0,.24-.06.81-.3a20.77,20.77,0,0,0,6-3.47c2.42-2.09,4.65-5.22,6.55-9.9s2.51-8.5,2.24-11.68a20.62,20.62,0,0,0-1.93-6.63c-.23-.56-.33-.7-.31-.79.15-.41,1.08-2.15,4-5.08s4.58-3.85,4.93-4-.25-.18.89.26a21.19,21.19,0,0,0,6.71,1.77c3.19.23,7-.45,11.63-2.42s7.81-4.26,9.83-6.74a20.82,20.82,0,0,0,3.28-6c.21-.52.21-.66.19-.68.71-.59,4.55-.87,7.21-.86Zm120.08,26.12a5.18,5.18,0,0,0-4,1.81L340.78,257.8a5.22,5.22,0,0,0,4,8.64h10.44a104.34,104.34,0,0,1-46.74,87c-29.28,19.4-66.31,23.88-98,15.41a5.22,5.22,0,0,0-4.35,9.33l1.54,1.07c34.4,23.48,88.14,23.77,128.17.66C376.39,356.52,397,312.74,397,266.44h10.45a5.22,5.22,0,0,0,3.92-8.64l-31.29-36.53A5.2,5.2,0,0,0,376.08,219.46ZM256,224.66A31.33,31.33,0,1,0,287.33,256,31.41,31.41,0,0,0,256,224.66Zm120.08,8,20,23.31h-4.32a5.22,5.22,0,0,0-5.2,5.2v5.25c0,43.23-18.89,83.08-55.88,104.43-23.82,13.75-56.54,19.79-87.3,12.6,25.73,0,51.61-8.39,70.88-21.3a114.82,114.82,0,0,0,51.41-95.73v-5.25a5.21,5.21,0,0,0-5.25-5.2h-4.27ZM276.88,256a20.89,20.89,0,1,1-20.61-20.88A20.81,20.81,0,0,1,276.88,256ZM142.63,303.12a5.65,5.65,0,0,0-2.66.47,5.22,5.22,0,0,0-2.55,6.93c.85,1.85,1.73,3.67,2.67,5.48a5.23,5.23,0,1,0,9.28-4.82c-.85-1.65-1.68-3.35-2.46-5.05a5.22,5.22,0,0,0-4.28-3Zm11.21,20.13a5,5,0,0,0-3.08.95,5.22,5.22,0,0,0-1.23,7.28c1.16,1.64,2.34,3.25,3.58,4.83a5.23,5.23,0,0,0,8.25-6.44c-1.14-1.45-2.25-2.92-3.32-4.43A5.13,5.13,0,0,0,153.84,323.25ZM115,329.06a15.69,15.69,0,0,0-5.16,30.49l0,11.28h-5.2a15.8,15.8,0,0,0-15.69,15.7v20.84a15.8,15.8,0,0,0,15.69,15.69h20.84a15.8,15.8,0,0,0,15.7-15.69v-5.2h26.08a5.23,5.23,0,0,0,5.25-5.2V370.83a5.23,5.23,0,0,0-10.45,0v20.9H141.17v-5.2a15.8,15.8,0,0,0-15.7-15.7h-5.2l0-11.26c6.62-2.59,10.5-8.22,10.5-14.82A15.8,15.8,0,0,0,115,329.06Zm0,10.44A5.23,5.23,0,1,1,115,350a5.23,5.23,0,0,1,0-10.45Zm53.68,1.23a5.21,5.21,0,0,0-3.54,8.95c1.44,1.39,2.89,2.76,4.39,4.08a5.22,5.22,0,1,0,6.91-7.82c-1.38-1.22-2.73-2.46-4.05-3.74a5.23,5.23,0,0,0-3.71-1.47Zm18.37,14.44a5.24,5.24,0,0,0-3.22,9.58c1.67,1.11,3.36,2.2,5.09,3.24a5.23,5.23,0,0,0,5.36-9c-1.59-1-3.13-1.95-4.67-3A5.23,5.23,0,0,0,187.08,355.17Zm-82.45,26.1h20.84a5.15,5.15,0,0,1,5.26,5.26c0,7,0,13.88,0,20.84a5.14,5.14,0,0,1-5.26,5.24H104.63a5.13,5.13,0,0,1-5.24-5.24V386.53A5.14,5.14,0,0,1,104.63,381.27Zm10.42,10.46a5.22,5.22,0,1,0,5.22,5.22A5.22,5.22,0,0,0,115.05,391.73Z"/></g></svg>