<?xml version="1.0" encoding="iso-8859-1"?>
<!-- Generator: Adobe Illustrator 19.0.0, SVG Export Plug-In . SVG Version: 6.00 Build 0)  -->
<svg version="1.1" id="Layer_1" xmlns="http://www.w3.org/2000/svg" xmlns:xlink="http://www.w3.org/1999/xlink" x="0px" y="0px"
	 viewBox="0 0 512 512" style="enable-background:new 0 0 512 512;" xml:space="preserve">
<g id="XMLID_529_">
	<path id="XMLID_55_" style="fill:#069986;" d="M393.656,512H0V118.344C0,52.984,52.984,0,118.344,0H512v393.656
		C512,459.016,459.016,512,393.656,512z"/>
	<g id="XMLID_525_">
		<g id="XMLID_510_">
			<g id="XMLID_511_">
				<rect id="XMLID_512_" x="329.138" y="136.32" style="fill:#FFFFFF;" width="13.298" height="13.298"/>
			</g>
		</g>
		<g id="XMLID_507_">
			<g id="XMLID_508_">
				<rect id="XMLID_509_" x="329.138" y="162.916" style="fill:#FFFFFF;" width="13.298" height="13.298"/>
			</g>
		</g>
		<g id="XMLID_504_">
			<g id="XMLID_505_">
				<rect id="XMLID_506_" x="302.542" y="162.916" style="fill:#FFFFFF;" width="13.298" height="13.298"/>
			</g>
		</g>
		<g id="XMLID_494_">
			<g id="XMLID_495_">
				<path id="XMLID_496_" style="fill:#FFFFFF;" d="M448.817,415.573h-19.947V302.542c0-10.997-8.949-19.947-19.947-19.947h-66.489
					v-33.244c0-10.997-8.949-19.947-19.947-19.947h-46.542c-3.664,0-6.649-2.979-6.649-6.649v-19.947h66.489
					c25.665,0,46.542-20.884,46.542-46.542s-20.877-46.542-46.542-46.542c-0.126,0-0.246,0-0.366,0
					c-3.318-29.88-28.723-53.191-59.474-53.191c-20.811,0-39.687,10.578-50.598,27.972c-3.025-0.918-6.117-1.376-9.242-1.376
					c-16.256,0-29.827,11.735-32.693,27.167c-2.38-0.379-4.787-0.572-7.201-0.572c-25.665,0-46.542,20.884-46.542,46.542
					s20.877,46.542,46.542,46.542h46.542V256c0,3.67-2.985,6.649-6.649,6.649h-26.595c0-10.997-8.949-19.947-19.947-19.947H76.48
					c-10.997,0-19.947,8.949-19.947,19.947V435.52c0,10.997,8.949,19.947,19.947,19.947h93.084c10.997,0,19.947-8.949,19.947-19.947
					V275.947h26.595c10.997,0,19.947-8.949,19.947-19.947v-53.191H256v19.947c0,10.997,8.949,19.947,19.947,19.947h46.542
					c3.664,0,6.649,2.979,6.649,6.649v33.244h-79.786c-10.997,0-19.947,8.949-19.947,19.947v113.031h-19.947
					c-3.67,0-6.649,2.972-6.649,6.649c0,18.331,14.913,33.244,33.244,33.244h186.168c18.331,0,33.244-14.913,33.244-33.244
					C455.466,418.545,452.488,415.573,448.817,415.573z M176.214,435.52c0,3.67-2.985,6.649-6.649,6.649H76.48
					c-3.664,0-6.649-2.979-6.649-6.649v-13.298h106.382V435.52z M176.214,408.924H69.832v-119.68h106.382V408.924z M176.214,275.947
					H69.832v-13.298c0-3.67,2.985-6.649,6.649-6.649h93.084c3.664,0,6.649,2.979,6.649,6.649V275.947z M176.214,189.511
					c-18.331,0-33.244-14.913-33.244-33.244s14.913-33.244,33.244-33.244c3.796,0,7.593,0.678,11.276,2.015
					c2.148,0.771,4.535,0.406,6.33-0.991c1.802-1.39,2.766-3.61,2.553-5.878l-0.14-1.137c-0.027-0.226-0.066-0.445-0.073-0.658
					c0-10.997,8.949-19.947,19.947-19.947c3.058,0,6.13,0.785,9.122,2.34c1.582,0.818,3.437,0.971,5.126,0.412
					c1.695-0.552,3.098-1.775,3.89-3.371c7.925-16.024,23.903-25.977,41.702-25.977c25.665,0,46.542,20.884,46.542,46.363
					c-0.013,0.16-0.033,0.625-0.033,0.785c0,1.961,0.864,3.816,2.36,5.08c1.496,1.27,3.471,1.809,5.406,1.476
					c2.015-0.346,3.836-0.512,5.565-0.512c18.331,0,33.244,14.913,33.244,33.244s-14.913,33.244-33.244,33.244H176.214z
					 M242.702,302.542c0-3.67,2.985-6.649,6.649-6.649h159.573c3.664,0,6.649,2.979,6.649,6.649v113.031H242.702V302.542z
					 M422.222,442.169H236.053c-8.67,0-16.064-5.558-18.81-13.298h18.81h186.168h18.81
					C438.286,436.61,430.892,442.169,422.222,442.169z"/>
			</g>
		</g>
		<g id="XMLID_489_">
			<g id="XMLID_490_">
				<path id="XMLID_491_" style="fill:#FFFFFF;" d="M156.267,302.542H89.778c-3.67,0-6.649,2.972-6.649,6.649v26.596
					c0,3.677,2.979,6.649,6.649,6.649h66.489c3.67,0,6.649-2.972,6.649-6.649v-26.596
					C162.916,305.514,159.937,302.542,156.267,302.542z M149.618,329.138H96.427V315.84h53.191V329.138z"/>
			</g>
		</g>
		<g id="XMLID_484_">
			<g id="XMLID_485_">
				<path id="XMLID_486_" style="fill:#FFFFFF;" d="M329.138,309.191h-66.489c-3.67,0-6.649,2.972-6.649,6.649v79.786
					c0,3.677,2.979,6.649,6.649,6.649h66.489c3.67,0,6.649-2.972,6.649-6.649V315.84
					C335.786,312.163,332.808,309.191,329.138,309.191z M322.489,388.978h-53.191v-66.489h53.191V388.978z"/>
			</g>
		</g>
		<g id="XMLID_481_">
			<g id="XMLID_482_">
				<rect id="XMLID_483_" x="83.129" y="355.733" style="fill:#FFFFFF;" width="79.786" height="13.298"/>
			</g>
		</g>
		<g id="XMLID_478_">
			<g id="XMLID_479_">
				<rect id="XMLID_480_" x="349.084" y="309.191" style="fill:#FFFFFF;" width="53.191" height="13.298"/>
			</g>
		</g>
		<g id="XMLID_475_">
			<g id="XMLID_476_">
				<rect id="XMLID_477_" x="349.084" y="335.787" style="fill:#FFFFFF;" width="53.191" height="13.298"/>
			</g>
		</g>
		<g id="XMLID_472_">
			<g id="XMLID_473_">
				<rect id="XMLID_474_" x="349.084" y="362.382" style="fill:#FFFFFF;" width="53.191" height="13.298"/>
			</g>
		</g>
		<g id="XMLID_469_">
			<g id="XMLID_470_">
				<rect id="XMLID_471_" x="349.084" y="388.978" style="fill:#FFFFFF;" width="53.191" height="13.298"/>
			</g>
		</g>
		<g id="XMLID_466_">
			<g id="XMLID_467_">
				<rect id="XMLID_468_" x="83.129" y="382.329" style="fill:#FFFFFF;" width="79.786" height="13.298"/>
			</g>
		</g>
	</g>
</g>
</svg>
