<?xml version="1.0" encoding="iso-8859-1"?>
<!-- Generator: Adobe Illustrator 19.0.0, SVG Export Plug-In . SVG Version: 6.00 Build 0)  -->
<svg version="1.1" id="Layer_1" xmlns="http://www.w3.org/2000/svg" xmlns:xlink="http://www.w3.org/1999/xlink" x="0px" y="0px"
	 viewBox="0 0 512 512" style="enable-background:new 0 0 512 512;" xml:space="preserve">
<g id="XMLID_530_">
	<path id="XMLID_96_" style="fill:#069986;" d="M393.656,512H0V118.344C0,52.984,52.984,0,118.344,0H512v393.656
		C512,459.016,459.016,512,393.656,512z"/>
	<path id="XMLID_1116_" style="fill:#FFFFFF;" d="M114.464,391.1h89.102c-1.698,6.504-6.433,16.038-19.718,19.441
		c-6.44,0.701-11.483,6.105-11.483,12.725v12.867c0,7.096,5.771,12.867,12.867,12.867h141.533c7.096,0,12.867-5.771,12.867-12.867
		v-12.867c0-6.62-5.05-12.024-11.483-12.725c-13.137-3.365-17.91-12.918-19.66-19.441h89.044c14.192,0,25.733-11.541,25.733-25.733
		V146.634c0-14.192-11.541-25.733-25.733-25.733h-40.041c-8.55-33.408-38.967-57.9-74.871-57.9
		c-29.098,0-55.397,16.025-68.663,41.328c-3.616-1.126-7.398-1.711-11.194-1.711c-13.664,0-25.572,7.347-32.122,18.284H114.47
		c-14.192,0-25.733,11.541-25.733,25.733v218.733c0,14.192,11.541,25.733,25.733,25.733H114.464z M185.23,436.133v-12.867h141.533
		l0.013,12.867H185.23z M304.343,410.4h-96.686c5.243-6.189,7.964-13.343,9.084-19.3h78.512c1.119,5.957,3.841,13.111,9.084,19.3
		H304.343z M397.53,378.233H114.464c-7.096,0-12.867-5.771-12.867-12.867V352.5h308.799v12.867
		C410.397,372.462,404.626,378.233,397.53,378.233z M178.128,139.859c0-13.439,11.052-24.382,24.627-24.382
		c4.021,0,7.862,0.939,11.419,2.805c1.595,0.83,3.474,0.959,5.153,0.354c1.692-0.605,3.049-1.891,3.751-3.545
		c10.1-23.829,33.473-39.224,59.534-39.224c34.148,0,62.416,26.492,64.365,60.312c0.135,2.393,1.589,4.51,3.776,5.494
		c16.694,7.521,27.477,24.093,27.477,42.209c0,25.579-20.998,46.384-46.802,46.384H176.134c-23.366,0-42.37-18.837-42.37-41.984
		c0-21.86,16.559-39.829,38.516-41.791C175.6,146.196,178.128,143.192,178.128,139.859z M294.597,307.467
		c0,3.551-2.882,6.433-6.433,6.433s-6.433-2.882-6.433-6.433s2.882-6.433,6.433-6.433S294.597,303.915,294.597,307.467z
		 M230.263,307.467c0,3.551-2.882,6.433-6.433,6.433s-6.433-2.882-6.433-6.433s2.882-6.433,6.433-6.433
		S230.263,303.915,230.263,307.467z M114.464,133.767h51.396c-0.039,0.225-0.129,0.431-0.161,0.663
		c-25.894,4.851-44.802,27.123-44.802,53.853c0,30.249,24.781,54.851,55.237,54.851h9.097v25.733h-20.484
		c-2.663-7.469-9.74-12.867-18.116-12.867c-10.641,0-19.3,8.659-19.3,19.3c0,10.641,8.659,19.3,19.3,19.3
		c8.376,0,15.453-5.398,18.116-12.867h20.484c7.096,0,12.867-5.771,12.867-12.867v-25.733h19.3v46.217
		c-7.469,2.663-12.867,9.74-12.867,18.116c0,10.641,8.659,19.3,19.3,19.3s19.3-8.659,19.3-19.3c0-8.376-5.398-15.453-12.867-18.116
		v-46.217h51.467v46.217c-7.469,2.663-12.867,9.74-12.867,18.116c0,10.641,8.659,19.3,19.3,19.3s19.3-8.659,19.3-19.3
		c0-8.376-5.398-15.453-12.867-18.116v-46.217h19.3v25.733c0,7.096,5.771,12.867,12.867,12.867h20.484
		c2.663,7.469,9.74,12.867,18.116,12.867c10.641,0,19.3-8.659,19.3-19.3c0-10.641-8.659-19.3-19.3-19.3
		c-8.376,0-15.453,5.398-18.116,12.867h-20.484v-25.733h4.664c32.9,0,59.669-26.582,59.669-59.251
		c0-20.529-10.892-39.385-28.165-50.116h34.598c7.096,0,12.867,5.771,12.867,12.867v193H101.597v-193
		C101.597,139.538,107.368,133.767,114.464,133.767z M153.064,275.3c0,3.551-2.882,6.433-6.433,6.433
		c-3.551,0-6.433-2.882-6.433-6.433s2.882-6.433,6.433-6.433C150.182,268.867,153.064,271.749,153.064,275.3z M358.93,275.3
		c0-3.551,2.882-6.433,6.433-6.433s6.433,2.882,6.433,6.433s-2.882,6.433-6.433,6.433S358.93,278.851,358.93,275.3z"/>
</g>
</svg>
