<?xml version="1.0" encoding="utf-8"?>
<!-- Generator: Adobe Illustrator 24.3.0, SVG Export Plug-In . SVG Version: 6.00 Build 0)  -->
<svg version="1.1" id="Layer_1" xmlns="http://www.w3.org/2000/svg" xmlns:xlink="http://www.w3.org/1999/xlink" x="0px" y="0px"
	 viewBox="0 0 512 512" style="enable-background:new 0 0 512 512;" xml:space="preserve">
<style type="text/css">
	.st0{fill:#069986;}
	.st1{fill:#FFFFFF;}
</style>
<path id="XMLID_2_" class="st0" d="M393.7,512H0V118.3C0,53,53,0,118.3,0H512v393.7C512,459,459,512,393.7,512z"/>
<g>
	<path class="st1" d="M397.6,188.5h12.3c0-27.1-22.2-49.3-49.3-49.3v12.3C381,151.6,397.6,168.2,397.6,188.5z"/>
	<path class="st1" d="M134.6,146c-11.1-29.6,21-65.9,57.3-43.1c0,0,24.6-25.8,64-25.8c56.7,0,80.7,45.6,85,55.4
		c44.3-22.2,94.8,18.5,78.2,68.4c0,0,15.4,13.6,15.4,36.3c0,27.1-22.2,49.3-49.3,49.3h-92.3v12.3h92.4c33.9,0,61.6-27.7,61.6-61.6
		c0-14.2-4.9-28.3-14.2-39.4c11.7-41.9-25.2-97.3-86.2-80.7c-18.5-32.5-53-52.2-90.6-52.2c-24.1,0-46.8,8-65.3,23.4
		c-22.8-13-72.1,1.2-70.2,49.8c-22.2,9.9-36.9,31.4-36.9,56c-11.7,11.7-18.5,27.8-18.5,43.8c0,33.9,29.6,64.6,67.8,61.6v-12.3
		c-32.1,2.5-55.4-22.2-55.4-49.3c0-24.6,18.5-38.8,18.5-38.8S90.3,160.2,134.6,146z"/>
	<path class="st1" d="M416.1,348.6h-12.3v-12.3c0-10.5-8-18.5-18.5-18.5h-61.6c-10.5,0-18.5,8-18.5,18.5v61.6c0,3.7-2.5,6.1-6.1,6.1
		h-73.9c-3.7,0-6.1-2.5-6.1-6.1v-43.1h67.8V219.3h-86.3v-24.7h-61.6v160.2h67.8V398c0,10.5,8,18.5,18.5,18.5H299
		c10.5,0,18.5-8,18.5-18.5v-61.6c0-3.7,2.5-6.1,6.1-6.1h61.6c3.7,0,6.1,2.5,6.1,6.1v12.3H379c-10.5,0-18.5,8-18.5,18.5v61.6
		c0,10.5,8,18.5,18.5,18.5H416c10.5,0,18.5-8,18.5-18.5v-61.6C434.6,356.7,426.6,348.6,416.1,348.6z M151.3,207h36.9v12.3h-36.9V207
		z M274.4,231.6v12.3H151.3v-12.3H274.4z M151.3,256.3h123.2v86.2H151.3V256.3z M416.1,361c3.7,0,6.1,2.5,6.1,6.1v12.3h-18.5V361
		H416.1z M379.1,361h12.3v18.5H373v-12.3C373,363.4,375.5,361,379.1,361z M416.1,434.9h-36.9c-3.7,0-6.1-2.5-6.1-6.1v-37h49.3v36.9
		C422.3,432.4,419.8,434.9,416.1,434.9z"/>
</g>
</svg>
