<?xml version="1.0" encoding="utf-8"?>
<!-- Generator: Adobe Illustrator 24.3.0, SVG Export Plug-In . SVG Version: 6.00 Build 0)  -->
<svg version="1.1" id="Layer_1" xmlns="http://www.w3.org/2000/svg" xmlns:xlink="http://www.w3.org/1999/xlink" x="0px" y="0px"
	 viewBox="0 0 512 512" style="enable-background:new 0 0 512 512;" xml:space="preserve">
<style type="text/css">
	.st0{fill:#069986;}
	.st1{fill:#FFFFFF;}
</style>
<path id="XMLID_2_" class="st0" d="M393.7,512H0V118.3C0,53,53,0,118.3,0H512v393.7C512,459,459,512,393.7,512z"/>
<g id="_x33_0_drone">
</g>
<g id="_x32_9_biometrics">
</g>
<g id="_x32_8_virtual_reality">
</g>
<g id="_x32_7_augmented_reality">
</g>
<g id="_x32_6_wireless_router">
</g>
<g id="_x32_5_data_analytics">
</g>
<g id="_x32_4_remote_control">
</g>
<g id="_x32_3_connected_appliance">
</g>
<g id="_x32_2_agriculture">
</g>
<g id="_x32_1_healthcare">
</g>
<g id="_x32_0_smart_city">
</g>
<g id="_x31_9_industrial">
</g>
<g id="_x31_8_smart_gardening">
</g>
<g id="_x31_7_energy_monitoring">
</g>
<g id="_x31_6_home_automation">
</g>
<g id="_x31_5_fitness_tracker">
</g>
<g id="_x31_4_connected_car">
</g>
<g id="_x31_3_smart_speaker">
</g>
<g id="_x31_2_voice_assistant">
</g>
<g id="_x31_1_smart_tv">
</g>
<g id="_x31_0_smart_washing_machine">
</g>
<g id="_x39__smart_refrigerator">
</g>
<g id="_x38__smart_security_camera">
</g>
<g id="_x37__smart_lock">
</g>
<g id="_x36__smart_lighting">
</g>
<g id="_x35__smart_thermostat">
</g>
<g id="_x34__wearable_technology">
</g>
<g id="_x33__cloud_computing">
</g>
<g id="_x32__connected_device">
	<g>
		<path class="st1" d="M441.5,285.7h-60.2v-3.8c25.8-3.3,45.4-25.2,45.2-50.9c-0.1-8.4-2.3-16.5-6.1-23.6h8.1
			c7.5,0,13.6-6.1,13.6-13.6v-60.7c2.7-0.9,5.4-2.4,7.5-4.6c7.4-7.4,7.4-19.4,0-26.8c-7.4-7.4-19.4-7.4-26.8,0
			c-7.4,7.4-7.4,19.4,0,26.8c2.2,2.2,4.7,3.7,7.5,4.6v60.8c0,1.1-0.9,1.9-1.9,1.9h-16.8c-3.5-3.5-7.5-6.5-12.1-8.9
			c-1.5-0.8-2.4-2.6-2.3-4.4c0.2-1.6,0.2-3.2,0.2-4.7c0-21.8-10.9-41.1-27.5-52.6V93.8c2.8-0.9,5.4-2.5,7.5-4.6
			c3.6-3.6,5.5-8.3,5.5-13.4c0-5.1-1.9-9.8-5.5-13.4c-7.4-7.4-19.4-7.4-26.8,0c-7.4,7.4-7.4,19.4,0,26.8c2.2,2.2,4.7,3.7,7.5,4.6
			v24.7c-7.7-3.3-16.1-5.1-25-5.1c-1.2,0-5.5,0.4-6.4,0.5c-2.4,0.2-4.5-1.4-4.9-3.7C316.7,79.4,290.1,57,258.8,57
			c-25,0-48,14.7-58.4,37.6c-0.9,2-3,3.1-5.1,2.7c-4.5-1-9.1-1.5-13.7-1.5c-11,0-21.8,2.8-31.3,8.2c-2.8,1.6-3.8,5.1-2.3,7.9
			c1.6,2.8,5.1,3.8,7.9,2.3c7.8-4.4,16.6-6.7,25.6-6.7c3.8,0,7.5,0.4,11.2,1.2c7.3,1.6,15-2.3,18.2-9.3
			c8.6-18.7,27.3-30.7,47.7-30.7c25.7,0,47.4,18.4,51.7,43.5c1.4,8.2,9.1,14.1,17.5,13.3c3-0.3,5-0.4,5.3-0.4
			c28.9,0,52.5,23.6,52.5,52.5c0,1.3-0.1,2.6-0.2,3.9c-0.5,6.5,2.8,12.6,8.4,15.6c12.6,6.8,20.5,19.8,20.8,34.1
			c0.2,19.4-14.2,35.8-33.5,39v-21.9c0-9.6-7.9-17.5-17.5-17.5H148.2c-9.6,0-17.5,7.9-17.5,17.5v18.6c-20.1-8.1-33.6-27.4-33.5-49
			c0.1-18,9.3-34.4,24.5-44c4.7-3,7.5-8.2,7.5-13.9c0-11,3.4-21.6,9.8-30.6c1.9-2.6,1.2-6.3-1.3-8.2c-2.6-1.9-6.3-1.2-8.2,1.3
			c-7.9,11-12,23.9-12,37.3v0.1c0,1.7-0.8,3.2-2.1,4c-16.8,10.7-27.5,28.1-29.6,47.6H70.5c-7.5,0-13.6,6.1-13.6,13.6V356
			c0,7.5,6.1,13.6,13.6,13.6h29.1v33.1c0,7.5,6.1,13.6,13.6,13.6h46.6c7.5,0,13.6-6.1,13.6-13.6v-1.8h43.3l-5.9,18.6h-20.4
			c-9.9,0-17.9,8-17.9,17.9v7c0,5.8,4.7,10.7,10.7,10.7h145.4c5.8,0,10.7-4.7,10.7-10.7v-7c0-9.9-8-17.9-17.9-17.9H301l-5.9-18.6
			h53.2v25.7c0,7.5,6.1,13.6,13.6,13.6h79.4c7.5,0,13.6-6.1,13.6-13.6V299.3C455.1,291.8,448.9,285.7,441.5,285.7L441.5,285.7z
			 M431,109.9c1.4-1.4,3.3-2.1,5.1-2.1c1.9,0,3.7,0.7,5.1,2.1c2.8,2.8,2.8,7.4,0,10.2c-2.8,2.8-7.4,2.8-10.2,0
			C428.2,117.2,428.2,112.7,431,109.9z M359,70.7c1.4-1.4,3.3-2.1,5.1-2.1s3.7,0.7,5.1,2.1s2.1,3.2,2.1,5.1c0,1.9-0.8,3.7-2.1,5.1
			c-1.4,1.4-3.2,2.1-5.1,2.1c-1.9,0-3.7-0.8-5.1-2.1C356.2,78.1,356.2,73.5,359,70.7L359,70.7z M70.5,358c-1.1,0-1.9-0.9-1.9-1.9
			V225.2c0-1.1,0.9-1.9,1.9-1.9h15.2c2.1,25.7,19.8,47.9,44.9,56v32h-17.5c-7.5,0-13.6,6.1-13.6,13.6V358H70.5L70.5,358z
			 M161.7,402.8c0,1.1-0.9,1.9-1.9,1.9h-46.6c-1.1,0-1.9-0.9-1.9-1.9v-78c0-1.1,0.9-1.9,1.9-1.9h46.6c1.1,0,1.9,0.9,1.9,1.9V402.8z
			 M327.7,437.5v6H184.3v-6c0-3.4,2.8-6.2,6.2-6.2h131C324.9,431.3,327.7,434.1,327.7,437.5z M288.9,419.7h-65.8l5.9-18.6h54
			L288.9,419.7z M443.4,426.8c0,1.1-0.9,1.9-1.9,1.9h-79.4c-1.1,0-1.9-0.9-1.9-1.9v-76.4c0-3.2-2.6-5.8-5.8-5.8s-5.8,2.6-5.8,5.8v39
			h-175v-64.5c0-7.5-6.1-13.6-13.6-13.6h-17.4v-63c0-3.2,2.6-5.8,5.8-5.8h215.6c3.2,0,5.8,2.6,5.8,5.8v37.5h-7.5
			c-7.5,0-13.6,6.1-13.6,13.6v25.6c0,3.2,2.6,5.8,5.8,5.8s5.8-2.6,5.8-5.8v-25.6c0-1.1,0.9-1.9,1.9-1.9h79.4c1.1,0,1.9,0.9,1.9,1.9
			V426.8z"/>
		<path class="st1" d="M411.7,407.8h-19.9c-3.2,0-5.8,2.6-5.8,5.8c0,3.2,2.6,5.8,5.8,5.8h19.9c3.2,0,5.8-2.6,5.8-5.8
			C417.5,410.4,414.9,407.8,411.7,407.8z"/>
		<path class="st1" d="M141.8,385.8h-9.6c-3.2,0-5.8,2.6-5.8,5.8c0,3.2,2.6,5.8,5.8,5.8h9.6c3.2,0,5.8-2.6,5.8-5.8
			C147.6,388.4,145,385.8,141.8,385.8z"/>
		<path class="st1" d="M256,266.9c-27.1,0-49.1,22-49.1,49.1c0,27.1,22,49.1,49.1,49.1s49.1-22,49.1-49.1
			C305.1,288.9,283.1,266.9,256,266.9L256,266.9z M256,353.4c-20.6,0-37.4-16.8-37.4-37.4c0-20.6,16.8-37.4,37.4-37.4
			s37.4,16.8,37.4,37.4C293.4,336.6,276.6,353.4,256,353.4L256,353.4z"/>
		<path class="st1" d="M269.3,301.1l-17.4,17.4l-9.2-9.2c-2.3-2.3-6-2.3-8.2,0c-2.3,2.3-2.3,6,0,8.2l13.3,13.3
			c1.2,1.2,2.6,1.7,4.1,1.7c1.5,0,3-0.5,4.1-1.7l21.5-21.5c2.3-2.3,2.3-6,0-8.2S271.5,298.8,269.3,301.1L269.3,301.1z"/>
	</g>
</g>
<g id="_x31__smart_home">
</g>
</svg>
