<?xml version="1.0" encoding="iso-8859-1"?>
<!-- Generator: Adobe Illustrator 19.0.0, SVG Export Plug-In . SVG Version: 6.00 Build 0)  -->
<svg version="1.1" id="Layer_1" xmlns="http://www.w3.org/2000/svg" xmlns:xlink="http://www.w3.org/1999/xlink" x="0px" y="0px"
	 viewBox="0 0 512 512" style="enable-background:new 0 0 512 512;" xml:space="preserve">
<g id="XMLID_275_">
	<path id="XMLID_2_" style="fill:#069986;" d="M393.656,512H0V118.344C0,52.984,52.984,0,118.344,0H512v393.656
		C512,459.016,459.016,512,393.656,512z"/>
	<g id="XMLID_826_">
		<path id="XMLID_812_" style="fill:#FFFFFF;" d="M438.361,168.966c-11.729-13.402-27.55-22.561-45.012-26.059
			C379.224,91.5,332.08,53.62,276.247,53.62c-41.286-0.004-79.747,20.968-102.106,55.676c-25.131-6.949-51.136,7.79-58.085,32.921
			c-0.122,0.441-0.237,0.884-0.346,1.328c-43.48,10.426-70.275,54.124-59.85,97.604c2.872,11.976,8.438,23.139,16.275,32.64
			l10.402-8.591c-23.706-28.745-19.621-71.264,9.123-94.97c12.083-9.965,27.258-15.416,42.92-15.417
			c2.049,0,4.115,0.092,6.141,0.275l1.211-13.438c-2.427-0.218-4.901-0.329-7.351-0.329c-1.332,0-2.656,0.033-3.972,0.098
			c6.167-14.268,21.29-22.469,36.612-19.857c-1.695,3.458-3.249,6.997-4.621,10.631l12.624,4.763
			c21.05-55.783,83.335-83.939,139.118-62.89c42.02,15.856,69.834,56.072,69.842,100.984h13.492
			c-0.001-5.861-0.425-11.714-1.268-17.514c28.675,8.518,48.379,34.823,48.49,64.736c0.031,13.889-4.254,27.444-12.262,38.791
			l11.031,7.769C465.125,238.297,462.934,197.053,438.361,168.966L438.361,168.966z"/>
		<circle id="XMLID_811_" style="fill:#FFFFFF;" cx="114.343" cy="343.698" r="6.746"/>
		<circle id="XMLID_810_" style="fill:#FFFFFF;" cx="134.581" cy="343.698" r="6.746"/>
		<circle id="XMLID_809_" style="fill:#FFFFFF;" cx="154.819" cy="343.698" r="6.746"/>
		<rect id="XMLID_808_" x="175.057" y="336.952" style="fill:#FFFFFF;" width="40.476" height="13.492"/>
		<circle id="XMLID_807_" style="fill:#FFFFFF;" cx="114.343" cy="289.73" r="6.746"/>
		<circle id="XMLID_806_" style="fill:#FFFFFF;" cx="134.581" cy="289.73" r="6.746"/>
		<circle id="XMLID_805_" style="fill:#FFFFFF;" cx="154.819" cy="289.73" r="6.746"/>
		<rect id="XMLID_804_" x="175.057" y="282.984" style="fill:#FFFFFF;" width="40.476" height="13.492"/>
		<path id="XMLID_799_" style="fill:#FFFFFF;" d="M215.533,202.032h-101.19c-14.896,0.017-26.967,12.088-26.984,26.984v13.492
			c-0.001,7.751,3.339,15.126,9.165,20.238c-5.826,5.112-9.166,12.487-9.165,20.238v13.492c-0.001,7.751,3.339,15.126,9.165,20.238
			c-5.826,5.112-9.166,12.487-9.165,20.238v13.492c0.017,14.896,12.088,26.967,26.984,26.984h101.19
			c14.896-0.017,26.967-12.088,26.984-26.984v-13.492c0.001-7.751-3.339-15.126-9.165-20.238c5.826-5.112,9.166-12.487,9.165-20.238
			v-13.492c0.001-7.751-3.339-15.126-9.165-20.238c5.826-5.112,9.166-12.487,9.165-20.238v-13.492
			C242.5,214.12,230.429,202.049,215.533,202.032z M229.025,336.952v13.492c-0.009,7.448-6.044,13.483-13.492,13.492h-101.19
			c-7.448-0.009-13.484-6.044-13.492-13.492v-13.492c0.009-7.448,6.044-13.484,13.492-13.492h101.19
			C222.981,323.469,229.017,329.504,229.025,336.952z M229.025,282.984v13.492c-0.009,7.448-6.044,13.484-13.492,13.492h-101.19
			c-7.448-0.009-13.484-6.044-13.492-13.492v-13.492c0.009-7.448,6.044-13.483,13.492-13.492h101.19
			C222.981,269.501,229.017,275.536,229.025,282.984z M114.343,256c-7.448-0.009-13.484-6.044-13.492-13.492v-13.492
			c0.009-7.448,6.044-13.484,13.492-13.492h101.19c7.448,0.009,13.484,6.044,13.492,13.492v13.492
			c-0.009,7.448-6.044,13.484-13.492,13.492H114.343z"/>
		<circle id="XMLID_798_" style="fill:#FFFFFF;" cx="114.343" cy="235.762" r="6.746"/>
		<circle id="XMLID_797_" style="fill:#FFFFFF;" cx="134.581" cy="235.762" r="6.746"/>
		<circle id="XMLID_796_" style="fill:#FFFFFF;" cx="154.819" cy="235.762" r="6.746"/>
		<rect id="XMLID_795_" x="175.057" y="229.016" style="fill:#FFFFFF;" width="40.476" height="13.492"/>
		<path id="XMLID_791_" style="fill:#FFFFFF;" d="M397.675,235.762h-53.968c-14.896,0.017-26.967,12.088-26.984,26.984v40.476
			c0.017,14.896,12.088,26.967,26.984,26.984h53.968c14.896-0.017,26.967-12.088,26.984-26.984v-40.476
			C424.642,247.85,412.571,235.779,397.675,235.762z M411.167,262.746v3.63c-4.097-2.381-8.753-3.634-13.492-3.63h-14.476
			c-5.115,0.018-9.795-2.875-12.067-7.457l-2.305-4.611c-0.243-0.486-0.506-0.957-0.775-1.424h29.623
			C405.123,249.263,411.159,255.298,411.167,262.746z M411.167,303.222c-0.009,7.448-6.044,13.484-13.492,13.492h-53.968
			c-7.448-0.009-13.484-6.044-13.492-13.492v-40.476c0.009-7.448,6.044-13.483,13.492-13.492h0.984
			c5.115-0.018,9.795,2.875,12.067,7.458l2.305,4.611c4.545,9.166,13.905,14.951,24.136,14.916h14.476
			c7.448,0.009,13.484,6.044,13.492,13.492V303.222z"/>
		<path id="XMLID_787_" style="fill:#FFFFFF;" d="M397.675,363.936h-53.968c-14.896,0.017-26.967,12.088-26.984,26.984v40.476
			c0.017,14.896,12.088,26.967,26.984,26.984h53.968c14.896-0.017,26.967-12.088,26.984-26.984V390.92
			C424.642,376.024,412.571,363.953,397.675,363.936z M411.167,390.92v3.63c-4.097-2.381-8.753-3.634-13.492-3.63h-14.476
			c-5.115,0.018-9.795-2.875-12.067-7.458l-2.305-4.611c-0.243-0.486-0.506-0.957-0.775-1.424h29.623
			C405.123,377.437,411.159,383.472,411.167,390.92z M411.167,431.396c-0.009,7.448-6.044,13.483-13.492,13.492h-53.968
			c-7.448-0.009-13.484-6.044-13.492-13.492V390.92c0.009-7.448,6.044-13.484,13.492-13.492h0.984
			c5.115-0.018,9.795,2.875,12.067,7.458l2.305,4.611c4.545,9.166,13.905,14.951,24.136,14.916h14.476
			c7.448,0.009,13.484,6.044,13.492,13.492V431.396z"/>
		<path id="XMLID_786_" style="fill:#FFFFFF;" d="M249.263,276.238v13.492h20.238v128.174c0,3.726,3.02,6.746,6.746,6.746h26.984
			v-13.492h-20.238V289.73h20.238v-13.492H249.263z"/>
	</g>
</g>
</svg>
