<svg id="Layer_1" data-name="Layer 1" xmlns="http://www.w3.org/2000/svg" viewBox="0 0 512 512"><defs><style>.cls-1{fill:#069986;}.cls-2{fill:#fff;stroke:#fff;stroke-miterlimit:10;stroke-width:3px;}</style></defs><path class="cls-1" d="M118.34,0H512a0,0,0,0,1,0,0V393.66A118.34,118.34,0,0,1,393.66,512H0a0,0,0,0,1,0,0V118.34A118.34,118.34,0,0,1,118.34,0Z"/><path class="cls-2" d="M200.94,266.24a4.76,4.76,0,0,0-3.36-1.25,70.15,70.15,0,0,0-23.68-4.16c-40.41,0-73.3,34.15-73.3,76.11a77.25,77.25,0,0,0,19.82,51.87c0,.05,0,.1.1.1a0,0,0,0,1,0,0,71.73,71.73,0,0,0,53.33,24c40.41,0,73.31-34.15,73.31-76.11C247.21,304.84,228,277.4,200.94,266.24ZM222.32,379.7a55.52,55.52,0,0,0-11.07-7.41A154.78,154.78,0,0,0,217,308.75a49.78,49.78,0,0,0,10.27-7.81,68.27,68.27,0,0,1-4.91,78.76Zm-43.66,23.23V373.29a77,77,0,0,1,20.18,4.21,92.41,92.41,0,0,1-13.92,24.63,51.23,51.23,0,0,1-6.26.8Zm-14.32-1.15a88.34,88.34,0,0,1-16.88-24.63,78.24,78.24,0,0,1,21.43-4v29.74c-1.4-.1-2.75-.3-4.1-.5a5.07,5.07,0,0,0-.45-.65Zm-16.18-4.3A64.31,64.31,0,0,1,131,385.71,54.11,54.11,0,0,1,138.5,381a101.68,101.68,0,0,0,9.66,16.48Zm-9.91-61.54a95,95,0,0,1,3-22.48,91.78,91.78,0,0,0,27.64,5v45a87.46,87.46,0,0,0-25.13,4.65,97.1,97.1,0,0,1-5.51-32.14Zm30.64-65.14v37.9a80.31,80.31,0,0,1-24.83-4.56,91.09,91.09,0,0,1,20.33-32.84C165.94,271.15,167.39,271,168.89,270.8Zm26.39,3.7c5.06,6.26,8.81,16.37,10.92,28.54-7.66,3.21-17,5.16-27.49,5.61V270.8A61.38,61.38,0,0,1,195.28,274.5ZM202,368.23a88.26,88.26,0,0,0-23.33-4.7V318.46a93.51,93.51,0,0,0,28.84-5.3A152.76,152.76,0,0,1,202,368.23ZM208,381.6a46.33,46.33,0,0,1,7.66,5.21,66.14,66.14,0,0,1-15.32,10.37A121.68,121.68,0,0,0,208,381.6Zm13.32-88.72a36.28,36.28,0,0,1-6.06,5.3,105.32,105.32,0,0,0-4.31-15.12,64.21,64.21,0,0,1,10.37,9.82ZM147.46,276.6a105.2,105.2,0,0,0-12.22,23.34,41.9,41.9,0,0,1-8.81-7.11A65.31,65.31,0,0,1,147.46,276.6Zm-26.84,24.19a52.32,52.32,0,0,0,11.62,8.71,101.54,101.54,0,0,0,2.6,62.39,58,58,0,0,0-10.36,6.56,68.41,68.41,0,0,1-3.86-77.66Z"/><path class="cls-2" d="M121.17,256.83a4.87,4.87,0,0,0,4.81,4.95h.1a4.85,4.85,0,0,0,4.86-4.8c.15-8.62-.2-17.43-.6-26.84-.8-19.88-1.6-40.41,2.5-57.94,6.31-27,41.51-25.63,69.8-24.58,7,.25,13.67.5,19.38.3a4.88,4.88,0,0,0,4.71-5.06,4.82,4.82,0,0,0-5.06-4.7c-5.36.2-11.82,0-18.68-.3-30.19-1.11-71.55-2.66-79.71,32.14-4.41,18.78-3.56,40-2.76,60.54.4,9.21.75,18,.65,26.29Z"/><path class="cls-2" d="M368.73,271.5a4.89,4.89,0,0,0-9.77.05c.06,9.76.11,26.23.21,42.76s.15,32.94.2,42.71c0,4.1-.15,7.71-2.06,9.86-2.3,2.56-7.21,3.16-12.16,3.36-24.19,1.15-73.81.85-94.14.1a4.88,4.88,0,1,0-.35,9.76c10.87.4,30,.7,49.27.7,17.07,0,34.25-.2,45.72-.75,7.06-.35,14.27-1.35,18.92-6.61s4.56-11.91,4.56-16.37c0-9.77-.1-26.24-.2-42.76s-.15-33.05-.2-42.81Z"/><path class="cls-2" d="M392.16,164.19A46.94,46.94,0,0,0,355.61,156c-3.76-24.58-21.88-46.77-45-54.08-25.54-8.11-54.83,1.21-71.26,22.64a50.49,50.49,0,0,0-9.66,35.8c-17.68,5.51-32,19.53-37.15,36.75-5.86,19.53,1.2,42.21,16.82,53.93,14.47,10.86,34.8,11.36,49.42,2,4.51,8.86,15.22,14.17,25.59,15.07.7.05,1.4.1,2.1.1A28.59,28.59,0,0,0,309,256.58a26.52,26.52,0,0,0,23,11.06c11.66-.3,22.68-8.06,27.59-18.73,16.37,4.46,32.59-1.75,43.26-16.82,14.77-20.93,9.81-52.68-10.72-67.9Zm2.66,62.24c-9.12,12.87-22.74,17.28-36.46,11.77a4.91,4.91,0,0,0-6.56,3.35c-2.3,9.07-10.91,16.08-20.12,16.33-9,.2-15.33-4.71-18.18-13.87a5,5,0,0,0-4.86-3.46,4.85,4.85,0,0,0-4.55,3.81c-1.91,8.36-10.57,14.72-18.93,14.07-8.81-.75-18.38-5.91-18.83-13.92a4.84,4.84,0,0,0-3.1-4.26,4.61,4.61,0,0,0-1.8-.35,4.89,4.89,0,0,0-3.41,1.35c-11,10.57-30.19,11.47-42.86,2-12.42-9.37-18-27.54-13.32-43.32,4.51-15.12,18.33-27.69,34.35-31.24a4.91,4.91,0,0,0,3.7-5.81,41.28,41.28,0,0,1,7.16-32.45c13.77-17.92,39.21-26,60.59-19.27,21.18,6.71,37.51,28.29,38.81,51.22a5,5,0,0,0,2.15,3.76,4.86,4.86,0,0,0,4.31.55,37,37,0,0,1,33.44,5.25c16.13,12.12,20.18,38.06,8.47,54.53Z"/><path class="cls-2" d="M312.65,142a33.79,33.79,0,0,0-14.27-7.86A36,36,0,0,0,270,138.31c-6.36,4.1-8.36,8.51-7.71,9,.8.75,4-2.2,10-4.66a38.78,38.78,0,0,1,24.29-1.85c9.26,2.35,15.72,9.06,20.32,14s7.57,8.26,8.42,7.71-.7-4.61-4.51-10.71A49.84,49.84,0,0,0,312.65,142Z"/></svg>