<svg id="Layer_1" data-name="Layer 1" xmlns="http://www.w3.org/2000/svg" viewBox="0 0 512 512"><defs><style>.cls-1{fill:#069986;}.cls-2,.cls-3{fill:#fff;stroke:#fff;stroke-miterlimit:10;}.cls-2{stroke-width:3px;}</style></defs><path class="cls-1" d="M118.34,0H512a0,0,0,0,1,0,0V393.66A118.34,118.34,0,0,1,393.66,512H0a0,0,0,0,1,0,0V118.34A118.34,118.34,0,0,1,118.34,0Z"/><path class="cls-2" d="M146.84,305.55H365.16a62.56,62.56,0,0,0,5.15-124.91,52.22,52.22,0,0,0-51.88-47,51.54,51.54,0,0,0-26.29,7.14c-15-26.62-42.87-43.52-72.49-43.52-45.77,0-83,37.67-83.33,84.08-29.56,5.15-52,31.28-52,61.7a62.58,62.58,0,0,0,62.56,62.51Zm-4.67-114.07a5.35,5.35,0,0,0,4.88-5.53c-.05-1.28-.1-2.57-.1-3.91,0-40.78,32.57-73.94,72.59-73.94C247,108.1,272.82,125,285.16,151a5.45,5.45,0,0,0,3.6,2.9,5.25,5.25,0,0,0,4.5-1,40.72,40.72,0,0,1,25-8.47,41.45,41.45,0,0,1,41.42,41.42,5.37,5.37,0,0,0,5.36,5.36,51.83,51.83,0,0,1,0,103.66H146.84a51.8,51.8,0,0,1-4.67-103.39Z"/><path class="cls-2" d="M250.77,274.38a57.1,57.1,0,0,0,25-5.8v4.72a5.37,5.37,0,1,0,10.73,0V256a5.39,5.39,0,0,0-5.37-5.37H263.75a5.37,5.37,0,0,0,0,10.73h1.18A46.47,46.47,0,0,1,204.14,217a45.79,45.79,0,0,1,7.51-25.32,5.39,5.39,0,0,0-9-5.91A56.71,56.71,0,0,0,193.36,217a57.46,57.46,0,0,0,57.41,57.36Z"/><path class="cls-2" d="M220.45,183.43h17.33a5.37,5.37,0,1,0,0-10.73H236.6a46.5,46.5,0,0,1,60.79,44.37,46.05,46.05,0,0,1-7.51,25.38,5.38,5.38,0,0,0,9,5.85,57.29,57.29,0,0,0-73.08-82.79v-4.72a5.37,5.37,0,1,0-10.73,0v17.33A5.36,5.36,0,0,0,220.45,183.43Z"/><path class="cls-2" d="M370.31,331.25H141.64a41.75,41.75,0,1,0,0,83.49H370.36a41.75,41.75,0,1,0-.05-83.49Zm0,72.76H141.64a31,31,0,1,1,0-62H370.36a31,31,0,1,1-.05,62Z"/><path class="cls-3" d="M336.11,352H142.69a21,21,0,1,0,0,42H336.11a5.37,5.37,0,0,0,5.36-5.36V357.43A5.39,5.39,0,0,0,336.11,352Zm-5.37,31.18h-188a10.25,10.25,0,0,1,0-20.5H330.74Z"/></svg>