<?xml version="1.0" encoding="utf-8"?>
<!-- Generator: Adobe Illustrator 24.3.0, SVG Export Plug-In . SVG Version: 6.00 Build 0)  -->
<svg version="1.1" id="Layer_1" xmlns="http://www.w3.org/2000/svg" xmlns:xlink="http://www.w3.org/1999/xlink" x="0px" y="0px"
	 viewBox="0 0 512 512" style="enable-background:new 0 0 512 512;" xml:space="preserve">
<style type="text/css">
	.st0{fill:#069986;}
	.st1{fill-rule:evenodd;clip-rule:evenodd;fill:#FFFFFF;}
</style>
<path id="XMLID_2_" class="st0" d="M393.7,512H0V118.3C0,53,53,0,118.3,0H512v393.6C512,459,459,512,393.7,512z"/>
<path class="st1" d="M276.5,431.6c-2.8,0-5.1-2.3-5.1-5.1s2.3-5.1,5.1-5.1h19.1c2.8,0,5.1,2.3,5.1,5.1s-2.3,5.1-5.1,5.1H276.5z
	 M176.3,125.9c1.8,2.2,1.4,5.4-0.8,7.2s-5.4,1.4-7.2-0.8c-2.7-3.4-6.1-6.3-9.9-8.7c-0.7-0.2-1.4-0.6-1.9-1.1
	c-8-4.5-17.8-6.8-27.7-6.9c-9.4-0.1-19,1.8-27.4,5.7c-8.3,3.8-15.5,9.6-20.4,17.3c-6.9,10.8-9.3,25.6-4.1,44.5
	c0.7,2.7-0.8,5.5-3.6,6.3c-2.7,0.7-5.5-0.8-6.3-3.6c-1-3.6-1.7-7-2.3-10.3c-7.1,9.9-9.2,19.3-7.6,27.8c1.4,7.2,5.5,13.9,11.5,19.7
	c6.2,6.1,14.5,11.1,24,14.9c23.8,9.4,54.8,10.2,80.1-3.4c-6.3-5.7-9.9-12.5-9.9-20.6c0-2.8,2.3-5.1,5.1-5.1s5.1,2.3,5.1,5.1
	c0,5.4,2.9,10.1,7.9,14.2c1.1,0.9,2.2,1.7,3.4,2.5c0.2,0.1,0.3,0.2,0.5,0.3c5.9,3.7,13.7,6.8,22.5,9.1c2.7,0.7,4.4,3.5,3.7,6.2
	s-3.5,4.4-6.2,3.7c-8.6-2.3-16.4-5.2-22.9-8.8c-29,17.7-65.5,17.3-93,6.4c-10.7-4.2-20.1-10.1-27.4-17.1
	c-7.5-7.2-12.6-15.8-14.4-25.1c-2.7-13.8,1.9-29.1,16.7-44.4c0.5-10.8,3.6-20,8.5-27.7c6-9.5,14.8-16.5,24.7-21.1
	c9.8-4.5,20.9-6.7,31.8-6.6c9.2,0.1,18.4,1.9,26.5,5.3c3.1-22.3,19.8-38.7,42.5-48.4c13.2-5.7,28.4-9.1,44.1-10.1
	c15.6-1,31.6,0.3,46.4,4.2c29.5,7.6,54.4,25.2,62.3,53.6c9.6-5.5,21.2-8.3,32.9-8.4c10.9-0.1,22,2.1,31.8,6.6
	c10,4.6,18.7,11.6,24.7,21.1c5.5,8.6,8.7,19.2,8.5,31.8c14.7,15.2,19.1,30.4,16.5,44.1c-1.8,9.4-6.9,17.9-14.4,25.1
	c-7.2,7-16.7,12.8-27.4,17.1c-28.4,11.2-66.1,11.2-95.4-7.9c-6.7,4.2-15,7.5-24.4,10c-2.7,0.7-5.5-0.9-6.3-3.6
	c-0.7-2.7,0.9-5.5,3.6-6.3c10.7-2.9,19.7-6.8,25.8-11.8c4.8-4,7.7-8.7,7.7-14c0-2.8,2.3-5.1,5.1-5.1s5.1,2.3,5.1,5.1
	c0,7.2-3,13.5-8.1,18.8c25.9,15.4,58.4,14.9,83.2,5.2c9.5-3.7,17.7-8.8,24-14.9c6-5.8,10.1-12.5,11.5-19.7c1.7-8.7-0.5-18.3-8-28.3
	c-0.4,2.3-1,4.6-1.7,7c-0.7,2.7-3.6,4.3-6.3,3.6c-2.7-0.7-4.3-3.6-3.6-6.3c1.5-5.5,2.4-10.6,2.7-15.4c-0.1-0.7-0.1-1.5,0.1-2.2
	c0.3-10.8-2.3-19.7-6.9-26.9c-4.9-7.7-12.1-13.5-20.4-17.3c-8.5-3.9-18-5.8-27.4-5.7c-11.7,0.1-23.1,3.3-31.8,9.5
	c-0.7,1.2-1.8,2.1-3.2,2.5c-1.7,1.5-3.2,3.1-4.6,4.8c-1.8,2.2-5,2.6-7.2,0.8s-2.6-5-0.8-7.2c1.7-2.1,3.6-4.1,5.6-5.9
	c-5.6-26.6-28.4-43-55.9-50.1c-13.8-3.6-28.7-4.8-43.2-3.8c-14.5,1-28.6,4.1-40.7,9.3c-20.7,8.9-35.7,23.9-36.8,44.2
	C169.4,118.6,173.1,122,176.3,125.9L176.3,125.9z M248.6,151.7V311h-15.4v-29.8c0-0.5-0.1-1-0.2-1.4c0.1-0.4,0.2-0.9,0.2-1.4v-86.9
	c0-2.8-2.3-5.1-5.1-5.1s-5.1,2.3-5.1,5.1v81.8h-82.9c-0.2,0-0.3,0-0.5,0c-0.8-2.3-2.1-4.3-3.7-5.9c-2.8-2.8-6.7-4.6-11-4.6
	s-8.2,1.7-11,4.6s-4.6,6.7-4.6,11s1.7,8.2,4.6,11s6.7,4.6,11,4.6s8.2-1.7,11-4.6c1.7-1.7,2.9-3.7,3.7-5.9c0.1,0,0.3,0,0.5,0h82.8
	V311h-60.2c-3.6,0-7.3,1.4-10,4.1c-2.4,2.4-4,5.7-4,9.9v39.1l0,0l0,0c0,4.1,1.6,7.5,4,9.9c2.7,2.7,6.3,4.1,10,4.1h86.2l0.1,14.8
	h-86.3c-3.6,0-7.3,1.4-10,4.1c-2.4,2.4-4,5.7-4,9.9V446l0,0l0,0c0,4.1,1.6,7.5,4,9.9c2.7,2.7,6.3,4.1,10,4.1h182.7
	c0.2,0,0.5,0,0.7,0c3.4-0.2,6.8-1.6,9.3-4.1c2.4-2.4,4-5.7,4-9.9l0,0l0,0v-39.1c0-4.1-1.6-7.5-4-9.9c-2.5-2.5-5.9-3.9-9.3-4.1
	c-0.2,0-0.5,0-0.7,0h-86.2l-0.1-14.8h86.3c0.2,0,0.5,0,0.7,0c3.4-0.2,6.8-1.6,9.3-4.1c2.4-2.4,4-5.7,4-9.9l0,0l0,0V325
	c0-4.1-1.6-7.5-4-9.9c-2.5-2.5-5.9-3.9-9.3-4.1c-0.2,0-0.5,0-0.7,0h-61.1v-27.6h80.8c0.3,0,0.7,0,1-0.1c0.8,2.2,2,4.2,3.7,5.8
	c2.8,2.8,6.7,4.6,11,4.6s8.2-1.7,11-4.6s4.6-6.7,4.6-11s-1.7-8.2-4.6-11c-2.8-2.8-6.7-4.6-11-4.6s-8.2,1.7-11,4.6
	c-1.7,1.7-3,3.8-3.8,6.2c-0.3,0-0.6-0.1-0.8-0.1h-80.8v-81.7c0-2.8-2.3-5.1-5.1-5.1s-5.1,2.3-5.1,5.1v86.7c0,0.5,0.1,1,0.2,1.5
	c-0.1,0.5-0.2,1-0.2,1.5V311h-15.4V151.7c0-2.8-2.3-5.1-5.1-5.1C250.9,146.6,248.6,148.9,248.6,151.7L248.6,151.7z M128.7,274.6
	c1,1,1.6,2.3,1.6,3.8s-0.6,2.8-1.6,3.8s-2.3,1.6-3.8,1.6s-2.8-0.6-3.8-1.6s-1.6-2.3-1.6-3.8s0.6-2.8,1.6-3.8s2.3-1.6,3.8-1.6
	C126.4,273.1,127.7,273.7,128.7,274.6z M384.7,274.4c1,1,1.6,2.3,1.6,3.8s-0.6,2.8-1.6,3.8s-2.3,1.6-3.8,1.6s-2.8-0.6-3.8-1.6
	s-1.6-2.3-1.6-3.8s0.6-2.8,1.6-3.8s2.3-1.6,3.8-1.6C382.4,272.8,383.7,273.4,384.7,274.4z M344.9,321.3c0.2,0,0.4,0,0.5,0
	c1,0,2,0.4,2.8,1.1c0.6,0.6,1,1.5,1,2.6v39.1l0,0l0,0c0,1.2-0.4,2-1,2.6c-0.7,0.7-1.7,1.1-2.8,1.1c-0.2,0-0.4,0-0.5,0H162.8
	c-1,0-2-0.4-2.8-1.1c-0.6-0.6-1-1.5-1-2.6l0,0l0,0V325c0-1.2,0.4-2,1-2.6c0.7-0.7,1.7-1.1,2.8-1.1H344.9L344.9,321.3z M174.6,330.6
	h17c0.3,0,0.5,0,0.8,0.1c2.2,0.3,3.9,1.8,4.7,4.4c0.3,0.9,0.4,2.1,0.4,3.4v12.2l0,0c0,1.3-0.2,2.5-0.4,3.4c-0.8,2.6-2.5,4.1-4.7,4.4
	c-0.3,0-0.5,0.1-0.8,0.1h-17c-2.6,0-4.6-1.6-5.5-4.5c-0.3-0.9-0.4-2.1-0.4-3.4l0,0l0,0v-12.2c0-1.3,0.2-2.5,0.4-3.4
	C170,332.2,172.1,330.6,174.6,330.6L174.6,330.6z M187.3,340.8v7.5h-8.4v-7.5H187.3z M217.6,330.6h17c0.3,0,0.5,0,0.8,0.1
	c2.2,0.3,3.9,1.8,4.7,4.4c0.3,0.9,0.4,2.1,0.4,3.4v12.2l0,0c0,1.3-0.2,2.5-0.4,3.4c-0.8,2.6-2.5,4.1-4.7,4.4c-0.3,0-0.5,0.1-0.8,0.1
	h-17c-2.6,0-4.6-1.6-5.5-4.5c-0.3-0.9-0.4-2.1-0.4-3.4l0,0l0,0v-12.2c0-1.3,0.2-2.5,0.4-3.4C213,332.2,215,330.6,217.6,330.6
	L217.6,330.6z M230.3,340.8v7.5h-8.4v-7.5H230.3z M313.2,349.7c-2.8,0-5.1-2.3-5.1-5.1s2.3-5.1,5.1-5.1h19.1c2.8,0,5.1,2.3,5.1,5.1
	s-2.3,5.1-5.1,5.1H313.2z M276.5,349.7c-2.8,0-5.1-2.3-5.1-5.1s2.3-5.1,5.1-5.1h19.1c2.8,0,5.1,2.3,5.1,5.1s-2.3,5.1-5.1,5.1H276.5z
	 M344.9,403.2H162.8c-1,0-2,0.4-2.8,1.1c-0.6,0.6-1,1.5-1,2.6V446l0,0l0,0c0,1.2,0.4,2,1,2.6c0.7,0.7,1.7,1.1,2.8,1.1h182.1
	c0.2,0,0.4,0,0.5,0c1,0,2-0.4,2.8-1.1c0.6-0.6,1-1.5,1-2.6l0,0l0,0v-39.1c0-1.2-0.4-2-1-2.6c-0.7-0.7-1.7-1.1-2.8-1.1
	C345.3,403.2,345.1,403.2,344.9,403.2L344.9,403.2z M174.6,412.5h17c0.3,0,0.5,0,0.8,0.1c2.2,0.3,3.9,1.8,4.7,4.4
	c0.3,0.9,0.4,2.1,0.4,3.4v12.2l0,0c0,1.3-0.2,2.5-0.4,3.4c-0.8,2.6-2.5,4.1-4.7,4.4c-0.3,0-0.5,0.1-0.8,0.1h-17
	c-2.6,0-4.6-1.6-5.5-4.5c-0.3-0.9-0.4-2.1-0.4-3.4l0,0l0,0v-12.2c0-1.3,0.2-2.5,0.4-3.4C170,414.1,172.1,412.5,174.6,412.5
	L174.6,412.5z M187.3,422.8v7.5h-8.4v-7.5H187.3z M217.6,412.5h17c0.3,0,0.5,0,0.8,0.1c2.2,0.3,3.9,1.8,4.7,4.4
	c0.3,0.9,0.4,2.1,0.4,3.4v12.2l0,0c0,1.3-0.2,2.5-0.4,3.4c-0.8,2.6-2.5,4.1-4.7,4.4c-0.3,0-0.5,0.1-0.8,0.1h-17
	c-2.6,0-4.6-1.6-5.5-4.5c-0.3-0.9-0.4-2.1-0.4-3.4l0,0l0,0v-12.2c0-1.3,0.2-2.5,0.4-3.4C213,414.1,215,412.5,217.6,412.5
	L217.6,412.5z M230.3,422.8v7.5h-8.4v-7.5H230.3z M313.2,431.6c-2.8,0-5.1-2.3-5.1-5.1s2.3-5.1,5.1-5.1h19.1c2.8,0,5.1,2.3,5.1,5.1
	s-2.3,5.1-5.1,5.1H313.2z"/>
</svg>
