<svg id="Layer_1" data-name="Layer 1" xmlns="http://www.w3.org/2000/svg" viewBox="0 0 512 512"><defs><style>.cls-1{fill:#069986;stroke:#069986;stroke-miterlimit:10;}</style></defs><path class="cls-1" d="M220.84,314.14v2.93a26.4,26.4,0,0,0,26.37,26.37h2.93v11.71h11.72V343.44h2.93a26.37,26.37,0,0,0,0-52.74H247.21a14.65,14.65,0,1,1,0-29.29h17.58a14.66,14.66,0,0,1,14.65,14.64V279h11.72v-2.93a26.4,26.4,0,0,0-26.37-26.36h-2.93V238H250.14v11.72h-2.93a26.37,26.37,0,1,0,0,52.73h17.58a14.65,14.65,0,1,1,0,29.3H247.21a14.67,14.67,0,0,1-14.65-14.65v-2.93Z"/><path class="cls-1" d="M201.1,220.66l6.62,9.67,48.28-33L337.44,253A194.71,194.71,0,0,1,304,347.56l9.68,6.6a206.38,206.38,0,0,0,35.65-103.73l.2-3.32-93.57-64Z"/><path class="cls-1" d="M256,396.56A195.3,195.3,0,0,1,174.54,253L198,237l-6.62-9.67-29,19.82.2,3.31a207,207,0,0,0,90.1,158.09l3.28,2.23,3.29-2.22a204.69,204.69,0,0,0,47.11-44.31l-9.26-7.18A193.41,193.41,0,0,1,256,396.56Z"/><path class="cls-1" d="M370.76,290.7h32.8a17.57,17.57,0,1,0,0-11.72H375.61l-5.34-5.34a226.74,226.74,0,0,0,2.52-23.95h18a46.85,46.85,0,0,0,11.65-92.23c0-.51.07-1,.07-1.52a70.28,70.28,0,0,0-123-46.52,87.68,87.68,0,0,0-158,46.54l-.29,0a46.88,46.88,0,1,0,0,93.75h18a227.39,227.39,0,0,0,2.51,24L136.39,279H108.44a17.58,17.58,0,1,0,0,11.72h32.8l3.1-3.1a229.61,229.61,0,0,0,12,38.26h-47.9a17.58,17.58,0,1,0,0,11.72h53.22a231.48,231.48,0,0,0,16.89,29.29h-29.1a17.58,17.58,0,1,0,0,11.72h37.6a228.29,228.29,0,0,0,24.5,26.81L206,413.75H108.44a17.57,17.57,0,1,0,0,11.72H212.26l8.13-12.2a227.64,227.64,0,0,0,32.67,23.13l2.94,1.69,2.94-1.69a228.2,228.2,0,0,0,32.67-23.13l8.13,12.2H403.56a17.58,17.58,0,1,0,0-11.72H306l-5.57-8.35a228.2,228.2,0,0,0,24.49-26.81h37.61a17.58,17.58,0,1,0,0-11.72H333.42a229.58,229.58,0,0,0,16.89-29.29h53.25a17.58,17.58,0,1,0,0-11.72H355.63a230.26,230.26,0,0,0,12-38.29ZM420.06,279a5.86,5.86,0,1,1-5.86,5.86A5.87,5.87,0,0,1,420.06,279ZM91.94,290.7a5.86,5.86,0,1,1,5.86-5.86A5.86,5.86,0,0,1,91.94,290.7Zm0,46.88a5.86,5.86,0,1,1,5.86-5.86A5.87,5.87,0,0,1,91.94,337.58Zm41,41a5.86,5.86,0,1,1,5.86-5.86A5.86,5.86,0,0,1,133,378.59Zm-41,46.88a5.86,5.86,0,1,1,5.86-5.86A5.87,5.87,0,0,1,91.94,425.47Zm328.12-11.72a5.86,5.86,0,1,1-5.86,5.86A5.87,5.87,0,0,1,420.06,413.75Zm-41-46.88a5.86,5.86,0,1,1-5.86,5.86A5.87,5.87,0,0,1,379.05,366.87Zm41-41a5.86,5.86,0,1,1-5.86,5.86A5.87,5.87,0,0,1,420.06,325.86Zm-334-123a35.16,35.16,0,0,1,60.27-24.6l8.37-8.2a46.47,46.47,0,0,0-21.55-12.49,76.12,76.12,0,0,1,151.35-6.61l11.6-1.66a86.61,86.61,0,0,0-9.89-29.52,58.51,58.51,0,0,1,104.53,36.21A46.53,46.53,0,0,0,357.28,170l8.37,8.2A35.16,35.16,0,1,1,390.76,238H373.19v-3.09L256,154.7,141.37,233.13l-2.56,2V238H121.24A35.2,35.2,0,0,1,86.08,202.81ZM256,424.52A218,218,0,0,1,154.29,277.64l.39-.38-.55-.54A215.85,215.85,0,0,1,150.56,241L256,168.9,361.45,241a215.58,215.58,0,0,1-3.55,35.65l-.58.58.4.4A217.92,217.92,0,0,1,256,424.52Z"/></svg>