<svg id="Layer_1" data-name="Layer 1" xmlns="http://www.w3.org/2000/svg" viewBox="0 0 512 512"><defs><style>.cls-1{fill:#069986;}.cls-2{fill:#fff;fill-rule:evenodd;}</style></defs><circle class="cls-1" cx="256" cy="256" r="256"/><path class="cls-2" d="M216.28,382.4H186.7c-9.12,0-16.57,6-16.57,13.25v13.24H341.87V395.65c0-7.29-7.45-13.25-16.57-13.25H295.72V351.53H363a19.49,19.49,0,0,0,19.43-19.43V198.41A19.49,19.49,0,0,0,363,179H351a38.22,38.22,0,0,1-4.44,16.25h16.86a2.7,2.7,0,0,1,2.7,2.69V318.8H145.86V197.92a2.7,2.7,0,0,1,2.7-2.69h16.86A38.19,38.19,0,0,1,161,179H149a19.49,19.49,0,0,0-19.43,19.43V332.1A19.49,19.49,0,0,0,149,351.53h67.24Zm22.85-132a5.09,5.09,0,0,1,7.2-7.2l6.94,6.93,12-14.89a5.09,5.09,0,0,1,7.92,6.41l-15.58,19.26a5.1,5.1,0,0,1-7.59.43ZM256,190a58.06,58.06,0,1,0,58.06,58.06A58.06,58.06,0,0,0,256,190Zm30.82,59.43A37.36,37.36,0,0,1,256,286.09a37.36,37.36,0,0,1-30.82-36.63V223.3L256,210.09l30.82,13.21Zm33.11-99.56a40.91,40.91,0,0,0-54.44-34.05,45.28,45.28,0,0,0-76.76,32.54c0,.88,0,1.75.07,2.62a28.33,28.33,0,0,0,10.67,54.57h3.14a68.24,68.24,0,0,1,106.78,0h3.15a28.33,28.33,0,0,0,7.39-55.68ZM256,178a7.06,7.06,0,1,1,7.06-7.06A7.06,7.06,0,0,1,256,178Zm19.71-16.15a5.07,5.07,0,0,1-7.17-.32,16.62,16.62,0,0,0-25.08,0,5.08,5.08,0,0,1-7.49-6.85,26.69,26.69,0,0,1,40.06,0A5.08,5.08,0,0,1,275.71,161.83Zm10.53-11.5a5.09,5.09,0,0,1-7.19-.34,30.59,30.59,0,0,0-46.1,0,5.09,5.09,0,1,1-7.52-6.85,40.7,40.7,0,0,1,61.14,0,5.1,5.1,0,0,1-.33,7.19Z"/></svg>