<svg id="Layer_1" data-name="Layer 1" xmlns="http://www.w3.org/2000/svg" viewBox="0 0 512 512"><defs><style>.cls-1{fill:#069986;}.cls-2{fill:#fff;}</style></defs><circle class="cls-1" cx="256" cy="256" r="256"/><path class="cls-2" d="M339.72,237.2a130.44,130.44,0,0,0,59.06-107.47,118.27,118.27,0,0,1-59.06-18.59,118.2,118.2,0,0,1-59.05,18.59A130.43,130.43,0,0,0,339.72,237.2Zm0-97.52a24.53,24.53,0,0,1,14.77,44.18v19.79a4.92,4.92,0,0,1-4.92,4.92H329.88a4.92,4.92,0,0,1-4.92-4.92V183.86a24.53,24.53,0,0,1,14.76-44.18Z"/><path class="cls-2" d="M332.34,177a4.92,4.92,0,0,1,2.46,4.26v17.49h9.84V181.24a5,5,0,0,1,2.47-4.26,14.6,14.6,0,0,0,7.38-12.7,14.77,14.77,0,0,0-29.53,0A14.6,14.6,0,0,0,332.34,177Zm2.46-17.62h9.84v9.84H334.8Z"/><path class="cls-2" d="M398.78,287.31A68.94,68.94,0,0,0,366,228.67a137.15,137.15,0,0,1-23.71,18.54,4.9,4.9,0,0,1-5.16,0,140.38,140.38,0,0,1-64.28-95.58,68.68,68.68,0,0,0-85.45,62.2,5.15,5.15,0,0,1-5.42,4.58,68.9,68.9,0,0,0,.26,137.8H197l14.77-16.64v-67h9.84v68.89a4.91,4.91,0,0,1-1.24,3.27l-10.22,11.5h41V272.55H261v83.66h41l-10.22-11.5a4.91,4.91,0,0,1-1.24-3.27V272.55h9.84v67l14.77,16.64h14.76A69,69,0,0,0,398.78,287.31ZM182.25,238.1A49.26,49.26,0,0,0,133,287.31H123.2a59.1,59.1,0,0,1,59.05-59.05Z"/><path class="cls-2" d="M174.82,381.15a10,10,0,1,0,7,6.89l28.3-31.83H197Z"/><path class="cls-2" d="M330.28,388.05a9.53,9.53,0,0,0-.4,2.6,10,10,0,1,0,7.43-9.5l-22.19-24.94H302Z"/><path class="cls-2" d="M251.14,382.17a9.85,9.85,0,1,0,13.45,3.61,10,10,0,0,0-3.6-3.61v-26h-9.85Z"/></svg>