<svg id="Layer_1" data-name="Layer 1" xmlns="http://www.w3.org/2000/svg" viewBox="0 0 512 512"><defs><style>.cls-1{fill:#069986;}.cls-2{fill:#fff;}</style></defs><circle class="cls-1" cx="256" cy="256" r="256"/><path class="cls-2" d="M169.53,404.24h173L256,256Zm98.83-12.35H243.65V367.18h24.71Zm0-37.06H243.65V305.41h24.71Zm135.89-92.65a92.8,92.8,0,0,1-64.55,88.26L269.21,231.29H244.48L169.74,354.83h-.22c-34.06,0-61.77-30.49-61.77-67.95a68.1,68.1,0,0,1,26.65-53.94,105,105,0,0,1,200-60.57A92.38,92.38,0,0,1,404.25,262.18Z"/></svg>