<svg id="Layer_1" data-name="Layer 1" xmlns="http://www.w3.org/2000/svg" viewBox="0 0 512 512"><defs><style>.cls-1{fill:#069986;}.cls-2{fill:#fff;}</style></defs><circle class="cls-1" cx="256" cy="256" r="256"/><path class="cls-2" d="M292.69,388a7.33,7.33,0,1,0,0-14.66,22,22,0,0,1-22-22,7.33,7.33,0,0,0-14.66,0A36.69,36.69,0,0,0,292.69,388Z"/><path class="cls-2" d="M292.69,358.66a7.34,7.34,0,0,0,7.34-7.32h0a36.67,36.67,0,0,0-73.33,0,7.33,7.33,0,1,0,14.66,0,22,22,0,0,1,44,0,7.33,7.33,0,0,0,7.32,7.33Z"/><path class="cls-2" d="M263.35,402.66a7.33,7.33,0,0,0,3.23-13.92,40.77,40.77,0,0,1-25.22-37.41,7.33,7.33,0,1,0-14.66,0,55.46,55.46,0,0,0,33.45,50.58A7.1,7.1,0,0,0,263.35,402.66Z"/><path class="cls-2" d="M218.46,402.66a7.33,7.33,0,0,0,5.82-11.79A66.15,66.15,0,0,1,212,351.33a51.33,51.33,0,1,1,101,12.85,7.33,7.33,0,1,0,14.19,3.7l0-.06a66,66,0,1,0-129.91-16.49,80,80,0,0,0,15.25,48.45A7.34,7.34,0,0,0,218.46,402.66Z"/><path class="cls-2" d="M387.23,215.83a116.92,116.92,0,0,0-225-33c-.52,0-1-.13-1.57-.13a80.66,80.66,0,0,0,0,161.32h22.4a79.28,79.28,0,0,1,4.38-19.66,21.61,21.61,0,0,1-15.78-33.79,110,110,0,0,1,152.5-30.88,108.86,108.86,0,0,1,12.54,9.69,21.87,21.87,0,0,1-6.58,36.77A80.21,80.21,0,0,1,343.65,344H366a65.81,65.81,0,0,0,21.24-128.17Z"/><path class="cls-2" d="M190,310.05a7.33,7.33,0,0,0,6.11-3.28,80.73,80.73,0,0,1,121-15.56,7.33,7.33,0,0,0,9.78-10.92h0a95.31,95.31,0,0,0-143,18.36,7.34,7.34,0,0,0,6.1,11.4Z"/></svg>